<svg xmlns="http://www.w3.org/2000/svg" viewBox="0 0 191 191"><defs><style>.cls-1{fill:none;stroke:#000;stroke-width:3px;}.cls-2{font-size:21.75px;font-family:Gotham-Book, Gotham;}</style></defs><g id="Layer_2" data-name="Layer 2"><g id="Circle"><circle class="cls-1" cx="95.5" cy="95.5" r="94"/><text class="cls-2" transform="translate(88.19 162.25) rotate(-166.82)">V</text><text class="cls-2" transform="matrix(-0.92, -0.4, 0.4, -0.92, 74.61, 159.11)">a</text><text class="cls-2" transform="matrix(-0.86, -0.51, 0.51, -0.86, 63.74, 154.17)">l</text><text class="cls-2" transform="translate(59.26 151.83) rotate(-141.47)">u</text><text class="cls-2" transform="matrix(-0.66, -0.75, 0.75, -0.66, 49.4, 144.05)">e</text><text class="cls-2" transform="translate(41.5 134.93) rotate(-121.54)">s</text><text class="cls-2" transform="translate(36.24 126.19) rotate(-114.61)"> </text><text class="cls-2" transform="translate(33.51 121.05) rotate(-106.19)">b</text><text class="cls-2" transform="translate(29.73 108) rotate(-95.3)">a</text><text class="cls-2" transform="translate(28.65 96.25) rotate(-86.06)">s</text><text class="cls-2" transform="matrix(0.23, -0.97, 0.97, 0.23, 29.19, 86.21)">e</text><text class="cls-2" transform="translate(31.83 74.48) rotate(-65.52)">d</text><text class="cls-2" transform="translate(37.72 62.11) rotate(-57.12)"> </text><text class="cls-2" transform="translate(40.86 57.08) rotate(-51.04)">-</text><text class="cls-2" transform="matrix(0.71, -0.71, 0.71, 0.71, 46.09, 50.67)"> </text><text class="cls-2" transform="translate(49.96 46.31) rotate(-36.62)">P</text><text class="cls-2" transform="matrix(0.9, -0.43, 0.43, 0.9, 60.9, 38.14)">u</text><text class="cls-2" transform="matrix(0.96, -0.28, 0.28, 0.96, 72.37, 32.83)">r</text><text class="cls-2" transform="matrix(0.99, -0.12, 0.12, 0.99, 80, 30.27)">p</text><text class="cls-2" transform="matrix(1, 0.07, -0.07, 1, 93.46, 28.53)">o</text><text class="cls-2" transform="translate(106.63 29.56) rotate(14.18)">s</text><text class="cls-2" transform="translate(116.43 31.89) rotate(23.76)">e</text><text class="cls-2" transform="translate(127.49 36.93) rotate(31.5)"> </text><text class="cls-2" transform="matrix(0.77, 0.64, -0.64, 0.77, 132.63, 39.69)">d</text><text class="cls-2" transform="translate(143 48.56) rotate(49.1)">r</text><text class="cls-2" transform="translate(148.37 54.83) rotate(54.84)">i</text><text class="cls-2" transform="translate(151.5 58.8) rotate(62.18)">v</text><text class="cls-2" transform="translate(156.9 68.76) rotate(71.99)">e</text><text class="cls-2" transform="translate(160.71 80.16) rotate(82.58)">n</text><circle id="Ellipse_2_copy" data-name="Ellipse 2 copy" cx="94.38" cy="94.65" r="4"/></g></g></svg>