<svg xmlns="http://www.w3.org/2000/svg" viewBox="0 0 104.37 85.02"><defs><style>.cls-1{fill:#636363;}</style></defs><g id="Layer_2" data-name="Layer 2"><g id="logos"><polygon class="cls-1" points="67.68 0 62.04 18.09 71.45 22.52 23.37 8.34 51.01 52.89 81.38 25.49 67.68 0 67.68 0"/><path class="cls-1" d="M.47,84.73H.35c-.2,0-.35-.15-.35.13V67.67c0-.68.15-.83.35-.83H11.57a.34.34,0,0,1,.35.35v.12a.34.34,0,0,1-.35.35H.82v7.25H10a.34.34,0,0,1,.35.35v.12a.34.34,0,0,1-.35.35H.82v8.65a.34.34,0,0,1-.35.35"/><path class="cls-1" d="M14.36,84.73h-.12a.34.34,0,0,1-.35-.35V73.29a.34.34,0,0,1,.35-.35h.12a.34.34,0,0,1,.35.35v1.09a4.79,4.79,0,0,1,3.58-1.73,3.89,3.89,0,0,1,2.22.55.32.32,0,0,1,.14.21.31.31,0,0,1,0,.25l-.08.14a.4.4,0,0,1-.18.14.42.42,0,0,1-.27,0h0a3.44,3.44,0,0,0-1.76-.43,3.87,3.87,0,0,0-2.44.89,2.75,2.75,0,0,0-1.1,1.73c0,.32,0,.61,0,.91v7.38a.34.34,0,0,1-.35.35"/><path class="cls-1" d="M42.61,85c-3.42,0-5.81-2.57-5.81-6.24s2.39-6.13,5.81-6.13a5.06,5.06,0,0,1,5.26,5.41,2.93,2.93,0,0,1-.13.94.38.38,0,0,1-.31.19H37.65c.15,3,2.14,5,5,5A6.41,6.41,0,0,0,46.43,83a.31.31,0,0,1,.27-.07.25.25,0,0,1,.18.15l.11.15a.28.28,0,0,1-.08.39v0A7.39,7.39,0,0,1,42.61,85m-5-6.62H47c0-.13,0-.25,0-.34a4.28,4.28,0,0,0-4.44-4.59,4.87,4.87,0,0,0-5,4.93"/><path class="cls-1" d="M71.33,84.8a.17.17,0,0,1-.12,0,.36.36,0,0,1-.16-.26L66.8,69,61.39,81.76a.35.35,0,0,1-.34.25.36.36,0,0,1-.35-.26L55.34,69,51.05,84.5a.36.36,0,0,1-.16.26.22.22,0,0,1-.21,0l-.22,0c-.26-.07-.22-.29-.19-.41l4.6-17.22a.33.33,0,0,1,.31-.27.38.38,0,0,1,.39.25l5.48,12.85,5.51-12.86a.36.36,0,0,1,.34-.25.37.37,0,0,1,.35.26l4.58,17.24c0,.12.07.34-.2.41l-.23,0-.07,0"/><path class="cls-1" d="M75.82,84.73h-.11a.35.35,0,0,1-.36-.35V73.29a.35.35,0,0,1,.36-.35h.11a.34.34,0,0,1,.35.35V84.38a.34.34,0,0,1-.35.35"/><path class="cls-1" d="M90,84.73h-.12a.34.34,0,0,1-.35-.35v-6.6c0-3.06-1.42-4.31-4.1-4.31-2.47,0-4.36,1.51-4.34,2.86v8a.34.34,0,0,1-.35.35h-.11a.34.34,0,0,1-.35-.35V73.29a.34.34,0,0,1,.35-.35h.11a.34.34,0,0,1,.35.35V74.5a5.74,5.74,0,0,1,4.34-1.85c3.17,0,4.92,1.59,4.92,5.13v6.6a.34.34,0,0,1-.35.35"/><path class="cls-1" d="M99.42,85c-3.11,0-5.63-2.79-5.63-6.21a6.44,6.44,0,0,1,1.6-4.4,5.65,5.65,0,0,1,4.21-1.76,6.6,6.6,0,0,1,4,1.46V67.19a.35.35,0,0,1,.36-.35h.11a.34.34,0,0,1,.32.35V84.38a.34.34,0,0,1-.32.35h-.11a.35.35,0,0,1-.36-.35v-1A5.76,5.76,0,0,1,99.42,85m.18-11.55c-3,0-5,2.19-5,5.34a5.15,5.15,0,0,0,4.85,5.39,4.89,4.89,0,0,0,4.16-2V75.24a5.62,5.62,0,0,0-4-1.77"/><path class="cls-1" d="M28.11,85c-3.42,0-5.81-2.57-5.81-6.24s2.39-6.13,5.81-6.13a5.06,5.06,0,0,1,5.26,5.41,2.73,2.73,0,0,1-.14.94.37.37,0,0,1-.3.19H23.15c.15,3,2.14,5,5,5A6.35,6.35,0,0,0,31.92,83a.33.33,0,0,1,.28-.07.29.29,0,0,1,.18.15l.11.15a.29.29,0,0,1-.08.39v0A7.39,7.39,0,0,1,28.11,85m-5-6.62h9.39c0-.13,0-.25,0-.34a4.28,4.28,0,0,0-4.44-4.59,4.88,4.88,0,0,0-5,4.93"/><path class="cls-1" d="M75.22,70.14l1-3.23a.09.09,0,0,1,.17,0l.84,1.56a.09.09,0,0,1,0,.11l-1.87,1.68a.09.09,0,0,1-.14-.1"/></g></g></svg>