<svg xmlns="http://www.w3.org/2000/svg" viewBox="0 0 636.73 147.73"><g class="logo-b"><path d="M123.13,134.45h1.5v5.78h7.66v-5.78h1.5v13h-1.5v-5.86h-7.66v5.86h-1.5Z"/><path d="M141.34,134.45h9.6v1.34h-8.1v4.44h7.25v1.34h-7.25v4.56H151v1.34h-9.7Z"/><path d="M162.76,134.35h1.41l6.05,13.12h-1.61L167.05,144h-7.23l-1.57,3.45h-1.54Zm3.7,8.34-3-6.63-3,6.63Z"/><path d="M176.63,134.45h1.5v11.66h7.48v1.36h-9Z"/><path d="M193.79,135.8h-4.46v-1.35h10.43v1.35H195.3v11.67h-1.51Z"/><path d="M206.37,134.45h1.49v5.78h7.67v-5.78H217v13h-1.5v-5.86h-7.67v5.86h-1.49Z"/><path d="M241.56,145.62a5.8,5.8,0,0,1-4.34,2c-2.39,0-4.18-1.47-4.18-3.64v0c0-1.73,1.18-3,3.21-3.76a4.18,4.18,0,0,1-1.33-2.86v0a3.21,3.21,0,0,1,3.51-3.09,3,3,0,0,1,3.22,2.94v0c0,1.65-1.19,2.71-3.13,3.38l3,3a16.65,16.65,0,0,0,1.59-2.91l1.23.56a17.69,17.69,0,0,1-1.91,3.28l2.31,2.32-1.13.86Zm-.91-.91-3.55-3.59c-1.76.64-2.54,1.7-2.54,2.79v0a2.54,2.54,0,0,0,2.77,2.46A4.59,4.59,0,0,0,240.65,144.71Zm-.4-7.44v0a1.79,1.79,0,0,0-1.88-1.81,1.89,1.89,0,0,0-2,1.88v0c0,.76.32,1.34,1.33,2.4C239.38,139.19,240.25,138.39,240.25,137.27Z"/><path d="M259.53,134.45h1.63L265,145.29l3.65-10.88h1.23l3.64,10.88,3.79-10.84h1.58l-4.74,13.11h-1.27L269.18,137l-3.66,10.57h-1.25Z"/><path d="M285.35,134.45H295v1.34h-8.1v4.44h7.25v1.34h-7.25v4.56H295v1.34h-9.69Z"/><path d="M301.86,134.45h1.5v11.66h7.47v1.36h-9Z"/><path d="M317.4,134.45h1.5v11.66h7.47v1.36h-9Z"/><path d="M332.94,134.45h1.4l8.36,10.43V134.45h1.46v13H343l-8.57-10.68v10.68h-1.46Z"/><path d="M351.72,134.45h9.6v1.34h-8.1v4.44h7.24v1.34h-7.24v4.56h8.19v1.34h-9.69Z"/><path d="M367.35,145.57l.93-1.08a6.4,6.4,0,0,0,4.56,1.84c1.78,0,3-.93,3-2.21v0c0-1.21-.66-1.9-3.45-2.47-3-.65-4.45-1.62-4.45-3.76v0c0-2,1.84-3.55,4.36-3.55a7,7,0,0,1,4.66,1.6L376,137a5.91,5.91,0,0,0-3.83-1.41c-1.73,0-2.83.93-2.83,2.1v0c0,1.23.69,1.91,3.61,2.53s4.32,1.69,4.32,3.68v0c0,2.23-1.89,3.68-4.53,3.68A7.89,7.89,0,0,1,367.35,145.57Z"/><path d="M383.1,145.57l.93-1.08a6.38,6.38,0,0,0,4.55,1.84c1.79,0,3-.93,3-2.21v0c0-1.21-.66-1.9-3.45-2.47-3-.65-4.46-1.62-4.46-3.76v0c0-2,1.84-3.55,4.37-3.55a7,7,0,0,1,4.66,1.6l-.87,1.13a5.91,5.91,0,0,0-3.83-1.41c-1.73,0-2.83.93-2.83,2.1v0c0,1.23.69,1.91,3.61,2.53s4.32,1.69,4.32,3.68v0c0,2.23-1.9,3.68-4.53,3.68A7.89,7.89,0,0,1,383.1,145.57Z"/><path d="M414.31,134.35h1.41l6,13.12h-1.62L418.6,144h-7.23l-1.57,3.45h-1.54Zm3.7,8.34-3-6.63-3,6.63Z"/><path d="M426.82,141v0a6.59,6.59,0,0,1,6.66-6.74,7.08,7.08,0,0,1,4.95,1.73l-1,1.12a5.67,5.67,0,0,0-4-1.49,5.14,5.14,0,0,0-5.05,5.34v0a5.08,5.08,0,0,0,5.26,5.41,6.35,6.35,0,0,0,3.83-1.3v-3.24h-4v-1.32h5.48v5.19a8.12,8.12,0,0,1-5.33,2A6.45,6.45,0,0,1,426.82,141Z"/><path d="M446.08,134.45h9.59v1.34h-8.09v4.44h7.24v1.34h-7.24v4.56h8.19v1.34h-9.69Z"/><path d="M462.58,134.45H464l8.36,10.43V134.45h1.46v13h-1.19L464,136.79v10.68h-1.46Z"/><path d="M480.78,141v0a6.62,6.62,0,0,1,6.71-6.74,7,7,0,0,1,5.18,2.07l-1,1.08a5.79,5.79,0,0,0-4.17-1.79,5.16,5.16,0,0,0-5.15,5.34v0a5.18,5.18,0,0,0,5.15,5.37,5.8,5.8,0,0,0,4.28-1.88l1,1a7,7,0,0,1-5.31,2.29A6.56,6.56,0,0,1,480.78,141Z"/><path d="M503.13,142.31l-5.52-7.86h1.82l4.48,6.51,4.51-6.51h1.74l-5.51,7.84v5.18h-1.52Z"/></g><g class="logo-a"><path d="M370.22,97.51c-.1.13-3.94,4.39-11.7,4.39-5.93,0-12-2.22-17.71-6.18C349.1,87,353.46,76,353.46,66.21c0-10.09-5.84-20.35-18.15-20.35a19.36,19.36,0,0,0-9.17,2.26c8-10.24,19.8-13.77,24.54-14.81.44.22.78.14.68-.22a7.15,7.15,0,0,0-3.24-3.57,2.26,2.26,0,0,0-1.27-.12,66.21,66.21,0,0,0-15.59-7.68c4.22-5.27,7-10.26,7-15.23,0-4.33-2.51-6.43-5.79-6.43C327.83.06,320.4,6,316.44,19.23c-.43,0-.85,0-1.29,0-25.08,0-49.07,20.21-49.07,47.12,0,13.65,9.05,27.13,21.42,31.31,5,7.91,14,12.06,24,12.06,10.65,0,19.83-4.61,26.85-11.37,6.16,5.35,12.71,8.39,18.69,8.39,9.16,0,13.8-7.89,14-8.75C371.21,97.31,370.63,97,370.22,97.51Zm-34.91-50c10.86,0,16.27,9,16.27,19s-4.85,20.33-12.39,28.08c-10.07-7.73-18.62-21-22.35-37.31C322.38,50.72,328.7,47.47,335.31,47.47Zm9.48-17.6c-10.28,2.94-21,10.87-28.93,22.37a79.55,79.55,0,0,1-1-12.6c5.61-6.09,11.26-11.65,15.62-16.92A59.56,59.56,0,0,1,344.79,29.87Zm-29.29.22a65.38,65.38,0,0,1,2.13-9.61,54.34,54.34,0,0,1,6.76.75C321.75,24,318.71,27,315.5,30.09Zm15.05-27.5c2,0,3,1.19,3,3.57,0,4.08-3.28,8.74-8.16,14a53.44,53.44,0,0,0-7.36-.91C321.19,9.47,326.24,2.59,330.55,2.59Zm-63,63.58c0-26.45,23.86-45.76,47.25-45.76l1.27,0a64.84,64.84,0,0,0-2,11c-14.07,13.74-30.65,30.7-30.65,51.21a28.57,28.57,0,0,0,2.9,13C275.22,91.29,267.57,79.28,267.57,66.17Zm45.27,40.47a19.25,19.25,0,0,1-15.42-7.73c7.65-.72,18-6.82,20.22-13.36.36-1.08-.56-1.26-.89-.3-1.78,5.17-11.24,12.12-20.34,12.24a23.86,23.86,0,0,1-3.75-13c0-17.82,10.3-31.8,21.12-43.71a86.55,86.55,0,0,0,1.15,12.83,69.41,69.41,0,0,0-8.81,19.68c-.27,1,.71,1.47,1.15.46a64.47,64.47,0,0,1,8.61-15.37c3.67,16.25,11.71,29.9,20.83,38.5C330,102.79,321.69,106.64,312.84,106.64Z"/><path d="M311.46,109.76a31.62,31.62,0,0,1-13.88-3.08,24.49,24.49,0,0,1-10.12-9A31,31,0,0,1,272.1,85.56,34.65,34.65,0,0,1,266,66.32a45.53,45.53,0,0,1,15.15-33.69,50.83,50.83,0,0,1,34-13.49l1.13,0h.11c2.28-7.58,5.48-12.08,7.77-14.52C326.92,1.69,330,0,332.49,0c3.61,0,5.86,2.49,5.86,6.49,0,4.46-2.16,9.15-7,15.2a66.17,66.17,0,0,1,15.48,7.71c2.3-.52,5.75,4.86,3.78,3.88-4.65,1-16.24,4.6-24.25,14.63a19.6,19.6,0,0,1,8.93-2.11,16.81,16.81,0,0,1,13.74,6.41,22.72,22.72,0,0,1,4.47,14,39.59,39.59,0,0,1-3.22,15.17,47.67,47.67,0,0,1-9.4,14.33c5.77,4,11.86,6.12,17.62,6.12,7.78,0,11.62-4.31,11.65-4.36a.57.57,0,0,1,.69-.23.6.6,0,0,1,.23.74c-.24.89-4.92,8.79-14.09,8.79-5.91,0-12.37-2.89-18.69-8.36C332.9,103.59,323.87,109.76,311.46,109.76Zm3.69-90.5a50.71,50.71,0,0,0-33.9,13.46,45.43,45.43,0,0,0-15.11,33.6,34.48,34.48,0,0,0,6.06,19.17,31,31,0,0,0,15.32,12.08h0v0a24.48,24.48,0,0,0,10.09,9,31.49,31.49,0,0,0,13.82,3.06c12.4,0,21.42-6.17,26.8-11.35l0,0,.05,0c6.31,5.47,12.76,8.37,18.65,8.37,9.1,0,13.73-7.82,14-8.7.07-.28,0-.51-.16-.6s-.38,0-.54.2h0S366.36,102,358.52,102c-5.81,0-11.94-2.14-17.75-6.19l0,0,0,0a47.85,47.85,0,0,0,9.43-14.35,39.56,39.56,0,0,0,3.21-15.12A22.56,22.56,0,0,0,349,52.29a16.67,16.67,0,0,0-13.64-6.36,19.27,19.27,0,0,0-9.14,2.24l-.28.16.2-.25c8.05-10.26,19.81-13.77,24.5-14.8h0a11.57,11.57,0,0,0,5.17,1.44c3.57,0,5.19-1.39,5.19-2.68a2.87,2.87,0,0,0-1.84-2.3,13,13,0,0,0-5.76-1.09,29.73,29.73,0,0,0-6.68.79h0a64.9,64.9,0,0,0-15.42-7.65l-.08,0,0-.08c4.85-6.06,7-10.74,7-15.19,0-4-2.14-6.37-5.73-6.37-2.5,0-5.51,1.68-8.24,4.6-2.29,2.44-5.48,6.94-7.75,14.52v.05h-.22Zm-2.31,87.44a19.18,19.18,0,0,1-15.47-7.76l-.07-.09h.11a29.2,29.2,0,0,0,12.14-4.48c4.16-2.65,7-5.78,8-8.83.17-.49.06-.77-.12-.83s-.49.11-.65.57c-.9,2.61-3.68,5.62-7.45,8a25.21,25.21,0,0,1-12.95,4.23h0l0,0a23.74,23.74,0,0,1-3.77-13c0-18,10.69-32.24,21.14-43.75l.11-.12v.16A85.45,85.45,0,0,0,315,53.61v0a69.61,69.61,0,0,0-8.81,19.67c-.13.49.05.83.3.92s.52,0,.73-.5a64.46,64.46,0,0,1,8.62-15.39l.08-.1,0,.13c3.44,15.22,11,29.24,20.82,38.47l.05,0-.05,0C329.63,103.24,321.14,106.7,312.84,106.7ZM297.54,99a19.08,19.08,0,0,0,15.3,7.62c8.25,0,16.69-3.44,23.78-9.69-9.75-9.22-17.32-23.19-20.77-38.36a64.28,64.28,0,0,0-8.52,15.26c-.25.56-.63.65-.89.57a.84.84,0,0,1-.38-1.07,69.86,69.86,0,0,1,8.81-19.69A85.71,85.71,0,0,1,313.72,41c-10.4,11.48-21,25.62-21,43.55a23.73,23.73,0,0,0,3.72,12.92,24.94,24.94,0,0,0,12.85-4.21c3.75-2.41,6.51-5.39,7.4-8,.19-.54.55-.74.81-.65s.39.42.2,1c-1,3.07-3.89,6.23-8.09,8.89A29.44,29.44,0,0,1,297.54,99Zm-11-3.19-.15,0a28.55,28.55,0,0,1-13.62-11.5,33.48,33.48,0,0,1-5.23-18,44.28,44.28,0,0,1,14.87-32.85,48.88,48.88,0,0,1,32.44-13l.93,0h.42l0,.08a65.25,65.25,0,0,0-1.95,11v0h0c-7.23,7.06-14.77,14.65-20.6,23.06-6.75,9.75-10,18.94-10,28.11a28.57,28.57,0,0,0,2.9,13Zm28.31-75.3a48.67,48.67,0,0,0-32.35,13,44.11,44.11,0,0,0-14.84,32.75,33.39,33.39,0,0,0,5.21,18,28.51,28.51,0,0,0,13.42,11.38,28.64,28.64,0,0,1-2.84-12.9c0-9.19,3.29-18.41,10.06-28.18,5.83-8.41,13.37-16,20.59-23.06A66.46,66.46,0,0,1,316,20.49h-1.19Zm24.37,74.15,0,0c-10.65-8.18-18.8-21.79-22.37-37.35v0l0,0c5.45-6.39,11.86-9.77,18.52-9.77,11.28,0,16.33,9.56,16.33,19S347,86.59,339.23,94.58ZM316.91,57.23c3.56,15.5,11.67,29.06,22.27,37.22,7.72-8,12.33-18.42,12.33-28,0-9.42-5-18.92-16.2-18.92C328.69,47.53,322.33,50.89,316.91,57.23Zm-1.09-4.83,0-.15a80,80,0,0,1-1-12.61v0c2-2.15,4-4.24,5.9-6.27,3.55-3.72,6.91-7.24,9.72-10.65l0,0h0a59,59,0,0,1,14.35,7.15l.12.08-.13,0c-10.69,3.06-21.23,11.21-28.9,22.35Zm-.93-12.73a81.16,81.16,0,0,0,1,12.41c7.65-11,18.12-19.14,28.75-22.24a58.56,58.56,0,0,0-14.17-7c-2.81,3.4-6.16,6.91-9.7,10.63C318.85,35.44,316.87,37.52,314.89,39.67Zm.53-9.4,0-.18a65.09,65.09,0,0,1,2.13-9.63v0h.05a52.9,52.9,0,0,1,6.77.75l.11,0-.08.08c-2.57,2.72-5.52,5.59-8.65,8.64Zm2.25-9.72a64.43,64.43,0,0,0-2.08,9.37l.11-.1c3.09-3,6-5.86,8.56-8.55A51.9,51.9,0,0,0,317.67,20.55Zm7.71-.29h0a52.16,52.16,0,0,0-7.35-.9h-.08l0-.07c3.25-10,8.32-16.75,12.61-16.75,2,0,3,1.23,3,3.64,0,3.6-2.53,7.94-8.19,14.07Zm-7.3-1a52.22,52.22,0,0,1,7.25.89c5.62-6.09,8.13-10.4,8.13-14,0-2.36-.95-3.51-2.91-3.51C326.33,2.65,321.32,9.31,318.08,19.23Z"/><path d="M462.32,45.88l-8.83-.14h-.58a.6.6,0,0,0,0,1.19h0c6.42,0,6.55.77,6.44,19.23-.08,11.91-.07,14.16-.34,17-.34,3.51-1.57,4.41-6,4.48h-.1a.75.75,0,0,0,.09,1.5h0l.6,0c2.23-.09,5.13-.17,8.31-.17H462c3.18,0,6.08.08,8.31.17l.6,0h0a.75.75,0,0,0,.09-1.5h-.1c-4.42-.07-5.64-1-6-4.48-.27-2.79-.34-5-.34-17,0-17.69.42-19.23,6.43-19.23h0a.59.59,0,0,0,.57-.59.6.6,0,0,0-.6-.6h-.57l-8.84.14Z"/><path d="M400.74,67.79c-2.12-2-3.4-2.8-11.17-6.19-8.68-3.78-10.49-5.59-10.49-10.34,0-5.06,3.7-8.61,9-8.61a13.35,13.35,0,0,1,8.07,2.5c1.66,1.28,2.85,3,4.05,6.72a0,0,0,0,1,0,0,.85.85,0,0,0,.81.59.84.84,0,0,0,.84-.85c0-.3-.2-1.1-.28-2s-.22-3.78-.22-4.91c0,0,0-2.4.16-3.47h0a.59.59,0,0,0-.6-.59.61.61,0,0,0-.44.2h0c-.1.11-.24.33-.85.33a9.32,9.32,0,0,1-1.88-.23,74.76,74.76,0,0,0-8.91-.68c-9.51,0-15.69,5.21-15.69,13.13a10.41,10.41,0,0,0,3.32,8c2.26,2,2.34,2.11,10.34,5.74,9.2,4.15,11.09,6,11.09,10.71,0,5.21-4.15,9.06-9.89,9.06-4.45,0-9-1.51-11.32-3.7a14.73,14.73,0,0,1-4-7.37h0a.85.85,0,0,0-1.68.14s0,.06,0,.09h0A99.78,99.78,0,0,0,372.36,89h0s.05.09.07.13,0,0,0,0a.58.58,0,0,0,.46.23l.09,0h0c.18,0,.33-.14.57-.35a2.26,2.26,0,0,1,1.34-.4,5.34,5.34,0,0,1,1,.08,62.46,62.46,0,0,0,10.64,1.06c11.39,0,18-4.76,18-13.06A11.88,11.88,0,0,0,400.74,67.79Z"/><path d="M509.18,58.34a11.94,11.94,0,0,0-5-9.8c-3.06-2.11-6.67-3.06-11.84-3.06-1.23,0-3.2.06-5.51.13-3.41.14-4.63.21-6.74.21h-2.81l-.36,0h-.23l-.65,0a.79.79,0,0,0-.3,0h0a.58.58,0,0,0-.43.56.59.59,0,0,0,.31.51h0l.07,0h0a4.74,4.74,0,0,0,.73.12h0l.39,0,.31,0c1.82.23,2.84.78,3.28,1.51a2.22,2.22,0,0,1,.18.38,1.28,1.28,0,0,1,.07.28c.21.81.27,3.74.27,9.73,0,12.11-.13,18.58-.4,22-.34,4.76-1.23,6-4.63,6.39a3.82,3.82,0,0,0-.92.18.75.75,0,0,0,.25,1.46c4.29-.21,5.7-.21,7.61-.21l9.49.21a.76.76,0,0,0,.3-1.45h0a.34.34,0,0,0-.12,0,3,3,0,0,0-.6,0c-3.78-.12-4.89-1-5.16-3.7-.27-2.32-.48-7.56-.48-11.78,1.5.07,2.38.14,3.61.14C501.49,72.22,509.18,66.71,509.18,58.34ZM486.24,70.11V67.39c0-9.6.14-18.24.34-19.06.14-.61,1.64-.95,4.36-.95,7.21,0,11.91,4.56,11.91,11.64,0,6.8-5.17,11.29-13.07,11.29C488.76,70.31,487.87,70.25,486.24,70.11Z"/><path d="M450.33,87.63h-.08c-1.6-.29-3-1.17-6.86-5C435,74.1,428.56,67.05,425.9,64.05c5.81-5,10-8.93,12.88-11.28,5.16-4.26,6.63-5,8.82-5.74l.47-.12.06,0a.59.59,0,0,0,.41-.56.6.6,0,0,0-.59-.6h-.17l-1,.06c-1.41.06-3.56.13-5.36.15h-.88c-1.38,0-5.74-.13-6.94-.18l-.3,0h-1a.6.6,0,0,0-.6.6.59.59,0,0,0,.22.45v0a.43.43,0,0,0,.12.07h0l.15,0c.14,0,.8,0,.9,0,2.76.16,3.84.71,3.84,2,0,1.7-3.63,5.54-18.06,18.13,0-5.24.14-10.76.34-14.36.2-4.32.55-5,3.85-5.62l.48-.08.66-.07.11,0,0,0,.08,0a.59.59,0,0,0-.32-1.09h0l-1.52.07c-1.42.06-3.57.13-5.36.15h-.88c-1.38,0-5.75-.13-6.94-.18h-.23l-.65,0a.79.79,0,0,0-.3,0s0,0,0,0a.58.58,0,0,0-.12,1.07h0l.06,0h0a7.87,7.87,0,0,0,1.15.16c3.53.35,4.06,1.16,4.14,10.31v1.21h0c0,.73,0,1.51,0,2.34,0,10.89-.14,17.77-.34,20.49-.34,4.62-.86,5.08-4.08,6-.38.1-.57.15-1,.27h0l-.05,0,0,0a.76.76,0,0,0-.38.66.74.74,0,0,0,.69.74h.07c.28,0,.73-.06,1.7-.07h.11c1.77-.07,3.89-.11,6.17-.11,2.84,0,5.44.06,7.43.16l.6,0a.75.75,0,0,0,.24-1.46,2.67,2.67,0,0,0-.81-.08c-3.27-.27-4.08-1-4.42-3-.41-2.18-.55-5.38-.55-14.23v-.54l2.45-2.18c3.68,3.54,6.67,6.54,9.87,9.94,5.58,5.92,7.15,7.82,7.15,8.5s-.53,1-1.71,1.25c-.3.07-1.68.31-1.8.33h0a.75.75,0,0,0,0,1.47l.12,0h.22l1.39-.06c1.77-.06,3.89-.1,6.17-.1,2.83,0,5.37.07,7.36.17a.76.76,0,0,0,.76-.75A.74.74,0,0,0,450.33,87.63Z"/><path d="M545.94,58.34a11.94,11.94,0,0,0-5-9.8c-3.06-2.11-6.67-3.06-11.84-3.06-1.23,0-3.2.06-5.51.13-3.41.14-4.63.21-6.74.21H514l-.36,0h-.22l-.66,0a.79.79,0,0,0-.3,0h0a.58.58,0,0,0-.43.56.59.59,0,0,0,.31.51h0l.06,0h0a4.74,4.74,0,0,0,.73.12h0l.39,0,.31,0c1.82.23,2.84.78,3.28,1.51a2.22,2.22,0,0,1,.18.38,1.28,1.28,0,0,1,.07.28c.21.81.27,3.74.27,9.73,0,12.11-.13,18.58-.4,22-.34,4.76-1.23,6-4.63,6.39a3.82,3.82,0,0,0-.92.18A.75.75,0,0,0,512,89.1c4.29-.21,5.7-.21,7.61-.21l9.5.21a.76.76,0,0,0,.29-1.45h0l-.13,0a3,3,0,0,0-.6,0c-3.78-.12-4.89-1-5.16-3.7-.27-2.32-.48-7.56-.48-11.78,1.5.07,2.38.14,3.61.14C538.25,72.22,545.94,66.71,545.94,58.34ZM523,70.11V67.39c0-9.6.14-18.24.34-19.06.14-.61,1.64-.95,4.36-.95,7.21,0,11.91,4.56,11.91,11.64,0,6.8-5.17,11.29-13.07,11.29C525.52,70.31,524.63,70.25,523,70.11Z"/><path d="M583.51,78.28a.83.83,0,0,0-1.52-.44l-.06.12h0c-1,3-2.75,5.72-4.74,6.91-1.68,1-5.31,1.5-10.28,1.5-6.53,0-7.08-.21-7.21-3.07-.14-2.31-.14-8.23-.14-15.79,7.76.07,10.21.07,11.57.21,3.47.34,5.17,1.86,5.17,5.2h0a.83.83,0,0,0,1.65-.06s-.22-3.45-.22-5.15c0-2,.23-5.86.37-7.36V60.3a.82.82,0,0,0-.82-.82.83.83,0,0,0-.79.58s0,0,0,0a.13.13,0,0,0,0,.06.14.14,0,0,0,0,.07c-.44,3.49-.94,4.22-3.76,4.7-1.77.2-2.24.27-13.13.27V50.51c.07-1.63.14-1.77,1.16-2s4.42-.27,6.8-.27c6,0,9.05.47,10.28,1.63.88.82,1.49,2.78,1.63,5.84a.82.82,0,0,0,1.63.16h0a7.58,7.58,0,0,0,.11-1.58,58,58,0,0,1,.44-5.92,14.49,14.49,0,0,0,.34-2.11c0-.41-.2-.61-.68-.61h-1.09c-1.68.06-15.48.25-20.11.27-2.66,0-5.21-.05-6.32-.05l-2.86-.08-.35,0h-.23l-.65,0a.77.77,0,0,0-.3,0h0a.58.58,0,0,0-.12,1.07h0l.06,0h0a4.92,4.92,0,0,0,.74.12h0l.39,0,.3,0c1.83.23,2.18.78,2.62,1.51.06.12.12.24.18.38a2.29,2.29,0,0,1,.07.28h0c.06.36.11.71.13,1,.13,2.25.27,9.94.27,16.33,0,11.84-.14,17.08-.55,18.44-.47,1.77-1.43,2.31-4.76,2.58h0a.75.75,0,0,0,.08,1.5c6-.27,7.65-.27,10.51-.27,9.57,0,19.26.28,20.86.33h.34l.06,0a.75.75,0,0,0,.58-.45h0s.11-.39.13-.44c.15-.47.33-1.19.61-2.28a52.38,52.38,0,0,0,1.63-7.63v-.06Z"/><path d="M636,91.15h-.11a5.16,5.16,0,0,1-.83.06c-6.19-.07-15.32-9.47-21.85-22.67,5.51-2.18,8.43-6.13,8.43-11.51,0-7.21-5.3-11.56-14.08-11.56-.82,0-3.07.06-5.86.2l-5.5.21h-2.49l-2.85-.08-.36,0h-.23l-.65,0a.79.79,0,0,0-.3,0h0a.58.58,0,0,0-.42.56.59.59,0,0,0,.31.51h0l.07,0h0a4.74,4.74,0,0,0,.73.12h0l.39,0,.31,0c1.82.23,2.38.78,2.83,1.51a4.7,4.7,0,0,1,.37,1.54c.16,1.28.28,3.66.34,7.7,0,.49,0,1,0,1.53v0c0,2.36,0,5.21,0,8.64,0,8.17-.09,12.32-.34,15-.3,3.26-1.57,4.16-5.22,4.62h0a.76.76,0,0,0,0,1.51h.87C591.07,89,594.88,89,596,89c4.42,0,9.75.14,9.75.14h0a.75.75,0,0,0,.07-1.5h0c-3.74-.41-5-.95-5.44-2s-.61-4-.61-11.77V70.31c1.16.07,1.7.07,2.59.07,1.77,0,3.54-.07,5-.2,3.54,7,9.34,13.9,12.4,17.3a16.85,16.85,0,0,0,12.73,5.65c1.63,0,3.82-.33,4.09-.67h0a.73.73,0,0,0,.25-.55A.76.76,0,0,0,636,91.15ZM604.13,68.27a17.73,17.73,0,0,1-4.42-.54V64.87c.07-2.79.07-2.79.14-7.62.06-7.28.13-8.24.54-8.85s1.91-.95,4.7-.95c6.46,0,10.21,3.95,10.21,10.75S611.48,68.27,604.13,68.27Z"/><path d="M91.32,45.88l-8.84-.14h-.57a.6.6,0,0,0,0,1.19h0c6.42,0,6.55.77,6.43,19.23-.07,11.91-.06,14.16-.34,17-.33,3.51-1.56,4.41-6,4.48h-.1A.75.75,0,0,0,82,89.1h0l.59,0c2.24-.09,5.14-.17,8.31-.17H91c3.17,0,6.07.08,8.31.17l.59,0h0a.75.75,0,0,0,.09-1.5h-.1c-4.42-.07-5.65-1-6-4.48-.28-2.79-.34-5-.34-17,0-17.69.42-19.23,6.43-19.23h0a.6.6,0,0,0,0-1.19h-.57l-8.84.14Z"/><path d="M29.73,67.79c-2.11-2-3.39-2.8-11.17-6.19C9.89,57.82,8.08,56,8.08,51.26c0-5.06,3.69-8.61,9-8.61a13.35,13.35,0,0,1,8.07,2.5c1.66,1.28,2.84,3,4.05,6.72,0,0,0,0,0,0a.84.84,0,0,0,1.65-.26c0-.3-.2-1.1-.28-2s-.22-3.78-.22-4.91c0,0,0-2.4.16-3.47h0a.6.6,0,0,0-1-.39h0a.92.92,0,0,1-.85.33,9.18,9.18,0,0,1-1.88-.23,74.92,74.92,0,0,0-8.91-.68c-9.51,0-15.7,5.21-15.7,13.13a10.45,10.45,0,0,0,3.32,8c2.27,2,2.34,2.11,10.34,5.74,9.21,4.15,11.1,6,11.1,10.71,0,5.21-4.15,9.06-9.89,9.06-4.45,0-9-1.51-11.32-3.7a14.66,14.66,0,0,1-4-7.37h0a.84.84,0,0,0-.83-.7.84.84,0,0,0-.85.84S0,76,0,76H0A99.78,99.78,0,0,0,1.36,89h0a.57.57,0,0,0,.08.13s0,0,0,0a.6.6,0,0,0,.47.23l.09,0H2c.18,0,.32-.14.57-.35a2.25,2.25,0,0,1,1.33-.4,5.39,5.39,0,0,1,1,.08,62.37,62.37,0,0,0,10.64,1.06c11.39,0,18-4.76,18-13.06A11.85,11.85,0,0,0,29.73,67.79Z"/><path d="M138.17,58.34a11.93,11.93,0,0,0-5-9.8c-3.06-2.11-6.67-3.06-11.84-3.06-1.23,0-3.2.06-5.52.13-3.4.14-4.62.21-6.73.21h-2.82l-.35,0h-.23l-.65,0a.79.79,0,0,0-.3,0h0a.58.58,0,0,0-.12,1.07h0l.07,0h0a4.74,4.74,0,0,0,.73.12h0l.39,0,.31,0c1.82.23,2.84.78,3.28,1.51.06.12.12.24.18.38a2.29,2.29,0,0,1,.07.28c.2.81.27,3.74.27,9.73,0,12.11-.13,18.58-.41,22-.34,4.76-1.22,6-4.62,6.39a3.93,3.93,0,0,0-.93.18.76.76,0,0,0-.49.71.76.76,0,0,0,.75.75c4.29-.21,5.7-.21,7.61-.21l9.49.21a.75.75,0,0,0,.75-.75.76.76,0,0,0-.46-.7h0l-.12,0a3.1,3.1,0,0,0-.6,0c-3.79-.12-4.89-1-5.16-3.7-.28-2.32-.48-7.56-.48-11.78,1.5.07,2.38.14,3.61.14C130.48,72.22,138.17,66.71,138.17,58.34ZM115.24,70.11V67.39c0-9.6.14-18.24.34-19.06.14-.61,1.63-.95,4.36-.95,7.21,0,11.91,4.56,11.91,11.64,0,6.8-5.18,11.29-13.07,11.29C117.76,70.31,116.87,70.25,115.24,70.11Z"/><path d="M79.33,87.63h-.08c-1.6-.29-3-1.17-6.86-5C64,74.1,57.55,67.05,54.9,64.05c5.81-5,10-8.93,12.88-11.28,5.15-4.26,6.62-5,8.82-5.74l.47-.12.06,0a.59.59,0,0,0,.41-.56.6.6,0,0,0-.6-.6h-.16l-1,.06c-1.42.06-3.56.13-5.36.15h-.88c-1.38,0-5.75-.13-6.94-.18l-.31,0h-1a.6.6,0,0,0-.6.6.59.59,0,0,0,.22.45v0a.43.43,0,0,0,.12.07h0l.15,0c.14,0,.8,0,.9,0,2.76.16,3.84.71,3.84,2,0,1.7-3.63,5.54-18.06,18.13,0-5.24.14-10.76.34-14.36.2-4.32.55-5,3.84-5.62l.49-.08.65-.07a.35.35,0,0,0,.11,0l0,0,.08,0a.59.59,0,0,0-.32-1.09h0l-1.53.07c-1.41.06-3.56.13-5.36.15h-.88c-1.37,0-5.74-.13-6.94-.18H38.2l-.66,0a.81.81,0,0,0-.3,0s0,0,0,0a.58.58,0,0,0-.43.56.59.59,0,0,0,.31.51h0l.06,0h0a7.69,7.69,0,0,0,1.14.16c3.53.35,4.07,1.16,4.14,10.31v1.21h0c0,.73,0,1.51,0,2.34,0,10.89-.14,17.77-.34,20.49-.35,4.62-.87,5.08-4.08,6-.38.1-.57.15-1,.27h0l-.05,0,0,0a.76.76,0,0,0-.38.66.74.74,0,0,0,.69.74h.07c.28,0,.72-.06,1.69-.07h.11c1.78-.07,3.9-.11,6.17-.11,2.85,0,5.45.06,7.44.16l.6,0a.76.76,0,0,0,.75-.75.74.74,0,0,0-.51-.71,2.7,2.7,0,0,0-.82-.08c-3.26-.27-4.07-1-4.41-3-.41-2.18-.55-5.38-.55-14.23v-.54l2.45-2.18C54,71.13,57,74.13,60.21,77.53c5.58,5.92,7.15,7.82,7.15,8.5s-.53,1-1.71,1.25c-.31.07-1.68.31-1.8.33h0a.75.75,0,0,0,0,1.47l.12,0h.22L65.58,89c1.78-.06,3.9-.1,6.17-.1,2.83,0,5.38.07,7.37.17a.75.75,0,0,0,.21-1.47Z"/><path d="M174.93,58.34a11.93,11.93,0,0,0-5-9.8c-3.06-2.11-6.67-3.06-11.84-3.06-1.23,0-3.2.06-5.52.13-3.4.14-4.62.21-6.73.21H143l-.36,0h-.23l-.65,0a.79.79,0,0,0-.3,0h0a.58.58,0,0,0-.12,1.07h0l.07,0h0a4.74,4.74,0,0,0,.73.12h0l.39,0,.31,0c1.82.23,2.84.78,3.28,1.51.06.12.12.24.18.38a2.29,2.29,0,0,1,.07.28c.2.81.27,3.74.27,9.73,0,12.11-.13,18.58-.41,22-.34,4.76-1.22,6-4.62,6.39a3.93,3.93,0,0,0-.93.18.76.76,0,0,0-.49.71.76.76,0,0,0,.75.75c4.29-.21,5.7-.21,7.61-.21l9.49.21a.76.76,0,0,0,.3-1.45h0l-.12,0a3,3,0,0,0-.6,0c-3.79-.12-4.89-1-5.16-3.7-.28-2.32-.48-7.56-.48-11.78,1.5.07,2.38.14,3.61.14C167.24,72.22,174.93,66.71,174.93,58.34ZM152,70.11V67.39c0-9.6.14-18.24.34-19.06.14-.61,1.63-.95,4.36-.95,7.21,0,11.91,4.56,11.91,11.64,0,6.8-5.18,11.29-13.07,11.29C154.52,70.31,153.63,70.25,152,70.11Z"/><path d="M212.51,78.28a.83.83,0,0,0-1.52-.44.27.27,0,0,0-.06.12h0c-1,3-2.74,5.72-4.74,6.91-1.67,1-5.31,1.5-10.27,1.5-6.54,0-7.08-.21-7.22-3.07-.13-2.31-.13-8.23-.13-15.79,7.76.07,10.21.07,11.57.21,3.47.34,5.17,1.86,5.17,5.2h0a.83.83,0,0,0,1.65-.06s-.22-3.45-.22-5.15c0-2,.23-5.86.37-7.36V60.3a.82.82,0,0,0-1.61-.24l0,0a.13.13,0,0,1,0,.06s0,0,0,.07c-.44,3.49-.94,4.22-3.76,4.7-1.77.2-2.24.27-13.13.27V50.51c.07-1.63.13-1.77,1.16-2,.88-.14,4.42-.27,6.8-.27,6,0,9,.47,10.28,1.63.88.82,1.49,2.78,1.62,5.84a.83.83,0,0,0,1.64.16h0a7.8,7.8,0,0,0,.1-1.58,57.67,57.67,0,0,1,.45-5.92,14.49,14.49,0,0,0,.34-2.11c0-.41-.21-.61-.68-.61h-1.09c-1.69.06-15.49.25-20.11.27-2.66,0-5.21-.05-6.32-.05l-2.86-.08-.36,0h-.22l-.66,0a.81.81,0,0,0-.3,0h0a.58.58,0,0,0-.43.56.59.59,0,0,0,.31.51h0l.06,0h0a4.74,4.74,0,0,0,.73.12h0l.39,0,.31,0c1.83.23,2.17.78,2.62,1.51.06.12.12.24.18.38a2.29,2.29,0,0,1,.07.28h0a8.76,8.76,0,0,1,.12,1c.14,2.25.27,9.94.27,16.33,0,11.84-.13,17.08-.54,18.44-.48,1.77-1.43,2.31-4.76,2.58h0a.75.75,0,0,0,.08,1.5c6-.27,7.65-.27,10.5-.27,9.58,0,19.27.28,20.87.33h.33l.06,0a.75.75,0,0,0,.59-.45h0s.12-.39.14-.44c.15-.47.33-1.19.61-2.28a52.38,52.38,0,0,0,1.63-7.63v-.06Z"/><path d="M265,91.15h-.11a5,5,0,0,1-.82.06c-6.19-.07-15.32-9.47-21.86-22.67,5.52-2.18,8.44-6.13,8.44-11.51,0-7.21-5.31-11.56-14.09-11.56-.81,0-3.06.06-5.85.2l-5.51.21h-2.48l-2.86-.08-.35,0h-.23l-.65,0a.79.79,0,0,0-.3,0h0a.58.58,0,0,0-.12,1.07h0l.06,0h0a4.74,4.74,0,0,0,.73.12h0l.39,0,.31,0c1.82.23,2.38.78,2.83,1.51a4.36,4.36,0,0,1,.36,1.54c.17,1.28.28,3.66.35,7.7,0,.49,0,1,0,1.53v0c0,2.36,0,5.21,0,8.64,0,8.17-.09,12.32-.34,15-.3,3.26-1.57,4.16-5.23,4.62h0a.76.76,0,0,0,0,1.51h.88C220.07,89,223.88,89,225,89c4.43,0,9.76.14,9.76.14h0a.75.75,0,0,0,.07-1.5h0c-3.74-.41-5-.95-5.44-2s-.61-4-.61-11.77V70.31c1.16.07,1.7.07,2.58.07,1.77,0,3.54-.07,5-.2,3.54,7,9.34,13.9,12.4,17.3a16.85,16.85,0,0,0,12.73,5.65c1.63,0,3.82-.33,4.09-.67h0a.73.73,0,0,0,.25-.55A.76.76,0,0,0,265,91.15ZM233.13,68.27a17.73,17.73,0,0,1-4.42-.54V64.87c.07-2.79.07-2.79.13-7.62.07-7.28.14-8.24.55-8.85s1.9-.95,4.69-.95c6.47,0,10.21,3.95,10.21,10.75S240.48,68.27,233.13,68.27Z"/></g></svg>
