<svg xmlns="http://www.w3.org/2000/svg" viewBox="0 0 174.37 66.99"><defs><style>.cls-1{fill:#636363;}</style></defs><g id="Layer_2" data-name="Layer 2"><g id="logos"><path class="cls-1" d="M56.25,35c0-1.14.17-3-1.12-3.47v-.07h6c3.34,0,5.29,1.41,5.29,3.66,0,1.7-1.09,2.66-2.53,3.29,2.27.48,4.12,2,4.12,4.47a5.09,5.09,0,0,1-3,4.43c-1.77.86-3.77.78-5.67.78H55.13V48c1.27-.48,1.12-2.32,1.12-3.48Zm3.41,3.16c1.64,0,4-.56,4-2.63A2.67,2.67,0,0,0,60.52,33l-1.7.18v5ZM61,46.22c2.08.2,4.17-.76,4.17-3.16s-2.37-3.51-4.6-3.39l-1.77.1V46Z"/><path class="cls-1" d="M87.59,39.55a9,9,0,0,1-9.3,8.89c-5,0-9.23-3.59-9.23-8.77A9,9,0,0,1,78.54,31a8.72,8.72,0,0,1,9,8.57M72,39.45c0,3.53,2.5,7.18,6.47,7.18s6.29-2.81,6.29-6.58-2.35-7.25-6.34-7.25S72,35.63,72,39.45"/><path class="cls-1" d="M89.9,34.87c0-1.16.18-3-1.11-3.39v-.07H95c5.76,0,9.35,3.13,9.35,8.16S100.52,48,94.85,48H88.79V48c1.26-.85,1.11-2.07,1.11-3.56ZM92.48,46a8.64,8.64,0,0,0,1.84.18c3.77,0,7.13-2,7.13-6.34s-2.48-6.65-6.7-6.65a9.79,9.79,0,0,0-2.27.28Z"/><path class="cls-1" d="M113.11,44.75c0,1.52,0,2.28,1.29,3.21V48h-4.93V48c1.24-.63,1.06-2.27,1.06-3.46V40.76L106.33,34a6.08,6.08,0,0,0-2.4-2.6h2.3a2.17,2.17,0,0,1,1.9.7l4,6.6,3.14-4.7c.43-.63,1-1.85-.41-2.53v-.07h4.43l-6.22,9.35Z"/><path class="cls-1" d="M133.69,34.62a5.08,5.08,0,0,0,.35-1.47,1.88,1.88,0,0,0-1.11-1.67v-.07h4.53v.07l-5.84,17.09a15,15,0,0,1-3.19-1.26,4.76,4.76,0,0,1-2.32-3l-3.85-10.59a5,5,0,0,0-1.24-2.2v-.07h5.72v.07l0,.13a13,13,0,0,0,.79,2.86l3.21,9.3Z"/><path class="cls-1" d="M144.18,44.45c0,1.32-.17,2.73,1.07,3.51V48h-6.8V48c1.23-.78,1.06-2.19,1.06-3.51V35c0-1.31.17-2.75-1.06-3.54v-.07h6.8v.07c-1.24.79-1.07,2.23-1.07,3.54Z"/><path class="cls-1" d="M154.42,31.41a5.16,5.16,0,0,1,3.52.83,3.91,3.91,0,0,1,1.69,3.14A3.39,3.39,0,0,1,157,38.59a4.22,4.22,0,0,1,3.64,4.32,5,5,0,0,1-1.79,3.92C157.43,48,156.09,48,154.3,48h-7.41V48c1.24-.78,1.06-2.19,1.06-3.53V35c0-1.32.18-2.76-1.06-3.52v-.07Zm-1.79,6.37a1.65,1.65,0,0,0,.48.1A2,2,0,0,0,155,35.7c0-1-.5-1.94-1.59-1.94a1.91,1.91,0,0,0-.73.15Zm0,7.58a1.75,1.75,0,0,0,1.11.3c1.64,0,2.3-1.36,2.3-2.83,0-1.92-.88-2.78-2.81-2.78h-.6Z"/><path class="cls-1" d="M167.9,45.23a7.22,7.22,0,0,0,2.65.38,4.38,4.38,0,0,0,3.7-1.39h.12l-1,3.82h-11.2V48c1.24-.78,1.06-2.19,1.06-3.51V35c0-1.32.18-2.76-1.06-3.52v-.07H171a2.71,2.71,0,0,0,1.06-.13h.08V35h-.08c-.68-1.19-2.12-1.07-3.36-1.07h-.81V38h2.35a2.6,2.6,0,0,0,.94-.13h.12v3.54h-.12c-.36-1-1.52-.91-2.46-.91h-.83Z"/><rect class="cls-1" x="109.13" y="56.74" width="11.24" height="0.76"/><path class="cls-1" d="M40.51,31.14h0c-4.73,0-5.28.25-5.28.25,2.44,1,2,3.51,1.05,6.37L28.31,59l0,.14-7.08-18.3h0l-1.11-3c-.95-2.86-1.44-5.48,1-6.47,0,0-.74-.34-5.61-.31h-.82a29,29,0,0,0-4.3.3C13,33,13.65,36.23,14.67,38.93l8.18,21c2.22,5.49,3.21,5.5,6.51,7l9.15-23.74.19-.48c1.11-2.83,2.34-6,3.29-8.5a4.68,4.68,0,0,1,2.68-2.89,22,22,0,0,0-4.16-.24"/><path class="cls-1" d="M17.35,21.23a16.65,16.65,0,0,0-8,2.37,8.1,8.1,0,0,1-1,.42,8.11,8.11,0,0,1-.22-1.9L8.05,8.77c0-3.11.18-6,.44-8.77C7.42-.07,1.09,3.06,0,4.05c0,0,.56.19,1.15.46,1.15.54,1.72,1.6,1.74,5.77l.17,32.15c0,5.63,4,7.33,5.5,7.75a18.79,18.79,0,0,0,6.1.89,20.51,20.51,0,0,0,3-.25l-.76-2a9.51,9.51,0,0,1-1.09.07,7.16,7.16,0,0,1-5.57-2.3,9.83,9.83,0,0,1-2-6.14l-.06-11c0-2.75.32-3.53,1-4a9.62,9.62,0,0,1,4.9-1.16c7,0,10.82,5.6,10.85,12.88a15.94,15.94,0,0,1-1.07,6.27l1.56,4A15.88,15.88,0,0,0,30.91,35c0-7.77-5.5-13.82-13.56-13.78"/></g></g></svg>