<svg xmlns="http://www.w3.org/2000/svg" viewBox="0 0 127.23 100.43"><defs><style>.cls-1{fill:#636363;}</style></defs><g id="Layer_2" data-name="Layer 2"><g id="logos"><polygon class="cls-1" points="8.96 96.3 8.96 100.34 12.25 100.34 12.25 99.89 9.59 99.89 9.59 98.49 12.05 98.49 12.05 98.04 9.59 98.04 9.59 96.75 12.23 96.75 12.23 96.3 8.96 96.3"/><polygon class="cls-1" points="16.98 96.3 16.98 99.58 16.97 99.58 14.47 96.3 13.8 96.3 13.8 100.34 14.4 100.34 14.4 97.1 14.41 97.1 16.89 100.34 17.58 100.34 17.58 96.3 16.98 96.3"/><polygon class="cls-1" points="19.4 96.3 19.4 100.34 22.69 100.34 22.69 99.89 20.03 99.89 20.03 98.49 22.49 98.49 22.49 98.04 20.03 98.04 20.03 96.75 22.67 96.75 22.67 96.3 19.4 96.3"/><path class="cls-1" d="M26.62,98.13A.91.91,0,0,0,27,98a.61.61,0,0,0,.33-.58.65.65,0,0,0-.2-.5.88.88,0,0,0-.64-.19H24.88v1.41H26.2a3,3,0,0,0,.42,0m-.14-1.83a1.73,1.73,0,0,1,1.06.28.91.91,0,0,1,.38.78,1.07,1.07,0,0,1-.19.64,1,1,0,0,1-.63.38h0a1,1,0,0,1,.34.12.61.61,0,0,1,.2.19.66.66,0,0,1,.11.24,1.36,1.36,0,0,1,.06.29,2.66,2.66,0,0,1,0,.3c0,.1,0,.2,0,.3s.05.19.08.28a.65.65,0,0,0,.15.23h-.7a.26.26,0,0,1-.09-.17.88.88,0,0,1,0-.24c0-.09,0-.18,0-.29a1.54,1.54,0,0,0,0-.3l-.06-.28a.76.76,0,0,0-.13-.23.67.67,0,0,0-.23-.16.92.92,0,0,0-.37-.06H24.88v1.73h-.63v-4Z"/><path class="cls-1" d="M32.45,100.29a2.37,2.37,0,0,1-.83.14,2.4,2.4,0,0,1-.95-.17,2.15,2.15,0,0,1-.71-.45,2,2,0,0,1-.6-1.41,2.32,2.32,0,0,1,.15-.84,1.85,1.85,0,0,1,.42-.7,2,2,0,0,1,.71-.48,2.45,2.45,0,0,1,1-.18,3.4,3.4,0,0,1,.73.08,1.94,1.94,0,0,1,.61.24,1.51,1.51,0,0,1,.45.42,1.55,1.55,0,0,1,.25.6H33a1.1,1.1,0,0,0-.17-.4,1,1,0,0,0-.32-.27,1.31,1.31,0,0,0-.42-.16,2,2,0,0,0-.5-.06,1.68,1.68,0,0,0-.74.15,1.41,1.41,0,0,0-.5.39,1.53,1.53,0,0,0-.29.55,2.3,2.3,0,0,0-.1.63,1.83,1.83,0,0,0,.11.61,1.55,1.55,0,0,0,.31.51,1.57,1.57,0,0,0,.51.36,1.71,1.71,0,0,0,.7.13,1.91,1.91,0,0,0,.66-.1,1.41,1.41,0,0,0,.48-.28,1.21,1.21,0,0,0,.38-.93H31.63v-.46H33.7v2.13h-.39l-.17-.5a1.6,1.6,0,0,1-.69.45"/><polygon class="cls-1" points="38.48 96.3 37.1 98.22 35.68 96.3 34.93 96.3 36.76 98.69 36.76 100.34 37.39 100.34 37.39 98.69 39.2 96.3 38.48 96.3"/><polygon class="cls-1" points="51.45 96.3 51.45 98.04 48.96 98.04 48.96 96.3 48.33 96.3 48.33 100.34 48.96 100.34 48.96 98.49 51.45 98.49 51.45 100.34 52.09 100.34 52.09 96.3 51.45 96.3"/><polygon class="cls-1" points="53.92 96.3 53.92 100.34 57.21 100.34 57.21 99.89 54.55 99.89 54.55 98.49 57.01 98.49 57.01 98.04 54.55 98.04 54.55 96.75 57.19 96.75 57.19 96.3 53.92 96.3"/><path class="cls-1" d="M60.39,96.78h0l.79,1.89h-1.6Zm-.33-.48-1.85,4h.65l.53-1.22h2l.52,1.22h.7l-1.86-4Z"/><polygon class="cls-1" points="63.87 96.3 63.87 100.34 67.01 100.34 67.01 99.89 64.5 99.89 64.5 96.3 63.87 96.3"/><polygon class="cls-1" points="67.24 96.3 67.24 96.75 68.82 96.75 68.82 100.34 69.45 100.34 69.45 96.75 71.03 96.75 71.03 96.3 67.24 96.3"/><polygon class="cls-1" points="75.48 96.3 75.48 98.04 72.98 98.04 72.98 96.3 72.35 96.3 72.35 100.34 72.98 100.34 72.98 98.49 75.48 98.49 75.48 100.34 76.11 100.34 76.11 96.3 75.48 96.3"/><polygon class="cls-1" points="88.63 96.3 87.27 99.8 87.25 99.8 85.9 96.3 85.22 96.3 86.89 100.34 87.61 100.34 89.29 96.3 88.63 96.3"/><rect class="cls-1" x="90.62" y="96.3" width="0.63" height="4.04"/><polygon class="cls-1" points="92.6 96.3 92.6 96.75 94.18 96.75 94.18 100.34 94.81 100.34 94.81 96.75 96.39 96.75 96.39 96.3 92.6 96.3"/><path class="cls-1" d="M98.72,96.78h0l.79,1.89H97.92Zm-.33-.48-1.84,4h.64l.53-1.22h2l.51,1.22h.7l-1.85-4Z"/><polygon class="cls-1" points="102.2 96.3 102.2 100.34 105.34 100.34 105.34 99.89 102.83 99.89 102.83 96.3 102.2 96.3"/><rect class="cls-1" x="106.72" y="96.3" width="0.63" height="4.04"/><polygon class="cls-1" points="108.7 96.3 108.7 96.75 110.28 96.75 110.28 100.34 110.91 100.34 110.91 96.75 112.49 96.75 112.49 96.3 108.7 96.3"/><polygon class="cls-1" points="116.86 96.3 115.48 98.22 114.06 96.3 113.31 96.3 115.14 98.69 115.14 100.34 115.77 100.34 115.77 98.69 117.58 96.3 116.86 96.3"/><path class="cls-1" d="M9.32,78.31c-.14.11-.51.46-.51.67s.21.49.56,1l4.43,6c1.82,2.46,2.84,1.81,2.84,2.39,0,.16,0,.3-.3.3-.52,0-1.12-.09-1.75-.09-.44,0-.9.09-1.55.09-.45,0-.68,0-1.14-.67L7.27,81.58c-.3-.39-.44-.65-.58-.65s-.58.4-1.09,1c-.35.39-.3.6-.3,1.14v3c0,2.14,2.28,1.4,2.28,2.23,0,.21-.1.28-.66.28s-1.25-.09-2.57-.09c-1.12,0-2.33.09-3,.09-.44,0-.72,0-.72-.18,0-1.17,1.86.34,1.86-3.17V75.15C2.44,72.33,0,73.52,0,72.5c0-.26.19-.35.46-.35.45,0,1.21.09,2.79.09,1.3,0,2.77-.09,3.23-.09.21,0,.49,0,.49.28,0,.93-1.67-.33-1.67,2.23V80c0,.23,0,.56.11.53s.28-.09.59-.39l3.06-3c.65-.65,2.91-2.53,2.91-3.58,0-.72-1.42-.42-1.42-1s.23-.44.53-.44,1.84.09,2.54.09,1.18-.09,2.18-.09c.19,0,.61,0,.61.39,0,.63-.75-.07-3,2Z"/><path class="cls-1" d="M22.61,84.35c0-.63.05-.84-.16-.84-.91,0-2.74.79-2.74,2.35,0,.37,0,1.53,1.23,1.53.51,0,1.67-.25,1.67-.79ZM25.07,86c0,1.16,0,1.44.63,1.44.28,0,.58-.11.74-.11s.26.09.26.21c0,.46-1.42,1.27-2.25,1.27a1.54,1.54,0,0,1-1.51-1.41,6.14,6.14,0,0,1-3.63,1.41,2.09,2.09,0,0,1-2.18-2.18c0-2.86,3.09-3.25,5.48-3.86,0-2-.16-3.41-2-3.41-.88,0-1.07.23-1.07,1.3s-1.48,1.09-1.65,1.09-.6,0-.6-.49c0-2,2.62-2.67,4.25-2.67,2.39,0,3.53,1.07,3.53,3.41Z"/><path class="cls-1" d="M31.42,86.09c0,2.14,2.16,1.44,2.16,2.12a.37.37,0,0,1-.35.39c-.56,0-1.88-.09-2.65-.09-1.09,0-1.77.09-2.35.09-.3,0-.39,0-.39-.23,0-.72,1.11-.12,1.11-1.84V81.07c0-1.11-1.48-.46-1.48-1.11,0-.38.35-.4,1.16-.61a9.05,9.05,0,0,0,2.51-1c.28,0,.28.17.28.47v1.79c1-1.21,1.86-2.07,2.44-2.07s1.83,1,1.83,1.49c0,.86-.79,2-1.21,2s-.58-.93-1.85-.93-1.21,1.76-1.21,2Z"/><path class="cls-1" d="M37.9,74.24c0-1.37-1.53-.63-1.53-1.3,0-.4.35-.3,1.83-.81,1.79-.52,1.72-.93,2.12-.93s0,.65,0,2V86.46c0,1.65,1.72,1.33,1.72,1.84,0,.23-.09.3-.48.3s-1.91-.09-2.61-.09c-.53,0-1.58.09-2.07.09-.18,0-.39,0-.39-.23,0-.72,1.37.21,1.37-2Z"/><path class="cls-1" d="M65.69,85.32c0,3,2.42,2.1,2.42,3,0,.3-.19.28-.49.28-.77,0-2.14-.09-3.09-.09s-1.74.09-2.93.09c-.32,0-.46-.09-.46-.25,0-.82,1.69-.19,1.69-2.44V81.72c0-1,.07-1.23-.95-1.23h-6.2c-1.07,0-1.14.23-1.14,1.26v3.64c0,2.89,2.88,2,2.88,2.89,0,.14,0,.32-.7.32-.95,0-1.72-.09-3.39-.09-1,0-1.95.09-3.11.09-.28,0-.51,0-.51-.35,0-.93,2-.09,2-3V74.91c0-2.53-2.63-1.51-2.63-2.39,0-.35.7-.37,1.14-.37.7,0,1.4.09,2.61.09,1.39,0,2.32-.09,3-.09.33,0,.54.11.54.35,0,.72-1.79,0-1.79,2.11v3.7c0,.62.09.93.58.93H62c.68,0,.81-.54.81-1V74.91c0-2.55-2.55-1.72-2.55-2.39,0-.42.21-.37.53-.37,1,0,1.56.09,3,.09,1.21,0,2.07-.09,3.07-.09.39,0,.49.07.49.28,0,.88-1.68-.12-1.68,2.16Z"/><path class="cls-1" d="M79.08,86.7c0,1.44,1.79.6,1.79,1.25,0,.37-.28.33-.58.37l-3.51.44c-.12-.23-.16-.48-.16-1.55a4.67,4.67,0,0,1-3.35,1.55c-2.77,0-3.19-1.88-3.19-4v-4c0-1.12-1.48-.47-1.48-1.12s1.58-.32,3-.9c.35-.17.49-.28.63-.28s.28.21.28.51v5.88c0,1.46.39,2.37,2,2.37.91,0,2.05-.51,2.05-1.51v-5c0-1.12-1.49-.47-1.49-1.12s1.58-.32,3-.9c.35-.17.49-.28.63-.28s.28.21.28.51Z"/><path class="cls-1" d="M85.91,79.21c-.42,0-1.81.19-1.81,2.72,0,1.16.48,2.79,1.9,2.79s1.91-1.35,1.91-2.6-.44-2.91-2-2.91M84.58,89.58c-.62,0-.92.6-.92,1.16,0,1.53,1.53,1.79,2.6,1.79s3.14-.26,3.14-1.84c0-1.07-.82-1.11-4.82-1.11m-2.81,1.6c0-1.39,1.51-1.81,1.75-1.81a2.46,2.46,0,0,1-1-2.14A2.6,2.6,0,0,1,83.75,85c-1.26-.79-1.91-1.4-1.91-3,0-2.23,1.86-3.51,4.16-3.51,1.61,0,2.51.81,3.28.81,1.37,0,1.32-1.46,1.67-1.46s.26.21.26.63c0,2.2-.65,2.25-1,2.48,0,.4,0,.1,0,.7.05,1.46-.84,3.65-4.3,3.65-.35,0-.72,0-1.19,0a.92.92,0,0,0-1,1c0,.91.14,1,3.53,1s3.93,1,3.93,2.39a3.16,3.16,0,0,1-2.16,2.9,8.12,8.12,0,0,1-3.58.59c-.93,0-3.7-.21-3.7-2"/><path class="cls-1" d="M102.48,86.63c0,1.58,1.44,1,1.44,1.76a.21.21,0,0,1-.21.21c-.84,0-1.7-.09-2.53-.09-.58,0-1.14.09-1.93.09-.12,0-.37.07-.37-.23s1.14-.51,1.14-1.79V83.19c0-1.56-.33-3.19-2.28-3.19a2.6,2.6,0,0,0-1.58.65c-.35.31-.44.33-.44.77v5c0,1.6,1.83,1.23,1.83,1.88,0,.37-.39.28-1,.28s-1.19-.09-2.37-.09c-.7,0-1,.09-1.42.09-.19,0-.7,0-.7-.25,0-.61,1.23-.35,1.23-1.35V74.24c0-1.37-1.53-.63-1.53-1.3,0-.4.35-.3,1.83-.81,1.79-.52,1.72-.93,2.12-.93s0,.65,0,2v7.08h0A4.21,4.21,0,0,1,99,78.54c2.25,0,3.51,1.35,3.51,4Z"/><path class="cls-1" d="M110.4,84.35c0-.63,0-.84-.16-.84-.91,0-2.74.79-2.74,2.35,0,.37,0,1.53,1.23,1.53.51,0,1.67-.25,1.67-.79Zm2.47,1.6c0,1.16,0,1.44.62,1.44.28,0,.58-.11.75-.11s.25.09.25.21c0,.46-1.41,1.27-2.25,1.27a1.55,1.55,0,0,1-1.51-1.41,6.14,6.14,0,0,1-3.63,1.41,2.09,2.09,0,0,1-2.18-2.18c0-2.86,3.09-3.25,5.48-3.86,0-2-.16-3.41-2-3.41-.88,0-1.07.23-1.07,1.3s-1.48,1.09-1.64,1.09-.61,0-.61-.49c0-2,2.63-2.67,4.25-2.67,2.4,0,3.54,1.07,3.54,3.41Z"/><path class="cls-1" d="M116.58,81.07c0-1.11-1.48-.46-1.48-1.11,0-.38.34-.4,1.16-.61a9.05,9.05,0,0,0,2.51-1c.28,0,.28.17.28.47v1.32h0a3.59,3.59,0,0,1,3.16-1.6c2.51,0,3.54,2.07,3.54,4.32v3.77c0,1.46,1.44,1.11,1.44,1.62,0,.28-.14.35-.54.35-.74,0-1.49-.09-2-.09s-1.42.09-1.7.09c-.44,0-.77.12-.77-.3s1.07-.61,1.07-1.46v-4c0-1.51-.53-2.83-2.28-2.83-1.53,0-2,.88-2,2.23v4.3c0,1.32,1.88,1.11,1.88,1.67,0,.21-.16.35-.72.35-.26,0-1.09-.09-2.28-.09-.81,0-1.63.09-2.32.09-.24,0-.26-.14-.26-.25,0-.68,1.23,0,1.23-2Z"/><path class="cls-1" d="M98.82,1.81l1.83-.29V0H75.76V1.58C78.39,2,81,2,82.43,3.85c.93,1.29,1,3.15,1.08,5.55.26,5.22.15,13.45,0,18H55.31l0,4.12,28.34,0s.13,13.67-.12,19.29c-.09,2-.23,4.2-1.08,5.31-1.25,1.62-6,2.1-6.67,2.16v1.55h24.89V58.21c-.72-.09-5.29-.72-6.53-2.15-1.7-2-1.33-7.91-1.33-12.3V16.51c0-4.34-.48-10,1.09-12.54.93-1.47,3.1-1.9,4.94-2.16"/><path class="cls-1" d="M66.22,56.9c-1.85-.91-3.22-2.62-4.7-4.1-8.71-8.71-17.31-18.66-25.44-27.36,6.07-5.57,12-11.94,18.2-17.61,2.16-2,4.24-4.06,6.88-5.18a19.91,19.91,0,0,1,5.65-1.21V0H43.19V1.56s6.27-.35,6.27,2.78c0,1.22-1.13,2.71-1.93,3.73-.93,1.21-2,2.27-2.77,3.14-5.34,5.78-18,16.71-18,16.71l9.19,10.4h0c3.2,3.54,6.56,7.24,9.67,10.62a33.53,33.53,0,0,1,2.66,3c.75,1,1.89,2.74,1.81,4-.14,1.88-2.9,2.1-4.67,2.27l-1.68.13v1.4l27.37,0V58.27a16.8,16.8,0,0,1-4.87-1.37"/><rect class="cls-1" x="43.39" y="96.29" width="0.25" height="4.01"/><rect class="cls-1" x="80.8" y="96.29" width="0.25" height="4.01"/></g></g></svg>