<svg xmlns="http://www.w3.org/2000/svg" viewBox="0 0 128.22 119.22"><defs><style>.cls-1{fill:#636363;}</style></defs><g id="Layer_2" data-name="Layer 2"><g id="logos"><path class="cls-1" d="M96,55h0a144.59,144.59,0,0,0,1.33-17.83A146.23,146.23,0,0,0,96,19.34s0,0,0,0l0-.09,0-.06s0-.05-.06-.08l0,0A104.73,104.73,0,0,0,81.68,8.85C78,6.73,73.47,4.45,70.34,2.91L66,.84,65.25.47c-.44-.2-.84-.39-.88-.42a.65.65,0,0,0-.25,0H64c-.07,0-.55.26-1,.46L62.2.84c-1,.45-2.46,1.17-4.31,2.07-3.13,1.54-7.64,3.82-11.33,5.94a104.42,104.42,0,0,0-14.13,10.2l0,0-.06.08,0,.06,0,.09a0,0,0,0,1,0,0,146.23,146.23,0,0,0-1.33,17.84A144.59,144.59,0,0,0,32.27,55h0l0,.09v.06h0a.05.05,0,0,1,0,0,.46.46,0,0,0,.07.07h0c.09.07,8.47,7.3,15.06,11.27,6.06,3.65,16.35,7.6,16.46,7.64h0l.12,0h0l.12,0h.05c.1,0,10.39-4,16.46-7.64,6.59-4,15-11.2,15-11.27h0l.06-.07,0,0h0l0,0v0A.32.32,0,0,0,96,55ZM41.09,37.18a80.42,80.42,0,0,1,1-10.94A3.87,3.87,0,0,1,43.42,24a65.85,65.85,0,0,1,8.68-5.18c4.91-2.41,10.71-4.64,10.71-4.64a4.19,4.19,0,0,1,2.62,0s5.79,2.24,10.7,4.64A65.85,65.85,0,0,1,84.81,24a3.94,3.94,0,0,1,1.37,2.21,81.23,81.23,0,0,1,1,10.94,88.62,88.62,0,0,1-.9,11.08,3.63,3.63,0,0,1-1.37,2.17S79.5,54,75.49,56.09a91.74,91.74,0,0,1-10,4.12,4.81,4.81,0,0,1-2.66,0,91.55,91.55,0,0,1-10-4.12c-4-2.07-9.38-5.66-9.38-5.66A3.63,3.63,0,0,1,42,48.26,90.8,90.8,0,0,1,41.09,37.18ZM87.9,45.9c-.31.71-.49.66-.4-.11,0,0,.6-5.21.6-8.61s-.61-8.28-.61-8.28c-.1-.77.07-.81.36-.1l2.86,7.55a4.78,4.78,0,0,1,0,2.65Zm3.22-5.31c.28-.72.65-.7.82,0l2.71,12c.12.76-.33,1.08-1,.7l-5.31-2.95a1.53,1.53,0,0,1-.62-2ZM86.81,24.36a72.92,72.92,0,0,0-5-7.38c-.47-.61-.25-.95.5-.75L93.65,19.3a1.83,1.83,0,0,1,1.18,1.84L92,34.72c-.16.75-.51.78-.77.05A97.43,97.43,0,0,0,86.81,24.36Zm-2.73-2.6c.43.64.26.81-.38.39A75.26,75.26,0,0,0,76.55,18c-2.83-1.39-6-2.74-8.15-3.63l-.59-.24c-.53-.21-.33-.32.44-.23l9.81,1.39a4.36,4.36,0,0,1,2.26,1.35ZM66,12.82a1.55,1.55,0,0,1-1.4-1.52V2.85c0-.77.5-1,1.1-.53,0,0,3.26,2.6,6.69,5.84,1.83,1.72,5.07,5.17,5.07,5.17.52.57.33.92-.43.79ZM63.64,11.3a1.55,1.55,0,0,1-1.4,1.52l-11,1.3c-.76.13-1-.22-.42-.79,0,0,3.23-3.45,5.06-5.17,3.43-3.24,6.69-5.84,6.69-5.84.61-.48,1.1-.24,1.1.53ZM60,13.9c.77-.09,1,0,.45.23l-.59.24c-2.16.89-5.33,2.24-8.16,3.63a75.26,75.26,0,0,0-7.15,4.15c-.64.42-.81.25-.37-.39l3.76-5.12a4.33,4.33,0,0,1,2.26-1.35ZM41.43,24.36a96.1,96.1,0,0,0-4.38,10.41c-.26.73-.6.7-.76-.05L33.4,21.14a1.82,1.82,0,0,1,1.19-1.84l11.33-3.07c.75-.2,1,.14.5.75A73.5,73.5,0,0,0,41.43,24.36Zm-1,4.44c.3-.71.46-.67.37.1,0,0-.61,5-.62,8.28s.6,8.61.6,8.61c.09.77-.09.82-.4.11L37.56,39a4.69,4.69,0,0,1,0-2.65Zm.14,19.67a1.53,1.53,0,0,1-.63,2l-5.31,2.95c-.67.38-1.12.06-1-.7l2.7-12c.18-.75.55-.77.82,0Zm-.17,2.79a1.47,1.47,0,0,1,2,.51l3.61,5.41c.46.62.22,1-.52.77L35.28,55.24c-.74-.23-.79-.73-.12-1.1Zm3.59,1.35c-.42-.64-.24-.83.41-.41,0,0,4.9,3.16,7.95,4.74,2.61,1.34,7.37,3.14,7.37,3.14.72.27.69.42-.08.32l-10-1.5a4.19,4.19,0,0,1-2.23-1.38Zm20.11,9h.13c4.59,0,13.44-1.57,13.44-1.57.76-.14.92.18.35.71L65.27,72.39a2.17,2.17,0,0,1-2.3,0L50.26,60.78c-.56-.53-.4-.85.36-.71C50.62,60.07,59.46,61.63,64.05,61.64Zm4.59-1.24c-.76.1-.8,0-.08-.32,0,0,4.76-1.8,7.37-3.14,3-1.58,7.95-4.74,7.95-4.74.65-.42.84-.23.41.41l-3.44,4.91a4.26,4.26,0,0,1-2.24,1.38Zm17.28-8.63a1.49,1.49,0,0,1,2-.51l5.18,2.88c.67.37.62.87-.12,1.1L82.84,58c-.75.2-1-.15-.53-.77Zm9.65-1.61c-.08.77-.26.78-.41,0L92.5,39.05a6.56,6.56,0,0,1,0-2.72l2.75-11.57c.14-.76.3-.76.38,0,0,0,.71,7.36.71,12.41C96.34,42.51,95.57,50.16,95.57,50.16ZM81.2,9.68a113.6,113.6,0,0,1,11,7.64c.6.48.49.69-.25.47L81.31,15A6,6,0,0,1,79,13.67L68.63,3.55c-.58-.51-.49-.64.2-.3C68.83,3.25,76.8,7.16,81.2,9.68ZM47,9.68C51.43,7.16,59.4,3.25,59.4,3.25c.7-.34.79-.21.2.3L49.27,13.67A6,6,0,0,1,46.93,15L36.29,17.79c-.74.22-.85,0-.24-.47A114.29,114.29,0,0,1,47,9.68ZM32.61,24.77c.07-.76.24-.77.37,0l2.75,11.57a6.4,6.4,0,0,1,0,2.72L33.07,50.18c-.15.76-.33.75-.41,0,0,0-.77-7.64-.77-13C31.9,32.13,32.61,24.77,32.61,24.77ZM36,57c-.6-.48-.48-.7.26-.48l10.11,2.64A5.81,5.81,0,0,1,48.7,60.5L59.54,71c.6.49.51.63-.2.33,0,0-7.63-3.29-11.36-5.54A141.49,141.49,0,0,1,36,57Zm44.27,8.75C76.52,68,68.89,71.29,68.89,71.29c-.71.3-.8.16-.2-.33L79.53,60.5a5.81,5.81,0,0,1,2.35-1.34L92,56.52c.74-.22.85,0,.25.48A141.49,141.49,0,0,1,80.25,65.75Z"/><polygon class="cls-1" points="57.76 105.2 49.15 105.2 49.15 85.98 46.08 85.98 46.08 107.92 58.99 107.92 57.76 105.2"/><path class="cls-1" d="M73.34,99.91c0-5-2.55-8-6.84-8s-6.84,3-6.84,8,2.56,8,6.84,8S73.34,104.93,73.34,99.91Zm-2.91,0c0,3.84-1.32,5.78-3.93,5.78s-3.92-1.94-3.92-5.78,1.32-5.82,3.92-5.82S70.43,96.05,70.43,99.91Z"/><path class="cls-1" d="M90.32,105.24a2.18,2.18,0,0,1-.79.33c-.37,0-.56,0-.56-1V86H84.22l1,2.26h.85v4a8.88,8.88,0,0,0-2.44-.34A7.58,7.58,0,0,0,78.05,94a9.33,9.33,0,0,0-2.2,6.52c0,4.65,2.44,7.42,6.53,7.42a5.23,5.23,0,0,0,4-1.56,2.21,2.21,0,0,0,2.32,1.41,7.36,7.36,0,0,0,2.68-.83l0,0-.81-1.82ZM86.09,94.42v6.73a6.08,6.08,0,0,1-.5,2.74,3.13,3.13,0,0,1-3,1.77c-1.44,0-3.84-.69-3.84-5.29,0-4.19,1.71-6.31,5.07-6.31A7.7,7.7,0,0,1,86.09,94.42Z"/><path class="cls-1" d="M101.07,91.86a8,8,0,0,0-5.52,1.89A8.58,8.58,0,0,0,93,100.34c0,4.66,2.36,7.34,6.47,7.34a5.57,5.57,0,0,0,3.8-1.36v4.2c0,2.08-.19,3.53-.77,4.22a3.94,3.94,0,0,1-3.12,1.18,10,10,0,0,1-4.66-1.18l-.33-.2V117l.13.07a11.52,11.52,0,0,0,5,1.11c1.72,0,4.06-.37,5.4-2.11,1-1.32,1.2-3.31,1.2-5.92V93L106,92.9A12.32,12.32,0,0,0,101.07,91.86Zm2.19,2.58v7.17a4,4,0,0,1-.92,2.86,3.37,3.37,0,0,1-2.54,1c-3.22,0-3.9-2.91-3.9-5.35a6.39,6.39,0,0,1,1.72-4.89A5,5,0,0,1,101.07,94,5.7,5.7,0,0,1,103.26,94.44Z"/><path class="cls-1" d="M121.68,104.23a3.34,3.34,0,0,1-.53.37l-.06,0a9.71,9.71,0,0,1-4.41,1c-2.65,0-4.24-1.65-4.5-4.67h8.28c1.21,0,1.73-.54,1.73-1.8,0-4.43-2.43-7.3-6.19-7.3-4.16,0-6.75,3.11-6.75,8.11s2.6,8,7.12,8a13.23,13.23,0,0,0,5.72-1.3l.29-.17.4-.28-.92-2.08Zm-5.77-10.17c2.22,0,3.49,1.73,3.49,4.73v0h-7.22C112.47,94.9,114.36,94.06,115.91,94.06Z"/><path class="cls-1" d="M126.54,102.33a1.65,1.65,0,0,0-1.68,1.65,1.68,1.68,0,1,0,3.36,0A1.65,1.65,0,0,0,126.54,102.33Z"/><path class="cls-1" d="M20.43,107.92v-9c0-2.43-.39-4.06-3.09-4.06-2,0-3.37,2.15-3.78,3.33v9.76H11.43V87.17h2.13v8.06a4.73,4.73,0,0,1,4-2.21c3.86,0,5,2.57,5,5.46v9.44Z"/><path class="cls-1" d="M37.59,99.73c0-4.17-2.17-6.77-5.68-6.77-3.9,0-6.23,2.83-6.23,7.56s2.4,7.41,6.59,7.41a11.7,11.7,0,0,0,5.32-1.35L37,105.23a8.77,8.77,0,0,1-4.37,1.2c-2.9,0-4.6-1.84-4.79-5.18v-.13h8.49C37.46,101.14,37.59,100.76,37.59,99.73Zm-2.35,0H27.78v-.13c.18-3.4,1.64-5,4.06-5s3.76,1.65,3.76,4.78A.36.36,0,0,1,35.24,99.77Z"/><path class="cls-1" d="M29.83,118.25a.39.39,0,0,1-.15-.31.38.38,0,0,1,.38-.39.35.35,0,0,1,.24.09,3.22,3.22,0,0,0,2.24.84c1,0,1.58-.51,1.58-1.21v0c0-.65-.36-1-1.84-1.34-1.63-.36-2.38-.88-2.38-2v0a2.09,2.09,0,0,1,2.33-1.93,3.55,3.55,0,0,1,2.25.7.41.41,0,0,1,.17.32.38.38,0,0,1-.38.39.37.37,0,0,1-.23-.07,3,3,0,0,0-1.83-.62c-.92,0-1.51.51-1.51,1.14v0c0,.67.36,1,1.92,1.38s2.31.92,2.31,2v0c0,1.22-1,2-2.42,2A4.18,4.18,0,0,1,29.83,118.25Z"/><path class="cls-1" d="M43.13,112.42a.41.41,0,0,1,.4-.41h2.25c1.6,0,2.66.85,2.66,2.25v0c0,1.53-1.28,2.32-2.79,2.32H43.93v2.14a.41.41,0,0,1-.4.41.42.42,0,0,1-.4-.41Zm2.55,3.45c1.18,0,2-.63,2-1.56v0c0-1-.76-1.54-1.91-1.54H43.93v3.12Z"/><path class="cls-1" d="M55.38,118.57l2.87-6.28a.52.52,0,0,1,.51-.36h0a.5.5,0,0,1,.49.36l2.88,6.27a.53.53,0,0,1,0,.2.4.4,0,0,1-.39.39.44.44,0,0,1-.39-.3l-.74-1.63H56.81l-.73,1.65a.43.43,0,0,1-.39.28.37.37,0,0,1-.36-.37A.46.46,0,0,1,55.38,118.57Zm5-2.07-1.63-3.63-1.63,3.63Z"/><path class="cls-1" d="M69.64,115.57v0a3.57,3.57,0,0,1,3.59-3.66,3.61,3.61,0,0,1,2.52.92.4.4,0,0,1-.24.72.47.47,0,0,1-.26-.09,2.89,2.89,0,0,0-2-.81,2.78,2.78,0,0,0-2.74,2.9v0a2.8,2.8,0,0,0,2.74,2.93,2.93,2.93,0,0,0,2.11-.86.36.36,0,0,1,.25-.11.4.4,0,0,1,.39.38.37.37,0,0,1-.13.28,3.63,3.63,0,0,1-2.63,1A3.54,3.54,0,0,1,69.64,115.57Z"/><path class="cls-1" d="M84,118.69v-6.27a.4.4,0,0,1,.4-.41h4.4a.37.37,0,0,1,0,.73h-4v2.42h3.54a.37.37,0,0,1,.37.36.36.36,0,0,1-.37.37H84.8v2.48h4a.36.36,0,0,1,.36.36.37.37,0,0,1-.36.37H84.4A.41.41,0,0,1,84,118.69Z"/><path class="cls-1" d="M4.72,105.65a3.83,3.83,0,0,1-.45-2.14V94.6H7.8V93.12H4.27V88.87L2.19,87.21v5.91H0V94.6H2.19v9c0,1.62.2,2.51.73,3.14a3.55,3.55,0,0,0,2.85,1.17,6.23,6.23,0,0,0,2.67-.58l0-1.44a4.47,4.47,0,0,1-2.08.51A1.85,1.85,0,0,1,4.72,105.65Z"/></g></g></svg>