<svg xmlns="http://www.w3.org/2000/svg" viewBox="0 0 83.42 88.78"><defs><style>.cls-1{fill:#636363;}</style></defs><g id="Layer_2" data-name="Layer 2"><g id="logos"><polygon class="cls-1" points="38.96 61.77 44.4 61.77 44.4 88.78 38.96 88.78 38.96 61.77 38.96 61.77"/><path class="cls-1" d="M29.11,59.63c-.93-.51-3.7-1.89-6.92.92L4.89,75.15l4.38,3.48,5.37-4.76a19.05,19.05,0,0,0,4.76,3.51,18.78,18.78,0,0,0,5.52,2.11L23.8,86.58l5.3,1.82,3-22.45C32.7,61.73,30,60.14,29.11,59.63ZM21.73,73.12a13.62,13.62,0,0,1-3.42-2.51l7.08-6.32a1.08,1.08,0,0,1,1.26-.16,1.1,1.1,0,0,1,.55,1.15l-1.51,9.37A13.38,13.38,0,0,1,21.73,73.12Z"/><path class="cls-1" d="M51.2,66l3,22.45,5.3-1.82-1.12-7.09a18.78,18.78,0,0,0,5.52-2.11,19.05,19.05,0,0,0,4.76-3.51L74,78.63l4.38-3.48-17.3-14.6c-3.22-2.81-6-1.43-6.92-.92S50.57,61.73,51.2,66Zm6.38,8.7-1.5-9.37a1.08,1.08,0,0,1,1.8-1L65,70.61a13.92,13.92,0,0,1-3.43,2.51A13.38,13.38,0,0,1,57.58,74.65Z"/><path class="cls-1" d="M33.07,36c-1.34-.39-2.35-.46-3.06-.62s.35-.61.71-.66a17.73,17.73,0,0,0,4.09-1.59c1-.66,4.24-2.5,4.7-3.22s2.05-.3,2.25-.3c0,0,.1.25-.3.66a2.81,2.81,0,0,0-.57,1.38,2.23,2.23,0,0,1-1,1.28c-.56.36-2.5,1.53-2.25,3.17a6.92,6.92,0,0,0,2.81,4.09,53.77,53.77,0,0,1,5.32,4,10.28,10.28,0,0,1,2,4,3.94,3.94,0,0,0,3.58,2.51c1.23,0,3.17-.05,3.94,1.12a.91.91,0,0,1-.72.16,10.69,10.69,0,0,0-3,.86,11.06,11.06,0,0,1-4,.21c-1.58-.15-2.71-.15-3.32.51A3.24,3.24,0,0,1,42,54.8c-1.07.1-7.31-.26-8.59-1C32,53,34.76,53,35.22,52.8a38.61,38.61,0,0,0,4.6-1.12c.75-.37,2.81-2.91,3.78-3.22s.87-1.89-.05-2.4-1.33.35-2-.62,0-1.38-.72-2.35-3-2.61-4-4A8.59,8.59,0,0,0,33.07,36Z"/><path class="cls-1" d="M41.71,0a41.7,41.7,0,0,0-33,67.18l1.34-1A37.72,37.72,0,0,1,3.31,52.55c0-.54,1.16-.3,1.83-.16s5.44,1.69,7.28,1.38a27.65,27.65,0,0,0,6.21-2,11.82,11.82,0,0,1,5-.92c.76.08-.39-.84-1.08-1.15s-2.53,0-4.44,0,3.52-5.52,4-5.83.92-.61.31-.61-4.22,2-5.44,2.38a29.49,29.49,0,0,1-5.22.38C10.35,46.11,7,48.33,6,48.79a28.82,28.82,0,0,1-3.26,1.06s.5-6.66,2.72-9.8,5.3-6.29,6.45-5.75,0,1.61.53,2.15,1.31.46,1.31,1.68S14,40,12.42,41.74s-2.14,3-.61,2.45S17,42.5,18,42.2s3.07-2.53,4.22-3.15,6.36-5.9,7.43-6.44a11.86,11.86,0,0,0,3.53-2.83,10.79,10.79,0,0,1,3-3.23c1.15-.61,4.83-2.83,5.52-3.91s1.61-2.91,2.07-2.83a6,6,0,0,1,2.46,1.45c.61.69.46,1.46.84,2.07a4.72,4.72,0,0,0,2.38,1.92c1.15.38,4.29,2.84,3.6,3.15s-2.68-1.31-3.6-1.38-1.54,0-1.31.53,2.92,2.84,3.53,3.68.61,2.84,1.15,4.45,1.76,1.76,1.92,4.29,2.37,4.91,3.29,5.68,2.23,1.91,3,2,.62-.46,1.85,0,1,0,.46-1a.85.85,0,0,1,.53-1.3c2.69-.15,3.76,2.76,3.68,5.21s-1.76,1.84-2.68,3.76,0,1.38.46,1S69,55,70.62,54.85s3-2.23,3.6-2.76a1.32,1.32,0,0,1,1.69-.23c.54.3-.08,2,.23,2.22s2-1,2.61-1.46a2.71,2.71,0,0,1,1.45-.46l0,0a38,38,0,0,1-6.9,14.13l1.34,1A41.71,41.71,0,0,0,41.71,0ZM75.22,41.05c-1-.77-3.6-3.84-4.91-4.22s-5.06-2.91-6.21-3.45a6.66,6.66,0,0,1-2.76-3.3c-.23-.92-2.38-3.83-3.53-4.06s-6.36-2.53-7.13-2.84a32,32,0,0,1-4.6-2.91,3.33,3.33,0,0,0-2.72-.85,18.66,18.66,0,0,0-2,3c-.46.69-4.91,3.45-5.45,3.61a10.87,10.87,0,0,0-2.76,1.76c-1,.87-1.22,2.07-2.45,2.84s-6.36,4.29-7.28,4.91-2.38,2.68-3.45,2.6a15.13,15.13,0,0,1-5.68-2.6,10.71,10.71,0,0,0-2.53-1.77c-1.73,0-7.26,5.19-9.6,7.47,1-20.42,18.32-36.69,39.58-36.69,20.74,0,37.75,15.48,39.47,35.2C79.63,42.37,76.18,41.79,75.22,41.05Z"/></g></g></svg>