<svg xmlns="http://www.w3.org/2000/svg" viewBox="0 0 220.44 47.17"><defs><style>.cls-1{fill:#636363;}</style></defs><g id="Layer_2" data-name="Layer 2"><g id="logos"><path class="cls-1" d="M33,0H4.86a17.61,17.61,0,0,1,9,5,.54.54,0,0,1,.16.42.59.59,0,0,1-.18.41.61.61,0,0,1-.4.16A.57.57,0,0,1,13,5.75,16.26,16.26,0,0,0,5.41,1.34,18.18,18.18,0,0,0,1.06.81H0V3.07c.23,0,.46,0,.68,0s.51,0,.76,0A17.38,17.38,0,0,1,7.59,4.71a.59.59,0,0,1,.28.78.61.61,0,0,1-.53.34.54.54,0,0,1-.25-.06A16.14,16.14,0,0,0,1.36,4.24l-.69,0L0,4.24V6.57H.26A13.63,13.63,0,0,1,5.37,7.7a13.61,13.61,0,0,1,6.36,4.94.58.58,0,0,1-.48.92.58.58,0,0,1-.48-.25A12.54,12.54,0,0,0,4.93,8.79,12.32,12.32,0,0,0,.27,7.73H0v2.37l.4,0a10.55,10.55,0,0,1,7.74,3.85,14.06,14.06,0,0,1,3.3,6.5.57.57,0,0,1-.07.44.61.61,0,0,1-.36.27h-.14a.57.57,0,0,1-.57-.45,12.88,12.88,0,0,0-3-6,9.57,9.57,0,0,0-6.9-3.44H0v2.53a4.58,4.58,0,0,1,.9-.09,5.78,5.78,0,0,1,2.26.46.58.58,0,0,1,.32.76.57.57,0,0,1-.54.37.59.59,0,0,1-.23-.05A4.88,4.88,0,0,0,.9,14.89,4.43,4.43,0,0,0,0,15V17.9a2.78,2.78,0,0,1,.86-.39,3,3,0,0,1,.67-.08,4.18,4.18,0,0,1,3.39,2.33A12.13,12.13,0,0,1,6.8,26.69c0,.31,0,.62,0,.95a.6.6,0,0,1-.59.55h0a.57.57,0,0,1-.55-.62c0-.3,0-.58,0-.86a10.87,10.87,0,0,0-1.7-6.32A3.09,3.09,0,0,0,1.53,18.6a1.58,1.58,0,0,0-.38,0A2.17,2.17,0,0,0,0,19.49V23.7c.19-1.64.62-2.14,1-2.35a1,1,0,0,1,.5-.14,1.06,1.06,0,0,1,.56.16c1.16.69,1.78,3.43,1.69,5.57A18.13,18.13,0,0,1,0,37v2.93a21.22,21.22,0,0,0,5.13-9.45A.58.58,0,0,1,5.7,30l.14,0a.59.59,0,0,1,.43.71,22.05,22.05,0,0,1-6,10.53.53.53,0,0,1-.29.14V43c0,2.39,2.31,4.21,4.7,4.21H36.9V4.33C36.9,1.94,35.41,0,33,0M9.5,27.76C9.23,33,7.43,37.3,4.16,40.48a.57.57,0,0,1-.41.17.56.56,0,0,1-.42-.18.59.59,0,0,1,0-.83c3.05-3,4.73-7,5-11.95a14.48,14.48,0,0,0-2.42-9.53,4.76,4.76,0,0,0-1-1.32.59.59,0,0,1,0-.83.57.57,0,0,1,.43-.19.59.59,0,0,1,.4.16,5.88,5.88,0,0,1,1.22,1.56A15.69,15.69,0,0,1,9.5,27.76m1.3,7.77a.59.59,0,0,1-.55.38.52.52,0,0,1-.21,0,.56.56,0,0,1-.33-.31.58.58,0,0,1,0-.45c1.75-4.58,1.82-6.9,1.33-10.37-.06-.38-.11-.74-.17-1.1a.59.59,0,0,1,.49-.67h.09a.59.59,0,0,1,.58.5c.06.36.12.73.17,1.11.51,3.61.44,6.17-1.39,11m4.24-5a.59.59,0,0,1-.58.51h-.08a.59.59,0,0,1-.5-.67c.91-6.19.2-8.52-.87-12l-.14-.45a17.3,17.3,0,0,0-.79-2.14.59.59,0,0,1,1.08-.48A20.33,20.33,0,0,1,14,17.48l.14.45C15.21,21.48,16,24,15,30.49m2-13.25a.58.58,0,0,1-.36.27H16.5a.59.59,0,0,1-.57-.45c-1.09-4.61-3.15-7.76-6.48-9.92a.59.59,0,0,1-.25-.37.53.53,0,0,1,.08-.44.58.58,0,0,1,.49-.27.57.57,0,0,1,.32.09c3.6,2.33,5.82,5.71,7,10.64a.57.57,0,0,1-.08.44m8.26,21.18h-5.1v1.52h3.62l-.68,1.53H20.16v3H18.64v-6A1.9,1.9,0,0,1,19,37.41a2,2,0,0,1,1.25-.35h5.52a1.7,1.7,0,0,0-.44.79,1.75,1.75,0,0,0-.09.56m8.81,4.34c0,1.4-.46,1.76-1.85,1.76H27.64c-1.39,0-1.85-.36-1.85-1.76v-.2l1.52-.33v.89h5.24V41.41H27.93c-1.39,0-1.84-.36-1.84-1.77v-.83c0-1.4.45-1.76,1.84-1.76h4.2c1.32,0,1.84.34,1.84,1.63v.16l-1.52.36v-.85H27.6V40h4.62c1.39,0,1.85.36,1.85,1.76Z"/><path class="cls-1" d="M51,14.79a2.32,2.32,0,0,1,1.69-.64h10l-1,2.13H53.19v3.22h5.09l-1,2.22H53.19v4.65H50.38V16.44A2.24,2.24,0,0,1,51,14.79"/><path class="cls-1" d="M68.87,24.09h8.06v-10h2.83V23.5c0,2.31-.73,2.9-3,2.9H69.06c-2.29,0-3-.59-3-2.9V14.12h2.83Z"/><path class="cls-1" d="M86,14.12H87.9l8.55,7.24a9.62,9.62,0,0,1,1.39,1.32c-.07-1-.11-1.73-.11-2.1V14.12h2.54V26.4H98.34l-8.93-7.59a8.09,8.09,0,0,1-1-1,19.28,19.28,0,0,1,.12,1.95V26.4H86Z"/><path class="cls-1" d="M109,16.31v7.78h7.64V21.45l2.83.59V23.5c0,2.31-.74,2.9-3,2.9h-7.26c-2.29,0-3-.59-3-2.9V17c0-2.31.73-2.9,3-2.9h7.26c2.28,0,3,.59,3,2.9V18.2l-2.83.44V16.31Z"/><polygon class="cls-1" points="131.01 26.4 128.18 26.4 128.18 16.31 122.59 16.31 122.59 14.12 136.62 14.12 136.62 16.31 131.01 16.31 131.01 26.4"/><rect class="cls-1" x="140.08" y="14.12" width="2.83" height="12.28"/><path class="cls-1" d="M151.89,14.12h9c2.29,0,3,.59,3,2.9V23.5c0,2.31-.73,2.9-3,2.9h-9c-2.28,0-3-.59-3-2.9V17c0-2.31.73-2.9,3-2.9M161,16.31h-9.33v7.78H161Z"/><path class="cls-1" d="M169.81,14.12h1.93l8.56,7.24a10.17,10.17,0,0,1,1.39,1.32c-.07-1-.12-1.73-.12-2.1V14.12h2.55V26.4h-1.94l-8.93-7.59a8.75,8.75,0,0,1-1-1c.09,1,.12,1.6.12,1.95V26.4h-2.55Z"/><path class="cls-1" d="M194.87,14.12h2.73l7,12.28H201.4l-1.47-2.69h-7.7l-1.42,2.69H188Zm3.89,7.38-2.62-5-2.71,5Z"/><polygon class="cls-1" points="208.49 14.12 211.32 14.12 211.32 24.09 220.44 24.09 220.44 26.4 208.49 26.4 208.49 14.12"/><path class="cls-1" d="M113.83,38v1.7h4.88c1.48,0,2,.38,2,1.87v1.09c0,1.49-.48,1.87-2,1.87h-4.83c-1.47,0-2-.38-2-1.87v-.21l1.61-.35V43h5.53V41.21h-4.88c-1.47,0-1.94-.37-1.94-1.86v-.88c0-1.49.47-1.86,1.94-1.86h4.44c1.4,0,1.94.36,1.94,1.72v.17l-1.6.38V38Z"/><polygon class="cls-1" points="125.96 36.6 133.97 36.6 133.97 37.95 127.78 37.95 127.78 39.71 131.39 39.71 131.39 41.06 127.78 41.06 127.78 43.02 134.05 43.02 134.05 44.51 125.96 44.51 125.96 36.6"/><polygon class="cls-1" points="138.93 36.6 140.75 36.6 140.75 43.02 146.62 43.02 146.62 44.51 138.93 44.51 138.93 36.6"/><path class="cls-1" d="M151.25,37a1.51,1.51,0,0,1,1.09-.42h6.42L158.13,38h-5.45v2.07H156l-.62,1.43h-2.66v3h-1.81V38.1a1.46,1.46,0,0,1,.37-1.06"/><path class="cls-1" d="M0,34.9a16.51,16.51,0,0,0,2.56-8,8.69,8.69,0,0,0-.73-4s-.09-.23-.29-.22-.21.28-.21.28a14.81,14.81,0,0,0-.24,4A9.88,9.88,0,0,1,0,31.62Z"/></g></g></svg>