<svg xmlns="http://www.w3.org/2000/svg" viewBox="0 0 219.33 64.18"><defs><style>.cls-1{fill:#636363;}</style></defs><g id="Layer_2" data-name="Layer 2"><g id="logos"><path class="cls-1" d="M21.56,0c3.85,0,7.28,6.53,7.28,13.71s-3.75,6.43-4.71,8-2,6.75-1.07,15.64.86,15.11,2.57,19.4-1.93,7.39-3.86,7.39S16.09,62.25,17.91,57s2.47-16.29,2.47-19.72.82-12.71-.54-15.42c-.75-1.5-4.81-.07-4.93-8.15C14.81,6.32,17.91,0,21.56,0"/><path class="cls-1" d="M8.64,50.91,4.54,38.49C4.06,37,3.6,35.6,3.17,34.17s-.77-2.72-1-3.87c0,.82.05,1.85.06,3.11s0,2.53,0,3.82V50.91H0V24.25H2.36L6,35.37q.74,2.18,1.38,4.32c.44,1.44.77,2.72,1,3.87,0-.82-.05-1.85-.06-3.11s0-2.53,0-3.82V24.25h2.29V50.91Z"/><path class="cls-1" d="M43.75,43.19a11,11,0,0,1-.49,3.51A7,7,0,0,1,42,49.1,5,5,0,0,1,40,50.47a6.35,6.35,0,0,1-2.36.44H33.81V24.25h3.7a5.13,5.13,0,0,1,4.36,1.87A7.88,7.88,0,0,1,43.3,31a7.26,7.26,0,0,1-.84,3.85,5.91,5.91,0,0,1-2,2,6.37,6.37,0,0,1,1.3.86A5.2,5.2,0,0,1,42.8,39a6.17,6.17,0,0,1,.71,1.75,10.58,10.58,0,0,1,.24,2.42M40.82,31.1a5.48,5.48,0,0,0-.89-3.42,3,3,0,0,0-2.5-1.11H36.25v9.18h1.14A2.82,2.82,0,0,0,40,34.42a6.17,6.17,0,0,0,.82-3.32m.46,12.21a6.21,6.21,0,0,0-1.05-3.9,3.5,3.5,0,0,0-2.91-1.34H36.25V48.58h1.52a3,3,0,0,0,2.59-1.26,6.92,6.92,0,0,0,.92-4"/><polygon class="cls-1" points="66.71 35.64 71.76 35.64 71.76 36.17 66.71 36.17 66.71 44.41 66.13 44.41 66.13 27.25 72.27 27.25 72.27 27.78 66.71 27.78 66.71 35.64"/><path class="cls-1" d="M74.57,27.15h.58v1.92h-.58Zm0,4.71h.58V44.41h-.58Z"/><path class="cls-1" d="M79.18,26V42.69c0,1,.26,1.44.89,1.44a1.35,1.35,0,0,0,.61-.18v.48a1.72,1.72,0,0,1-.79.18c-.86,0-1.29-.56-1.29-1.8V26Z"/><path class="cls-1" d="M83.16,26V42.69c0,1,.26,1.44.89,1.44a1.35,1.35,0,0,0,.61-.18v.48a1.78,1.78,0,0,1-.79.18c-.86,0-1.29-.56-1.29-1.8V26Z"/><path class="cls-1" d="M92.82,37.67v.45H86.28c0,3.88,1.32,6.09,3.7,6.09a4.54,4.54,0,0,0,2.59-.84v.48a4.7,4.7,0,0,1-2.69.84c-2.69,0-4.18-2.33-4.18-6.52s1.36-6.49,3.85-6.49c2.08,0,3.27,2.18,3.27,6m-6.54,0h6c0-3.5-1-5.45-2.74-5.45-2,0-3.19,2-3.24,5.45"/><path class="cls-1" d="M98.29,31.68a3.66,3.66,0,0,1,2.92,1.7h0V26h.59V44.41h-.56V42.76h0a3.88,3.88,0,0,1-3.11,1.85c-2.31,0-3.6-2.2-3.6-6.11,0-4.36,1.36-6.82,3.77-6.82m0,12.42a3.73,3.73,0,0,0,2.94-1.85V33.94a3.62,3.62,0,0,0-2.86-1.75c-2.11,0-3.27,2.28-3.27,6.31,0,3.58,1.14,5.6,3.19,5.6"/><polygon class="cls-1" points="107.69 31.86 108.3 31.86 110.81 43.57 113.4 31.86 113.93 31.86 116.54 43.57 119.05 31.86 119.61 31.86 116.84 44.41 116.24 44.41 113.65 32.75 113.63 32.75 111.06 44.41 110.48 44.41 107.69 31.86"/><path class="cls-1" d="M121.71,27.15h.58v1.92h-.58Zm0,4.71h.58V44.41h-.58Z"/><path class="cls-1" d="M128.25,44.21a4.22,4.22,0,0,0,1.54-.28v.5a4.45,4.45,0,0,1-1.64.26c-1,0-2.18-.48-2.18-2.77V32.34h-1.75v-.48H126V28.52h.58v3.34h3.22v.48h-3.22v9.58c0,1.48.58,2.29,1.7,2.29"/><path class="cls-1" d="M138.18,36c0-2.61-.91-3.8-2.61-3.8a4,4,0,0,0-3,1.78V44.41H132V26h.59v7.5a4.18,4.18,0,0,1,3.16-1.8c2,0,3.05,1.37,3.05,4.24v8.49h-.59Z"/><path class="cls-1" d="M145.91,29.48c0-2.61,1.09-3.8,3.37-3.8a5.19,5.19,0,0,1,1.65.27V27.7a3.69,3.69,0,0,0-1.27-.22c-1.11,0-1.62.73-1.62,2.33v1.85h2.36v1.65H148v11.1h-2.13V33.31h-1.62V31.66h1.62Z"/><path class="cls-1" d="M158.66,37.59v1.09h-6.13c0,2.76,1.11,4.31,3,4.31a5.6,5.6,0,0,0,2.84-.86v1.72a6.4,6.4,0,0,1-3.22.89c-3,0-4.77-2.41-4.77-6.67s1.57-6.64,4.44-6.64c2.46,0,3.85,2.23,3.85,6.16m-6.13-.53h4.21c0-2.51-.72-3.88-2-3.88-1.39,0-2.23,1.39-2.25,3.88"/><path class="cls-1" d="M168,37.59v1.09H161.9c0,2.76,1.12,4.31,3,4.31a5.54,5.54,0,0,0,2.83-.86v1.72a6.36,6.36,0,0,1-3.21.89c-3.05,0-4.77-2.41-4.77-6.67s1.57-6.64,4.44-6.64c2.45,0,3.85,2.23,3.85,6.16m-6.14-.53h4.21c0-2.51-.71-3.88-2-3.88s-2.23,1.39-2.26,3.88"/><path class="cls-1" d="M172,26V41.85c0,.76.25,1.06.89,1.06a2,2,0,0,0,.76-.15v1.62a4.78,4.78,0,0,1-1.5.26,2,2,0,0,1-2.28-2.21V26Z"/><path class="cls-1" d="M184.87,42.64A3.5,3.5,0,0,1,182,44.41c-2.54,0-3.93-2.28-3.93-6.39s1.47-6.59,4.1-6.59a3.51,3.51,0,0,1,2.84,1.7V31.66H187v13c0,3.47-1.42,5.09-4.46,5.09a7,7,0,0,1-3.47-.91V47a6.22,6.22,0,0,0,3.11,1c1.88,0,2.74-1,2.74-3.07v-2.3Zm-2.18,0a3,3,0,0,0,2.18-1.42V34.5a2.64,2.64,0,0,0-2.16-1.32c-1.54,0-2.41,1.72-2.41,4.82s.87,4.64,2.39,4.64"/><path class="cls-1" d="M193.58,44.74c-3,0-4.74-2.38-4.74-6.67s1.75-6.64,4.85-6.64,4.81,2.41,4.81,6.74-1.77,6.57-4.92,6.57m.11-11.53c-1.68,0-2.64,1.72-2.64,4.81S192,43,193.69,43s2.61-1.72,2.61-4.81-.94-4.94-2.61-4.94"/><path class="cls-1" d="M204.33,44.74c-3,0-4.74-2.38-4.74-6.67s1.75-6.64,4.84-6.64,4.82,2.41,4.82,6.74-1.78,6.57-4.92,6.57m.1-11.53c-1.67,0-2.63,1.72-2.63,4.81s1,4.94,2.63,4.94S207,41.24,207,38.15s-.94-4.94-2.61-4.94"/><path class="cls-1" d="M214.54,31.43a3.17,3.17,0,0,1,2.64,1.47h0V26h2.12V44.41h-2V42.84h0a3.94,3.94,0,0,1-3.1,1.85c-2.53,0-3.92-2.31-3.92-6.44,0-4.36,1.49-6.82,4.2-6.82M215,42.91a2.83,2.83,0,0,0,2.21-1.34V34.5A2.78,2.78,0,0,0,215,33.18c-1.59,0-2.48,1.83-2.48,5.07,0,3,.89,4.66,2.46,4.66"/></g></g></svg>