<svg xmlns="http://www.w3.org/2000/svg" viewBox="0 0 235.59 63"><defs><style>.cls-1{fill:#636363;}</style></defs><g id="Layer_2" data-name="Layer 2"><g id="logos"><path class="cls-1" d="M91.72,57.27h0a2.43,2.43,0,0,1,2.45-2.47,2.55,2.55,0,0,1,1.83.65l-.53.63a1.88,1.88,0,0,0-1.33-.51,1.61,1.61,0,0,0-1.54,1.68v0A1.58,1.58,0,0,0,94.21,59a1.92,1.92,0,0,0,1.15-.36v-.89H94.15V57h2v2a3,3,0,0,1-2,.74,2.36,2.36,0,0,1-2.47-2.45"/><rect class="cls-1" x="99.28" y="54.87" width="0.84" height="4.77"/><polygon class="cls-1" points="103.36 54.87 106.9 54.87 106.9 55.63 104.19 55.63 104.19 56.94 106.59 56.94 106.59 57.7 104.19 57.7 104.19 59.64 103.36 59.64 103.36 54.87"/><polygon class="cls-1" points="110.96 55.65 109.45 55.65 109.45 54.87 113.31 54.87 113.31 55.65 111.8 55.65 111.8 59.64 110.96 59.64 110.96 55.65"/><path class="cls-1" d="M115.11,60.28c.41-.08.61-.29.58-.64h-.35V58.7h.9v.8a1,1,0,0,1-1,1.14Z"/><path class="cls-1" d="M123,59l.51-.6A2.2,2.2,0,0,0,125,59c.51,0,.84-.25.84-.6v0c0-.34-.19-.52-1.08-.73s-1.58-.54-1.58-1.42h0a1.46,1.46,0,0,1,1.63-1.39,2.61,2.61,0,0,1,1.72.6l-.45.64a2.12,2.12,0,0,0-1.29-.49c-.49,0-.77.25-.77.56h0c0,.37.22.54,1.13.75s1.53.61,1.53,1.4h0c0,.9-.71,1.43-1.7,1.43a2.93,2.93,0,0,1-2-.76"/><path class="cls-1" d="M129.55,57.62V54.87h.84v2.71c0,.89.45,1.36,1.2,1.36s1.19-.44,1.19-1.32V54.87h.84v2.71a1.9,1.9,0,0,1-2.05,2.14,1.88,1.88,0,0,1-2-2.1"/><path class="cls-1" d="M136.53,57.27h0A2.41,2.41,0,0,1,139,54.79a2.51,2.51,0,0,1,1.86.74l-.54.62a1.91,1.91,0,0,0-1.33-.59,1.6,1.6,0,0,0-1.57,1.68v0A1.61,1.61,0,0,0,139,59a1.81,1.81,0,0,0,1.36-.62l.54.55a2.43,2.43,0,0,1-1.93.84,2.4,2.4,0,0,1-2.42-2.45"/><path class="cls-1" d="M143.39,57.27h0a2.41,2.41,0,0,1,2.45-2.47,2.48,2.48,0,0,1,1.86.74l-.54.62a1.89,1.89,0,0,0-1.33-.59,1.61,1.61,0,0,0-1.57,1.68v0A1.61,1.61,0,0,0,145.83,59a1.84,1.84,0,0,0,1.37-.62l.54.55a2.45,2.45,0,0,1-1.93.84,2.39,2.39,0,0,1-2.42-2.45"/><polygon class="cls-1" points="150.59 54.87 154.11 54.87 154.11 55.62 151.42 55.62 151.42 56.86 153.81 56.86 153.81 57.61 151.42 57.61 151.42 58.89 154.15 58.89 154.15 59.64 150.59 59.64 150.59 54.87"/><polygon class="cls-1" points="157.11 54.87 160.64 54.87 160.64 55.62 157.95 55.62 157.95 56.86 160.34 56.86 160.34 57.61 157.95 57.61 157.95 58.89 160.67 58.89 160.67 59.64 157.11 59.64 157.11 54.87"/><path class="cls-1" d="M164.48,55.63v3.25h.93a1.56,1.56,0,0,0,1.66-1.61h0a1.57,1.57,0,0,0-1.66-1.63Zm-.84-.76h1.77a2.37,2.37,0,0,1,2.53,2.37v0a2.38,2.38,0,0,1-2.53,2.38h-1.77Z"/><path class="cls-1" d="M177.1,56h0a.51.51,0,0,0-.54-.54A.55.55,0,0,0,176,56h0a1,1,0,0,0,.36.71c.49-.17.75-.4.75-.74m0,2.6-1.06-1.09a.9.9,0,0,0-.63.8h0a.72.72,0,0,0,.79.69,1.29,1.29,0,0,0,.9-.41m.47.49a2.07,2.07,0,0,1-1.45.62,1.41,1.41,0,0,1-1.56-1.36v0a1.42,1.42,0,0,1,1-1.33,1.53,1.53,0,0,1-.4-1h0a1.25,1.25,0,0,1,1.37-1.2,1.17,1.17,0,0,1,1.26,1.15h0c0,.63-.41,1-1.05,1.24l.82.84a8.84,8.84,0,0,0,.51-.92l.63.33a7.15,7.15,0,0,1-.64,1.08l.75.77-.62.45Z"/><polygon class="cls-1" points="186.82 55.65 185.31 55.65 185.31 54.87 189.18 54.87 189.18 55.65 187.67 55.65 187.67 59.64 186.82 59.64 186.82 55.65"/><polygon class="cls-1" points="192.03 54.87 192.87 54.87 192.87 56.85 195.14 56.85 195.14 54.87 195.97 54.87 195.97 59.64 195.14 59.64 195.14 57.63 192.87 57.63 192.87 59.64 192.03 59.64 192.03 54.87"/><path class="cls-1" d="M201.23,57.24c.6,0,1-.32,1-.8v0c0-.51-.37-.79-1-.79H200v1.61Zm-2.06-2.37h2.12a1.94,1.94,0,0,1,1.38.48,1.44,1.44,0,0,1,.39,1h0a1.45,1.45,0,0,1-1.13,1.45l1.28,1.8h-1L201.05,58h-1v1.66h-.84Z"/><rect class="cls-1" x="206.11" y="54.87" width="0.84" height="4.77"/><polygon class="cls-1" points="209.78 54.87 210.7 54.87 212.14 58.54 213.56 54.87 214.47 54.87 212.5 59.67 211.76 59.67 209.78 54.87"/><polygon class="cls-1" points="217.26 54.87 220.78 54.87 220.78 55.62 218.09 55.62 218.09 56.86 220.48 56.86 220.48 57.61 218.09 57.61 218.09 58.89 220.82 58.89 220.82 59.64 217.26 59.64 217.26 54.87"/><path class="cls-1" d="M79.94,41V32.45a.13.13,0,0,1,.14-.13h6.77c1.72,0,5.72.43,5.75,4.39a3.9,3.9,0,0,1-1,2.88c-1.35,1.36-3.8,1.54-5.78,1.54H80.08a.14.14,0,0,1-.14-.14m0-10.37V23.08a.14.14,0,0,1,.14-.14h6c2.6,0,5.69.7,5.69,4,0,2.46-2.39,3.78-4.64,3.78H80.08a.14.14,0,0,1-.14-.14m10.47.85a4.91,4.91,0,0,0,3-4.54c0-3.53-2.64-5.54-7.24-5.54H78.79a.42.42,0,0,0-.43.42V42.26a.42.42,0,0,0,.43.42h7.1c3.25,0,5.5-.66,6.86-2a5.26,5.26,0,0,0,1.43-3.89,5.31,5.31,0,0,0-3.77-5.29"/><path class="cls-1" d="M119.19,41.13H107a.13.13,0,0,1-.13-.14v-8.1a.13.13,0,0,1,.13-.13h11.09a.43.43,0,0,0,.42-.43v-.7a.42.42,0,0,0-.42-.43H107a.13.13,0,0,1-.13-.14v-8a.14.14,0,0,1,.13-.14h12a.42.42,0,0,0,.43-.42v-.71a.42.42,0,0,0-.43-.42H105.68a.42.42,0,0,0-.42.42V42.26a.42.42,0,0,0,.42.42h13.51a.42.42,0,0,0,.43-.42v-.7a.43.43,0,0,0-.43-.43"/><path class="cls-1" d="M144.43,41.13h-11.9a.14.14,0,0,1-.14-.14V21.81a.42.42,0,0,0-.42-.42h-.73a.42.42,0,0,0-.43.42V42.26a.42.42,0,0,0,.43.42h13.19a.43.43,0,0,0,.43-.42v-.7a.43.43,0,0,0-.43-.43"/><path class="cls-1" d="M156,21.39h-.73a.42.42,0,0,0-.42.42V42.26a.42.42,0,0,0,.42.42H156a.42.42,0,0,0,.43-.42V21.81a.42.42,0,0,0-.43-.42"/><path class="cls-1" d="M182.91,41.13H170.69a.13.13,0,0,1-.13-.14v-8.1a.13.13,0,0,1,.13-.13h11.08a.43.43,0,0,0,.43-.43v-.7a.43.43,0,0,0-.43-.43H170.69a.13.13,0,0,1-.13-.14v-8a.14.14,0,0,1,.13-.14h12a.43.43,0,0,0,.43-.42v-.71a.43.43,0,0,0-.43-.42H169.4a.43.43,0,0,0-.43.42V42.26a.43.43,0,0,0,.43.42h13.51a.42.42,0,0,0,.43-.42v-.7a.43.43,0,0,0-.43-.43"/><path class="cls-1" d="M210.74,21.39H210a.43.43,0,0,0-.39.25l-8,18.44a.13.13,0,0,1-.24,0l-8-18.43a.42.42,0,0,0-.39-.26h-.79a.41.41,0,0,0-.35.19.43.43,0,0,0,0,.41l8.91,20.44a.43.43,0,0,0,.39.25h.73a.43.43,0,0,0,.39-.25L211.13,22a.41.41,0,0,0,0-.4.42.42,0,0,0-.36-.19"/><path class="cls-1" d="M235.16,41.13H222.94a.13.13,0,0,1-.13-.14v-8.1a.13.13,0,0,1,.13-.13H234a.43.43,0,0,0,.42-.43v-.7a.42.42,0,0,0-.42-.43H222.94a.13.13,0,0,1-.13-.14v-8a.14.14,0,0,1,.13-.14h12a.43.43,0,0,0,.43-.42v-.71a.43.43,0,0,0-.43-.42H221.65a.43.43,0,0,0-.43.42V42.26a.43.43,0,0,0,.43.42h13.51a.42.42,0,0,0,.43-.42v-.7a.43.43,0,0,0-.43-.43"/><path class="cls-1" d="M60.94,51.24l0,.09c-.09.22-.19.45-.29.67a.89.89,0,0,0-.08.17c-.09.19-.19.38-.29.57l-.12.23-.28.5c-.05.09-.1.18-.16.27l-.27.44-.2.3c-.09.14-.18.28-.28.41l-.22.3c-.1.14-.2.27-.31.4l-.22.29-.37.43-.2.23L57.2,57l-7.29-7.31V40.83A4.65,4.65,0,0,1,51.07,38l5.08-5.09a1.45,1.45,0,0,1,1.09-.43,1.26,1.26,0,0,1,.89.43l.17.2.22.28.32.42.18.26c.11.16.22.32.32.48l.15.23q.18.27.33.54l.11.18.35.65,0,.09a18.11,18.11,0,0,1,.62,15m-4.56,6.55-.24.2-.42.37-.29.23-.4.31-.3.22-.41.28-.3.19c-.14.1-.29.19-.44.28l-.27.16-.5.28-.23.12-.57.29-.17.08-.66.29-.09,0a18,18,0,0,1-15-.63l0,0c-.23-.12-.46-.24-.68-.37L35.25,60l-.56-.34-.22-.15L34,59.2,33.73,59l-.41-.31-.3-.24-.18-.15a1.25,1.25,0,0,1-.43-.9,1.44,1.44,0,0,1,.42-1.09l5.08-5.1a4.62,4.62,0,0,1,2.8-1.16h8.82l7.29,7.31-.44.42m-25-1.43a1.25,1.25,0,0,1-.88-.36,5.54,5.54,0,0,1-.37-.45L30,55.38c-.19-.24-.37-.5-.55-.75l0,0c-.18-.26-.35-.52-.51-.79l0-.06c-.16-.26-.31-.53-.45-.8l-.06-.11c-.14-.26-.27-.53-.39-.8L28,51.91v0c-.09-.21-.18-.41-.26-.62a.88.88,0,0,1,.06-.81,1,1,0,0,1,.88-.4H34.2a1,1,0,0,1,.88.4.91.91,0,0,1,.05.81c-.08.21-.17.41-.26.62,0,0,0,0,0,0a.54.54,0,0,0,0,.11c-.13.27-.26.54-.4.81a.41.41,0,0,0,0,.09c-.15.28-.3.55-.46.82l0,0c-.17.27-.34.54-.52.8l0,0c-.17.26-.36.52-.55.77l-.13.16-.37.45a1.24,1.24,0,0,1-.87.36m-.56,1.17c-.16.15-.32.31-.49.45l-.12.11-.57.48,0,0a18,18,0,0,1-23.11-.74l-.06,0L6,57.37l7.29-7.31H22.1a4.62,4.62,0,0,1,2.8,1.16L31,57.31l.06.06-.18.16m-25.66-1L5,56.3l-.37-.42-.23-.29-.3-.39-.22-.31-.28-.41-.2-.3-.27-.44L3,53.46,2.68,53c0-.08-.08-.16-.13-.24s-.19-.37-.27-.56L2.19,52c-.1-.21-.19-.43-.28-.65l0-.1c-.1-.26-.2-.51-.29-.77h0a18.17,18.17,0,0,1,.92-14.21l0-.09c.12-.22.23-.44.36-.65a1,1,0,0,1,.1-.17,6.16,6.16,0,0,1,.33-.55l.15-.23c.1-.16.21-.32.32-.48L4,33.83l.33-.43.21-.27.17-.2a1.26,1.26,0,0,1,.89-.43h.07a1.43,1.43,0,0,1,1,.43L11.74,38a4.62,4.62,0,0,1,1.16,2.8v8.85L5.61,57l-.42-.45M4.67,30.06l-.12-.14-.28-.36-.22-.29c-.11-.14-.21-.29-.31-.44l-.16-.23q-.17-.24-.33-.51l-.1-.16-.34-.59-.06-.1c-.12-.22-.23-.44-.34-.66l0,0c-.11-.24-.23-.47-.33-.71H2A18.89,18.89,0,0,1,1,22.7H1C1,22.43.89,22.16.84,21.9a.17.17,0,0,0,0-.07l-.12-.74c0-.06,0-.12,0-.17,0-.22-.06-.44-.08-.65s0-.27,0-.4,0-.29,0-.44,0-.57,0-.85v-.29c0-.19,0-.38,0-.57s0-.35,0-.52,0-.22,0-.33.05-.42.08-.63,0-.13,0-.2q0-.36.12-.72v-.09c.05-.26.11-.52.17-.78v0A17.93,17.93,0,0,1,3.21,9.1v0l.43-.66.06-.09.42-.58c0-.06.09-.12.14-.17s.25-.33.38-.49l.26-.3.29-.34L5.61,6l7.29,7.31v8.84A4.65,4.65,0,0,1,11.74,25l-5.08,5.1a1.51,1.51,0,0,1-1.09.43,1.3,1.3,0,0,1-.9-.44M6.42,5.22l.34-.3.3-.26.48-.38.18-.13c.19-.15.38-.29.58-.42l.09-.07.66-.43h0A17.66,17.66,0,0,1,14.38,1h0l.76-.16.12,0L16,.71l.23,0,.6-.07.38,0,.46,0c.28,0,.56,0,.85,0s.56,0,.84,0h.28l.53,0,.4.05L21,.7l.48.08.29,0,.55.1.19,0a6.23,6.23,0,0,1,.62.15l.09,0a18.11,18.11,0,0,1,4.18,1.71l0,0a6.16,6.16,0,0,1,.55.33l.17.1.46.3.24.17.39.29.3.22.34.27.13.11a1.3,1.3,0,0,1,.44.91A1.49,1.49,0,0,1,30,6.68L27.31,9.36l-.19.18L24.9,11.77a4.69,4.69,0,0,1-2.8,1.17H13.28L6,5.63l.43-.41m25,1.41a1.24,1.24,0,0,1,.87.36l.37.45.13.17h0c.19.25.37.5.55.76a.08.08,0,0,1,0,0c.18.26.35.52.52.79l0,.05q.24.4.45.81l.06.1c.14.27.27.54.4.81l0,.11v0c.09.2.18.41.26.61a.89.89,0,0,1-.06.82,1,1,0,0,1-.87.4H28.62a1,1,0,0,1-.88-.4.89.89,0,0,1-.06-.82c.08-.2.17-.41.26-.61v0L28,11q.18-.41.39-.81l.06-.1q.21-.41.45-.81l0-.05c.16-.27.33-.53.51-.79a.08.08,0,0,1,0,0c.18-.26.36-.51.55-.76h0l.13-.17L30.53,7a1.25,1.25,0,0,1,.88-.36m1.43-1.95L33,4.57l.36-.29.29-.22.43-.31.23-.16.51-.33.17-.1c.19-.12.38-.24.58-.35a.31.31,0,0,0,.1-.05l.66-.35,0,0A17.76,17.76,0,0,1,41.79.71h0l.79-.09h.12c.27,0,.55,0,.82-.06h1l.59,0,.47,0,.37,0,.6.07.23,0c.23,0,.46.07.69.12l.12,0c.26,0,.51.1.76.16h0a17.66,17.66,0,0,1,5.31,2.2h0l.65.43.09.07c.2.13.39.27.58.42l.18.13.48.38.3.26.34.3.43.41-7.29,7.31H40.71a4.69,4.69,0,0,1-2.8-1.17L37.18,11,32.83,6.68a1.44,1.44,0,0,1-.42-1.09,1.27,1.27,0,0,1,.43-.91M53.63,34l0,0-.81.46-.1,0-.8.4-.11.05,0,0-.61.26a.91.91,0,0,1-.81-.06,1,1,0,0,1-.4-.88h0V31.5h0V28.7a1,1,0,0,1,.4-.88.76.76,0,0,1,.44-.13,1.27,1.27,0,0,1,.37.07l.6.26.05,0,.11.05.8.4.1.05.81.46,0,0,.79.51,0,0c.26.17.51.36.76.55l.17.13.45.37a1.25,1.25,0,0,1,.36.88,1.27,1.27,0,0,1-.36.88l-.45.37-.17.13-.76.55,0,0c-.26.18-.53.35-.8.52m-6.39,7.14.26-.45a.75.75,0,0,1,.07-.12l.24-.44.1-.21c.08-.15.15-.29.22-.44a2,2,0,0,0,.11-.26c.1-.21.2-.43.29-.65l.15-.39.06-.15a7.13,7.13,0,0,1,.71-1.61l.27-.08a16.79,16.79,0,0,0,1.68-.6h0l.59-.26.08,0,.52-.25.08,0,.54-.29,0,0,.62-.36-4.42,4.44Zm-11.9,11c.09-.18.17-.37.25-.56v0h0a16.79,16.79,0,0,0,.6-1.68,2.29,2.29,0,0,0,.08-.28,7.76,7.76,0,0,1,1.61-.71l.14-.05.41-.17c.19-.07.38-.16.56-.24l.34-.15.42-.21.22-.12.44-.23.14-.08c.14-.08.29-.16.42-.25L38.77,49.6,34.35,54c.12-.2.24-.41.35-.62l0-.06.27-.51a.31.31,0,0,1,.05-.1l.24-.51a1,1,0,0,0,0-.1M41,15.61l-.42-.24-.14-.08L40,15.05l-.22-.11-.42-.21L39,14.59l-.59-.26L38,14.17l-.14-.06a7.13,7.13,0,0,1-1.61-.71,2.76,2.76,0,0,0-.08-.27h0a.19.19,0,0,0,0-.08,16.88,16.88,0,0,0-.58-1.6h0v0c-.08-.19-.16-.38-.25-.57a.36.36,0,0,0,0-.09l-.24-.51a.93.93,0,0,1-.05-.1l-.28-.53,0,0c-.11-.21-.23-.42-.35-.62l.17.17,3,3,1.24,1.24L40,14.64Zm8.4-.65v7.2c0,.41-.11.6-.2.63s-.3,0-.58-.3L46.07,20l-.34-.33-.09-.1-.07-.07h0L45.11,19l-.62-.62h0l-1-1-.05-.05-3-3c-.29-.29-.34-.5-.31-.59s.23-.2.63-.2h7.18A1.49,1.49,0,0,1,49.38,15m.37,11.73h0l-.27-.09a6.86,6.86,0,0,1-.71-1.6l-.06-.15c0-.14-.1-.27-.16-.4s-.16-.39-.25-.59l-.15-.32c-.06-.14-.13-.28-.2-.42l-.12-.23-.23-.43-.08-.14c-.08-.15-.16-.29-.25-.43l1,1,1.24,1.24,1.24,1.24,3.18,3.2c-.2-.13-.41-.24-.62-.36l0,0-.52-.28-.1,0-.5-.25-.1,0-.57-.25h0c-.53-.22-1.08-.42-1.64-.6m-23,22.22a16.43,16.43,0,0,1-1.68-.54l-.71-.29-.3-.13-.55-.25-.45-.23-.27-.15c-.25-.14-.51-.28-.75-.44l-.15-.09-.43-.27-.22-.15-.6-.43-.33-.26L20,45.46c-.19-.15-.38-.31-.56-.48a1.29,1.29,0,0,1-.17-.16c-.21-.18-.41-.38-.61-.57h0c-.2-.2-.39-.4-.58-.61L18,43.46q-.24-.27-.48-.57l-.22-.27L17,42.28c-.15-.19-.29-.39-.43-.59l-.15-.22L16.16,41l-.09-.15c-.16-.25-.3-.51-.44-.77a2.15,2.15,0,0,1-.14-.26l-.24-.46c-.08-.18-.17-.36-.25-.55s-.09-.2-.13-.3-.2-.47-.29-.7c-.2-.56-.38-1.12-.53-1.69a16.8,16.8,0,0,1-.37-1.71l-.09-.56v0c0-.2-.05-.41-.07-.61a16.9,16.9,0,0,1-.09-1.74,17.09,17.09,0,0,1,.09-1.75c0-.2,0-.4.07-.6v-.06c0-.18.05-.36.08-.54a17,17,0,0,1,.37-1.72c.15-.58.34-1.16.55-1.73l.21-.52c0-.13.11-.25.16-.38a1.24,1.24,0,0,1,.1-.2c.06-.14.12-.28.19-.42a.83.83,0,0,1,.07-.13,17.93,17.93,0,0,1,1.09-1.9l.07-.11.27-.39.11-.15.27-.36.21-.28a18.9,18.9,0,0,1,1.34-1.5h0a18.41,18.41,0,0,1,1.55-1.38l.23-.18.36-.27.15-.11.39-.27.11-.07a17.87,17.87,0,0,1,1.89-1.1l.13-.07.42-.19.2-.09.38-.17.44-.17a16.45,16.45,0,0,1,1.8-.59h0a16.24,16.24,0,0,1,1.71-.37l.43-.07.17,0,.59-.07a17,17,0,0,1,3.49,0l.59.07.16,0,.45.07a17.41,17.41,0,0,1,1.71.37,16.06,16.06,0,0,1,1.7.55l.54.21.37.17.22.09.4.19.15.07a16.79,16.79,0,0,1,1.88,1.1.41.41,0,0,1,.11.07l.39.27.16.11.35.27.27.21a17.53,17.53,0,0,1,1.51,1.35h0a17.4,17.4,0,0,1,1.28,1.43l.28.35.25.35.12.16.27.39.08.12a16.64,16.64,0,0,1,1.08,1.88l.07.15.2.4.09.21c0,.13.11.25.16.38l.18.45a18.86,18.86,0,0,1,.58,1.8,17,17,0,0,1,.37,1.72l.09.57v0c0,.2.05.4.07.6a17.09,17.09,0,0,1,.09,1.75h0a17.09,17.09,0,0,1-.09,1.75c0,.2,0,.4-.07.6a.2.2,0,0,1,0,.07c0,.18-.05.35-.08.53a16.8,16.8,0,0,1-.37,1.71,18.86,18.86,0,0,1-.58,1.8l-.18.46c0,.12-.11.25-.16.38l-.09.2c-.07.14-.13.28-.2.41l-.07.14a17.93,17.93,0,0,1-1.09,1.9l-.07.1-.27.4-.11.15-.27.36c-.07.09-.14.19-.22.28a15.79,15.79,0,0,1-1.34,1.5h0c-.46.46-1,.9-1.47,1.32l-.31.24-.35.26-.16.12-.39.27-.11.07a17.79,17.79,0,0,1-1.89,1.09l-.13.07-.41.2-.21.09-.38.16-.49.2c-.58.22-1.16.41-1.75.57s-1.14.27-1.72.37l-.41.06-.27,0-.51.06a19.07,19.07,0,0,1-3.49,0l-.59-.07-.15,0-.46-.07c-.57-.1-1.14-.22-1.7-.37m-5-1.54.7.41.27.14.6.3.43.2.32.15.71.28.08,0a7.76,7.76,0,0,1,1.61.71,2.29,2.29,0,0,0,.08.28,16.79,16.79,0,0,0,.6,1.68h0v0c.08.19.16.38.25.57l0,.09c.08.17.16.34.25.51l0,.09c.09.18.18.36.28.53l0,.05c.11.21.23.41.35.62l-3.95-4L24,49.6ZM13.43,48v-7.2c0-.4.11-.59.2-.63h.06a.84.84,0,0,1,.52.32l4.11,4.11,4.1,4.12c.29.29.34.49.31.59s-.23.19-.63.19H14.92A1.49,1.49,0,0,1,13.43,48M9.55,34.81l0,0,.54.28.08,0,.52.25.09,0,.56.25h0a15.77,15.77,0,0,0,1.67.6h0l.27.08A7.13,7.13,0,0,1,14.07,38a.36.36,0,0,0,0,.09c.08.23.18.47.28.7s.09.22.14.33l.2.42c.1.21.2.41.31.61s.09.18.13.26c.14.24.27.48.41.71l-1-1h0l-1.24-1.24-1.23-1.24h0L9.2,34.72l-.27-.27.62.36M9.17,29l.06,0c.26-.16.53-.31.8-.46l.1-.05c.27-.14.53-.28.8-.4l.12-.06h0l.62-.26a1.27,1.27,0,0,1,.37-.07.76.76,0,0,1,.44.13,1,1,0,0,1,.4.88v5.6a1,1,0,0,1-.4.88.91.91,0,0,1-.81.06L11.08,35l0,0-.1-.05-.8-.4-.11,0L9.23,34l-.07,0c-.27-.17-.54-.34-.8-.52h0l-.76-.55-.17-.13L7,32.38a1.26,1.26,0,0,1,0-1.76l.46-.38.15-.11h0c.25-.19.5-.38.76-.55l0,0c.25-.18.52-.34.78-.51m5.42-6.16h0l1-1c-.09.14-.17.29-.25.43l-.08.14c-.08.14-.16.29-.23.44a2.12,2.12,0,0,0-.11.21c-.08.15-.15.29-.21.43l-.13.28q-.15.32-.27.63c-.06.13-.11.26-.16.4l-.06.15a6.86,6.86,0,0,1-.71,1.6l-.27.09H13c-.55.17-1.09.37-1.63.59h0l-.59.26-.08,0-.52.25-.08,0-.54.28,0,0-.62.35,4.15-4.15.27-.28ZM27.22,11.42v0h0C27,12,26.8,12.5,26.63,13l0,.09h0a2.76,2.76,0,0,0-.08.27,7.13,7.13,0,0,1-1.61.71l-.14.06-.4.16-.6.26-.31.14-.42.21-.22.11-.43.24-.16.08-.41.24L24,13.39,28.46,9c-.12.2-.24.41-.35.62l0,.05c-.1.17-.19.35-.28.52a1,1,0,0,1,0,.1c-.09.16-.17.34-.25.51l0,.09c-.09.19-.17.38-.25.57M13.43,13.59v-.12h.12l-.12.12m1.49-.12H22.1c.4,0,.59.11.63.2s0,.3-.31.59l-1.16,1.16L19.4,17.29l0,.05-1,1h0l-1,1-.06.06-3,3c-.28.28-.49.34-.58.3s-.2-.22-.2-.63V15a1.49,1.49,0,0,1,1.49-1.49m33,36.05H40.71c-.4,0-.59-.1-.63-.19s0-.3.31-.59l3-3,.07-.07,2-2,.12-.11,3-3a.84.84,0,0,1,.52-.32h.06c.09,0,.2.23.2.63V48a1.49,1.49,0,0,1-1.49,1.49M57.62,6.46l.2.22.37.44.22.28.31.4c.08.1.15.21.22.31s.19.27.28.4l.2.31.27.43.17.28.27.49c0,.08.08.16.13.24s.19.38.27.56l.09.19c.1.21.19.43.28.65,0,0,0,.07.05.1.1.25.2.51.29.76h0a18.19,18.19,0,0,1-.91,14.2s0,.08-.07.13-.21.4-.33.6l-.12.22c-.1.17-.2.34-.31.5s-.11.18-.17.27l-.29.43-.22.3-.29.39-.25.32a2.09,2.09,0,0,1-.14.17,1.32,1.32,0,0,1-.9.44,1.49,1.49,0,0,1-1.09-.43L51.07,25a4.65,4.65,0,0,1-1.16-2.81V13.32L57.2,6l.42.45m3.45,30.11c-.11-.23-.22-.46-.34-.69a.8.8,0,0,1-.08-.16c-.11-.2-.22-.4-.34-.6l-.12-.2c-.11-.19-.22-.37-.34-.55s-.09-.15-.14-.23-.24-.33-.35-.5l-.18-.24c-.12-.17-.25-.33-.37-.49l-.18-.23,0,0-.06-.06a13.84,13.84,0,0,0-1-1.07c.34-.35.67-.72,1-1.09,0,0,0,0,0,0l0,0c.09-.1.17-.21.25-.31l.31-.41.21-.29.31-.45c.07-.09.12-.18.18-.27s.21-.34.31-.51a1.76,1.76,0,0,0,.14-.23c.11-.19.22-.38.32-.57a1.74,1.74,0,0,1,.1-.19l.32-.65,0-.12c.12-.25.23-.51.33-.77v0a18.62,18.62,0,0,0,0-13.94l0-.08c-.09-.24-.19-.47-.3-.7L61,10.64c-.1-.2-.19-.4-.29-.59l-.13-.25-.29-.51A2.75,2.75,0,0,0,60.16,9c-.09-.16-.18-.3-.28-.45s-.13-.22-.2-.32l-.29-.42c-.08-.1-.15-.21-.23-.32s-.21-.27-.32-.41-.15-.2-.24-.3l-.37-.44L58,6.1l-.63-.66q-.33-.33-.66-.63L56.5,4.6l-.45-.38L55.76,4l-.42-.33L55,3.44l-.43-.3-.3-.2-.46-.29-.29-.16L53,2.2l-.24-.13-.6-.29L52,1.7c-.24-.11-.47-.22-.71-.31l-.08,0A18,18,0,0,0,45.13,0a18.41,18.41,0,0,0-8.59,1.69l-.07,0-.7.34-.14.08L35,2.51l-.18.11L34.26,3l-.21.14c-.18.12-.36.24-.53.37l-.22.15-.51.4-.2.16-.06,0-.07.06q-.54.45-1.05,1c-.36-.35-.73-.69-1.11-1h0l-.45-.35-.24-.19-.53-.38-.16-.12-.61-.39-.11-.07-.66-.39-.06,0-.71-.38,0,0L26,1.57h0l-.76-.32h0c-.25-.1-.51-.2-.78-.28h0Q24,.82,23.58.71h0C23.29.62,23,.56,22.77.5l-.08,0L22,.32l-.14,0L21.12.19l-.24,0L20.27.08l-.43,0L19.4,0l-.88,0h-.88l-.48,0-.39,0-.62.07-.23,0L15.2.3l-.12,0c-.26,0-.52.1-.78.17h0A18.37,18.37,0,0,0,8.79,2.76l0,0c-.23.14-.45.29-.67.44L8,3.29c-.2.14-.4.28-.59.43l-.19.14-.49.39-.32.28-.33.29-.65.62c-.21.21-.41.42-.61.64l-.3.35-.27.31c-.14.17-.27.33-.39.5l-.14.18L3.28,8l-.07.09c-.15.22-.3.45-.44.68l0,0A18.35,18.35,0,0,0,.49,14.31v0c-.07.26-.12.53-.17.8,0,0,0,.07,0,.1L.18,16c0,.06,0,.13,0,.2s-.06.43-.08.65,0,.23,0,.34,0,.36,0,.53v0c0,.19,0,.38,0,.57s0,.17,0,.26v0c0,.29,0,.59,0,.88l0,.38,0,.5c0,.18.05.37.07.55s0,.2,0,.3.06.43.1.65l0,.19.15.71,0,.11c.06.25.12.5.19.75l0,.06c.07.26.15.51.23.77l0,0c.08.25.17.51.27.76v0c.1.25.2.51.31.76v0c.11.25.23.5.35.74l0,0c.12.24.24.48.37.71l0,.06.39.67.07.1.39.61.12.16c.12.19.25.37.38.54l.19.24c.11.15.22.3.35.45h0s0,0,0,0c.32.38.65.75,1,1.11-.33.34-.65.7-1,1.07l0,.06a.1.1,0,0,0,0,0L4,32.91c-.13.16-.25.32-.37.49l-.17.24-.36.5c-.05.08-.09.16-.14.23s-.23.36-.34.55l-.12.2c-.12.2-.23.4-.34.61a1.09,1.09,0,0,1-.08.15l-.34.69,0,.08A18.63,18.63,0,0,0,1.35,51.4l0,.07c.1.24.2.48.31.71,0,.06.05.12.08.17s.19.41.3.61l.12.23c.09.18.19.35.29.52s.11.19.17.29l.28.46.2.31.3.42.22.31.32.42a3.36,3.36,0,0,0,.24.29l.37.45.21.24.63.66a19.17,19.17,0,0,0,2.47,2.08,18.58,18.58,0,0,0,8,3.16,19.71,19.71,0,0,0,2.66.19A18.46,18.46,0,0,0,28.75,59.9a20,20,0,0,0,2.66-2.16c.34.34.7.66,1.07,1l.05,0,0,0c.07.07.15.12.22.18l.48.37.24.18.49.34.23.15.55.35.17.1.7.39,0,0A18.43,18.43,0,0,0,44.3,63l.84,0a18.63,18.63,0,0,0,6.11-1.34l.06,0L52,61.3l.17-.08q.3-.13.6-.3L53,60.8l.51-.29.29-.17.46-.28.3-.2.43-.3.31-.23.41-.32.3-.23.44-.38.24-.21q.33-.3.66-.63L58,56.9l.21-.24.38-.45c.08-.09.15-.19.23-.29l.32-.42c.08-.1.15-.21.22-.31l.3-.43.2-.3.29-.46.16-.29c.1-.17.2-.34.29-.52l.12-.23c.11-.2.21-.41.3-.61s.05-.11.08-.17c.11-.23.21-.47.31-.71l0-.07a18.43,18.43,0,0,0,1.33-6.13,18.65,18.65,0,0,0-1.68-8.62.2.2,0,0,1,0-.08"/><path class="cls-1" d="M27.38,37.69v-5.4h4.5c2.12,0,3.55,1.17,3.55,2.93s-1.29,2.9-3.55,2.9h-4.5v-.43m.64,1h3.86c2.58,0,4.11-1.3,4.11-3.47s-1.69-3.5-4.11-3.5H27a.21.21,0,0,0-.21.21v6.19a1.48,1.48,0,0,1-1.32-1.44s0,0,0,0V26.34A1.47,1.47,0,0,1,26.39,25v-.61a2,2,0,0,0-1.46,1.95V36.65a2.05,2.05,0,0,0,1.91,2H28Z"/><path class="cls-1" d="M31.79,24.87a2.73,2.73,0,0,1,3,2.5,2.81,2.81,0,0,1-3,2.58H27.38V24.87ZM35.1,31a4.81,4.81,0,0,0,2.11-3.64c0-2.71-2.39-4.84-5.45-4.84H28.85a2,2,0,0,0-2,1.76c0,.11,0,.2,0,.27V28.8h0v1.5a.21.21,0,0,0,.21.21h4.76a3.35,3.35,0,0,0,3.53-3.14,3.28,3.28,0,0,0-3.53-3.06H27.41a1.47,1.47,0,0,1,1.44-1.21h2.91c2.74,0,4.88,1.88,4.88,4.27a4.17,4.17,0,0,1-2.19,3.34l-.4.17a.2.2,0,0,0-.13.21.21.21,0,0,0,.15.19l.42.11a4.29,4.29,0,0,1,2.82,3.92c0,2.09-.91,4.59-5.28,4.59H28.82a1.47,1.47,0,0,1-1.25-.77H27a2,2,0,0,0,1.9,1.33H32c3.77,0,5.85-1.83,5.85-5.15A4.91,4.91,0,0,0,35.1,31"/></g></g></svg>