<svg xmlns="http://www.w3.org/2000/svg" viewBox="0 0 203.28 53.76"><defs><style>.cls-1{fill:#636363;}</style></defs><g id="Layer_2" data-name="Layer 2"><g id="logos"><path class="cls-1" d="M.34,11.5C.34,9.63.3,7.79.23,6S.09,2.36,0,.55C.73.61,1.49.66,2.25.7S3.76.76,4.5.76,6,.73,6.75.66,8.26.55,9,.55a19.72,19.72,0,0,1,3.44.28,8.65,8.65,0,0,1,2.84,1,5.39,5.39,0,0,1,2,1.89,5.63,5.63,0,0,1,.72,3,6.26,6.26,0,0,1-2,4.92,11.17,11.17,0,0,1-5.15,2.51v.08a10.46,10.46,0,0,1,6,1.83Q19,17.65,19,21.3a7.61,7.61,0,0,1-1,4,8,8,0,0,1-2.55,2.61A10.58,10.58,0,0,1,12,29.3a17.87,17.87,0,0,1-3.76.4c-.68,0-1.36,0-2.06,0s-1.38,0-2,0H2.06c-.7,0-1.38,0-2.06.08.09-1.81.16-3.61.23-5.41s.11-3.63.11-5.49Zm5.77,2.08a14.69,14.69,0,0,0,3-.3,8,8,0,0,0,2.61-1,5.37,5.37,0,0,0,1.84-1.86,5.63,5.63,0,0,0,.7-2.95,5.32,5.32,0,0,0-.63-2.78A4.77,4.77,0,0,0,12,3.08a6.18,6.18,0,0,0-2.21-.77A17,17,0,0,0,7.3,2.12c-.74,0-1.36,0-1.87.07s-1,.09-1.36.14C4,3.69,4,5,3.9,6.36s-.08,2.68-.08,4v3.18Zm-2.29,5.9c0,1.44,0,2.87.08,4.28s.12,2.84.17,4.29c.54.05,1.18.1,1.91.14s1.49.07,2.25.07a7.4,7.4,0,0,0,2.61-.47A6.17,6.17,0,0,0,13,26.41a6.63,6.63,0,0,0,1.48-2.25,7.83,7.83,0,0,0,.55-3,6.16,6.16,0,0,0-.65-3,4.63,4.63,0,0,0-1.89-1.83,9.3,9.3,0,0,0-2.95-.91,26.44,26.44,0,0,0-3.84-.25H3.82Z"/><path class="cls-1" d="M32.78,17.78l-1.25-2.1L29.7,12.62c-.66-1.11-1.36-2.29-2.1-3.52L25.5,5.58c-.66-1.12-1.26-2.12-1.8-3l-1.23-2L23.63.7A11.46,11.46,0,0,0,24.8.76,11.17,11.17,0,0,0,26,.7L27.14.55Q29,4.24,31,7.81c1.31,2.37,2.71,4.85,4.18,7.42.65-1,1.33-2.13,2-3.35s1.42-2.46,2.13-3.73,1.38-2.56,2-3.84S42.65,1.77,43.22.55a9,9,0,0,0,1.65.21A9.15,9.15,0,0,0,46.53.55C45.17,2.62,44,4.48,42.88,6.15s-2,3.19-2.85,4.54-1.54,2.58-2.16,3.67-1.16,2.07-1.61,2.95c0,1.05,0,2.16,0,3.35s0,2.36.06,3.5.07,2.21.11,3.19.09,1.76.15,2.35c-.65-.06-1.35-.08-2.08-.08s-1.43,0-2.08.08c.17-1.47.27-3.25.3-5.35s0-4.28,0-6.57"/><path class="cls-1" d="M58.13,25.73a6.88,6.88,0,0,0,3.33,2.46,7.13,7.13,0,0,0,2.46.41,6.24,6.24,0,0,0,2.53-.49,5.68,5.68,0,0,0,3.11-3.27A6.58,6.58,0,0,0,70,22.45a4.58,4.58,0,0,0-1-3.1,8.09,8.09,0,0,0-2.48-1.91,28.54,28.54,0,0,0-3.2-1.4,17.14,17.14,0,0,1-3.21-1.59A8.48,8.48,0,0,1,57.62,12a7,7,0,0,1-1-4,8,8,0,0,1,.64-3.25A7.14,7.14,0,0,1,59.1,2.25,8.82,8.82,0,0,1,62,.59,11.69,11.69,0,0,1,65.83,0a11.16,11.16,0,0,1,3.52.49A8.86,8.86,0,0,1,72.11,2a9.87,9.87,0,0,0-.64,1.53q-.25.81-.51,2h-.51a10.56,10.56,0,0,0-.57-1.3,5.32,5.32,0,0,0-1-1.29,5.6,5.6,0,0,0-1.47-1,4.65,4.65,0,0,0-2-.4A6.14,6.14,0,0,0,63.22,2,5.54,5.54,0,0,0,61.48,3a4.93,4.93,0,0,0-1.15,1.68,5.67,5.67,0,0,0-.4,2.12,4.59,4.59,0,0,0,1,3.14,8.46,8.46,0,0,0,2.48,1.93,23.94,23.94,0,0,0,3.2,1.4,17.52,17.52,0,0,1,3.21,1.51A8.11,8.11,0,0,1,72.3,17.1a6.27,6.27,0,0,1,1,3.73,9.89,9.89,0,0,1-.7,3.69,8.76,8.76,0,0,1-2,3,9,9,0,0,1-3.27,2,12.72,12.72,0,0,1-4.39.7,10.88,10.88,0,0,1-4.26-.7A11.29,11.29,0,0,1,55.9,28a9.71,9.71,0,0,0,.53-1.76c.1-.52.19-1.19.28-2h.51a8.37,8.37,0,0,0,.91,1.54"/><path class="cls-1" d="M104,29.7a7.51,7.51,0,0,0-1.13-.08h-2.24a7.51,7.51,0,0,0-1.13.08c-.2-.65-.47-1.44-.8-2.35s-.72-1.88-1.13-2.89l-1.25-3.05c-.43-1-.82-2-1.19-2.95l-2.76-.07-2.8,0-2.59,0-2.58.07q-1.37,3.3-2.46,6.3T80.28,29.7a15.45,15.45,0,0,0-3.14,0q3.44-7.43,6.7-14.77T90.42,0h.81l2.2,5.33c.8,1.9,1.6,3.83,2.42,5.79s1.64,3.89,2.46,5.81,1.59,3.71,2.32,5.37,1.37,3.13,2,4.43,1,2.29,1.42,3M85.2,16.51c.74,0,1.5,0,2.29,0s1.56,0,2.29,0l2.38,0,2.38-.06L89.83,5.73Z"/><path class="cls-1" d="M109.66,11.54c0-1.87,0-3.7-.11-5.49s-.15-3.63-.23-5.5l2.42.15c.79,0,1.59.06,2.42.06s1.62,0,2.41-.1,1.6-.11,2.42-.11a16.27,16.27,0,0,1,3.4.34A8.26,8.26,0,0,1,125.21,2a5.61,5.61,0,0,1,1.91,2.05,6.63,6.63,0,0,1,.7,3.19,6.58,6.58,0,0,1-.91,3.5,8.6,8.6,0,0,1-2.23,2.41,10.91,10.91,0,0,1-2.82,1.49,14.35,14.35,0,0,1-2.74.7c.34.42.81,1,1.4,1.78s1.26,1.61,2,2.53l2.3,2.88c.79,1,1.55,2,2.29,2.89s1.42,1.76,2.08,2.52,1.17,1.34,1.57,1.74a9.17,9.17,0,0,0-1.28-.08H127a8.11,8.11,0,0,0-1.23.08L123.81,27q-1.29-1.79-2.87-3.82t-3.2-4.05q-1.63-2-3-3.42h-1.61v3.1c0,1.87,0,3.7.1,5.51s.15,3.6.24,5.35c-.65-.06-1.35-.08-2.08-.08s-1.43,0-2.08.08c.08-1.75.16-3.53.23-5.35s.11-3.64.11-5.51ZM113.14,14a9.4,9.4,0,0,0,1.29.17c.47,0,1,0,1.55,0a13.27,13.27,0,0,0,2.74-.3,8,8,0,0,0,2.61-1,6.18,6.18,0,0,0,2-2,5.87,5.87,0,0,0,.78-3.16,5.5,5.5,0,0,0-.61-2.74,5,5,0,0,0-1.59-1.72,6,6,0,0,0-2.12-.86,11,11,0,0,0-2.25-.24c-1,0-1.81,0-2.46.07s-1.21.09-1.66.14c-.06,1.56-.11,3.1-.17,4.63s-.08,3.05-.08,4.58Z"/><path class="cls-1" d="M162.27,29.7a7.38,7.38,0,0,0-1.12-.08H158.9a7.38,7.38,0,0,0-1.12.08c-.2-.65-.47-1.44-.81-2.35s-.71-1.88-1.12-2.89-.83-2-1.26-3.05-.82-2-1.18-2.95l-2.76-.07-2.8,0-2.59,0-2.59.07q-1.35,3.3-2.46,6.3c-.73,2-1.29,3.64-1.65,4.94a13,13,0,0,0-1.57-.08,12.76,12.76,0,0,0-1.57.08q3.44-7.43,6.7-14.77T148.7,0h.8l2.21,5.33,2.42,5.79q1.23,2.93,2.46,5.81t2.31,5.37q1.08,2.47,1.95,4.43c.58,1.3,1.06,2.29,1.42,3M143.48,16.51c.73,0,1.5,0,2.29,0s1.55,0,2.29,0l2.38,0,2.37-.06L148.1,5.73Z"/><path class="cls-1" d="M188.83,6.05c-.07-1.8-.15-3.63-.23-5.5l1.06.15a8.72,8.72,0,0,0,1,.06,8.72,8.72,0,0,0,1-.06l1.06-.15c-.09,1.87-.17,3.7-.24,5.5s-.1,3.62-.1,5.49v7.3c0,1.87,0,3.7.1,5.52s.15,3.59.24,5.34c-.65-.06-1.35-.08-2.08-.08s-1.43,0-2.08.08c.08-1.75.16-3.53.23-5.34s.11-3.65.11-5.52V15L184.5,15c-1.42,0-2.9,0-4.43,0s-3,0-4.43,0L171.2,15v3.82c0,1.87,0,3.7.11,5.52s.15,3.59.23,5.34c-.65-.06-1.34-.08-2.08-.08s-1.43,0-2.08.08q.13-2.62.24-5.34c.07-1.82.1-3.65.1-5.52v-7.3c0-1.87,0-3.7-.1-5.49s-.15-3.63-.24-5.5l1.06.15a8.72,8.72,0,0,0,1,.06,8.72,8.72,0,0,0,1-.06l1.06-.15c-.08,1.87-.16,3.7-.23,5.5s-.11,3.62-.11,5.49V13l4.44.08c1.42,0,2.9,0,4.43,0s3,0,4.43,0l4.44-.08V11.54c0-1.87,0-3.7-.11-5.49"/><polygon class="cls-1" points="46.22 41.58 48.32 41.58 48.32 51.64 54.62 51.64 54.62 53.55 46.22 53.55 46.22 41.58"/><path class="cls-1" d="M60.21,47.6v0a6.13,6.13,0,0,1,6.27-6.19,6.07,6.07,0,0,1,6.24,6.15v0a6.26,6.26,0,0,1-12.51,0m10.31,0v0a4.1,4.1,0,0,0-4.07-4.26,4,4,0,0,0-4,4.22v0a4.09,4.09,0,0,0,4.07,4.24,4,4,0,0,0,4-4.21"/><polygon class="cls-1" points="79.89 41.58 81.84 41.58 88.25 49.86 88.25 41.58 90.32 41.58 90.32 53.55 88.56 53.55 81.96 45.03 81.96 53.55 79.89 53.55 79.89 41.58"/><path class="cls-1" d="M98,41.58h4.46c3.77,0,6.36,2.58,6.36,6v0c0,3.37-2.59,6-6.36,6H98Zm2.1,1.92v8.14h2.36a3.91,3.91,0,0,0,4.16-4v0a3.92,3.92,0,0,0-4.16-4.07Z"/><path class="cls-1" d="M115.48,47.6v0a6.26,6.26,0,0,1,12.52,0v0a6.26,6.26,0,0,1-12.52,0m10.31,0v0a4.1,4.1,0,0,0-4.07-4.26,4,4,0,0,0-4,4.22v0a4.09,4.09,0,0,0,4.07,4.24,4,4,0,0,0,4-4.21"/><polygon class="cls-1" points="135.16 41.58 137.12 41.58 143.53 49.86 143.53 41.58 145.6 41.58 145.6 53.55 143.84 53.55 137.23 45.03 137.23 53.55 135.16 53.55 135.16 41.58"/><polygon class="cls-1" points="196.74 1.29 195.49 1.29 195.49 0.65 198.68 0.65 198.68 1.29 197.43 1.29 197.43 4.59 196.74 4.59 196.74 1.29"/><polygon class="cls-1" points="199.41 0.65 200.15 0.65 201.34 2.51 202.54 0.65 203.28 0.65 203.28 4.59 202.59 4.59 202.59 1.77 201.34 3.62 201.32 3.62 200.09 1.78 200.09 4.59 199.41 4.59 199.41 0.65"/></g></g></svg>