<svg xmlns="http://www.w3.org/2000/svg" viewBox="0 0 182.18 64.06"><defs><style>.cls-1{fill:#636363;}</style></defs><g id="Layer_2" data-name="Layer 2"><g id="logos"><rect class="cls-1" x="128.57" y="24.01" width="5.89" height="26.14" rx="0.71"/><path class="cls-1" d="M145.17,29.5h-5.33a.7.7,0,0,1-.71-.71V24.72a.71.71,0,0,1,.71-.71H156.4a.71.71,0,0,1,.71.71v4.07a.71.71,0,0,1-.71.71h-5.34V49.44a.73.73,0,0,1-.7.71h-4.48a.73.73,0,0,1-.71-.71Z"/><path class="cls-1" d="M172.44,41.19,169.61,35h0l-2.8,6.16Zm-15.33,8,11.67-25.13a.79.79,0,0,1,.64-.41h.37a.79.79,0,0,1,.64.41L182.1,49.18a.66.66,0,0,1-.63,1h-4.14c-.67,0-1-.22-1.31-.93l-1.34-2.95H164.53l-1.34,3a1.39,1.39,0,0,1-1.34.9h-4.11a.66.66,0,0,1-.63-1"/><polygon class="cls-1" points="110.56 55.56 111.68 59.25 111.7 59.25 112.72 55.56 114.02 55.56 115.01 59.25 115.03 59.25 116.19 55.56 117.23 55.56 115.67 60.59 114.32 60.59 113.36 56.9 113.34 56.9 112.38 60.59 111.05 60.59 109.51 55.56 110.56 55.56"/><rect class="cls-1" x="120.25" y="55.56" width="1.01" height="5.03"/><polygon class="cls-1" points="126.15 55.56 126.15 59.58 129.04 59.58 129.04 60.59 125.14 60.59 125.14 55.56 126.15 55.56"/><path class="cls-1" d="M133.41,59.58h1.72a2,2,0,0,0,.61-.09,1.29,1.29,0,0,0,.48-.29,1.23,1.23,0,0,0,.32-.48,2,2,0,0,0,0-1.39,1.11,1.11,0,0,0-.35-.46,1.18,1.18,0,0,0-.49-.24,2.6,2.6,0,0,0-.56-.06h-1.72Zm1.72-4a3.39,3.39,0,0,1,.88.12,2.28,2.28,0,0,1,.83.4,2.26,2.26,0,0,1,.6.75,2.68,2.68,0,0,1,.23,1.17,3.23,3.23,0,0,1-.18,1.11,2.4,2.4,0,0,1-.52.81,2.25,2.25,0,0,1-.81.5,2.86,2.86,0,0,1-1,.17H132.4v-5Z"/><path class="cls-1" d="M144,58.34a1.13,1.13,0,0,1,1.13-1.13,1.11,1.11,0,0,1,1.13,1.13,1.09,1.09,0,0,1-1.13,1.13A1.11,1.11,0,0,1,144,58.34"/><path class="cls-1" d="M154.85,56.57v1h2.44l.27-.06a.5.5,0,0,0,.2-.15.36.36,0,0,0,.09-.26.41.41,0,0,0-.08-.27.43.43,0,0,0-.2-.15l-.25-.05h-2.47Zm2.19-1a3.08,3.08,0,0,1,.68.08,1.66,1.66,0,0,1,.58.24,1.19,1.19,0,0,1,.41.45,1.57,1.57,0,0,1,.15.72,1.58,1.58,0,0,1-.11.61,1.45,1.45,0,0,1-.28.43,1.22,1.22,0,0,1-.37.27,2.39,2.39,0,0,1-.37.17L159,60.59h-1.27l-1.27-2.05h-1.61v2.05h-1v-5Z"/><path class="cls-1" d="M163.44,58.52h1.94l-1-2Zm.29-3h1.34l2.46,5h-1.14l-.51-1.06h-2.94l-.5,1.06h-1.15Z"/><polygon class="cls-1" points="170.41 55.56 171.54 59.25 171.56 59.25 172.58 55.56 173.88 55.56 174.87 59.25 174.89 59.25 176.04 55.56 177.09 55.56 175.53 60.59 174.18 60.59 173.22 56.9 173.2 56.9 172.24 60.59 170.91 60.59 169.37 55.56 170.41 55.56"/><rect class="cls-1" x="128.57" y="24.01" width="5.89" height="26.14" rx="0.71"/><path class="cls-1" d="M145.17,29.5h-5.33a.7.7,0,0,1-.71-.71V24.72a.71.71,0,0,1,.71-.71H156.4a.71.71,0,0,1,.71.71v4.07a.71.71,0,0,1-.71.71h-5.34V49.44a.73.73,0,0,1-.7.71h-4.48a.73.73,0,0,1-.71-.71Z"/><path class="cls-1" d="M172.44,41.19,169.61,35h0l-2.8,6.16Zm-15.33,8,11.67-25.13a.79.79,0,0,1,.64-.41h.37a.79.79,0,0,1,.64.41L182.1,49.18a.66.66,0,0,1-.63,1h-4.14c-.67,0-1-.22-1.31-.93l-1.34-2.95H164.53l-1.34,3a1.39,1.39,0,0,1-1.34.9h-4.11a.66.66,0,0,1-.63-1"/><polygon class="cls-1" points="110.56 55.56 111.68 59.25 111.7 59.25 112.72 55.56 114.02 55.56 115.01 59.25 115.03 59.25 116.19 55.56 117.23 55.56 115.67 60.59 114.32 60.59 113.36 56.9 113.34 56.9 112.38 60.59 111.05 60.59 109.51 55.56 110.56 55.56"/><rect class="cls-1" x="120.25" y="55.56" width="1.01" height="5.03"/><polygon class="cls-1" points="126.15 55.56 126.15 59.58 129.04 59.58 129.04 60.59 125.14 60.59 125.14 55.56 126.15 55.56"/><path class="cls-1" d="M133.41,59.58h1.72a2,2,0,0,0,.61-.09,1.29,1.29,0,0,0,.48-.29,1.23,1.23,0,0,0,.32-.48,2,2,0,0,0,0-1.39,1.11,1.11,0,0,0-.35-.46,1.18,1.18,0,0,0-.49-.24,2.6,2.6,0,0,0-.56-.06h-1.72Zm1.72-4a3.39,3.39,0,0,1,.88.12,2.28,2.28,0,0,1,.83.4,2.26,2.26,0,0,1,.6.75,2.68,2.68,0,0,1,.23,1.17,3.23,3.23,0,0,1-.18,1.11,2.4,2.4,0,0,1-.52.81,2.25,2.25,0,0,1-.81.5,2.86,2.86,0,0,1-1,.17H132.4v-5Z"/><path class="cls-1" d="M144,58.34a1.13,1.13,0,0,1,1.13-1.13,1.11,1.11,0,0,1,1.13,1.13,1.09,1.09,0,0,1-1.13,1.13A1.11,1.11,0,0,1,144,58.34"/><path class="cls-1" d="M154.85,56.57v1h2.44l.27-.06a.5.5,0,0,0,.2-.15.36.36,0,0,0,.09-.26.41.41,0,0,0-.08-.27.43.43,0,0,0-.2-.15l-.25-.05h-2.47Zm2.19-1a3.08,3.08,0,0,1,.68.08,1.66,1.66,0,0,1,.58.24,1.19,1.19,0,0,1,.41.45,1.57,1.57,0,0,1,.15.72,1.58,1.58,0,0,1-.11.61,1.45,1.45,0,0,1-.28.43,1.22,1.22,0,0,1-.37.27,2.39,2.39,0,0,1-.37.17L159,60.59h-1.27l-1.27-2.05h-1.61v2.05h-1v-5Z"/><path class="cls-1" d="M163.44,58.52h1.94l-1-2Zm.29-3h1.34l2.46,5h-1.14l-.51-1.06h-2.94l-.5,1.06h-1.15Z"/><polygon class="cls-1" points="170.41 55.56 171.54 59.25 171.56 59.25 172.58 55.56 173.88 55.56 174.87 59.25 174.89 59.25 176.04 55.56 177.09 55.56 175.53 60.59 174.18 60.59 173.22 56.9 173.2 56.9 172.24 60.59 170.91 60.59 169.37 55.56 170.41 55.56"/><rect class="cls-1" x="128.57" y="24.01" width="5.89" height="26.14" rx="0.71"/><path class="cls-1" d="M145.17,29.5h-5.33a.7.7,0,0,1-.71-.71V24.72a.71.71,0,0,1,.71-.71H156.4a.71.71,0,0,1,.71.71v4.07a.71.71,0,0,1-.71.71h-5.34V49.44a.73.73,0,0,1-.7.71h-4.48a.73.73,0,0,1-.71-.71Z"/><path class="cls-1" d="M172.44,41.19,169.61,35h0l-2.8,6.16Zm-15.33,8,11.67-25.13a.79.79,0,0,1,.64-.41h.37a.79.79,0,0,1,.64.41L182.1,49.18a.66.66,0,0,1-.63,1h-4.14c-.67,0-1-.22-1.31-.93l-1.34-2.95H164.53l-1.34,3a1.39,1.39,0,0,1-1.34.9h-4.11a.66.66,0,0,1-.63-1"/><path class="cls-1" d="M25.58,57.94c-9.33,0-12.81-8-12.81-13S16.11,35.46,19.65,31l.08-.1c1.21-1.55,1.87-2.06,3-3.72,1.57-2.31,3.82-5.06,4-8.76,1.1.78,2.24,3.74,2.28,6.85a11.2,11.2,0,0,1-2.43,6.66c-.83,1.14-1.1,1.17-1.94,2.24-3.22,4.08-6.25,7.93-5.95,12.63.25,4,3.21,10.69,10.14,9.86,2.29-.27,4.12-2.07,5.64-3.23a11.2,11.2,0,0,1-8.87,4.55"/><path class="cls-1" d="M31.6,28.87c0,2.2-1.5,4.27-2.78,6C28,36,27.19,37.08,26.45,38c-2.61,3.31-4.86,6.16-4.66,9.15a6,6,0,0,0,9.38,4.75,5.87,5.87,0,0,1-1.29.39,3.11,3.11,0,0,1-.43,0,3.41,3.41,0,0,1-2.26-.88,4.39,4.39,0,0,1-1.46-3.24,6.93,6.93,0,0,1,.91-3.09l.17-.33a24.17,24.17,0,0,1,2-3l.62-.78c.81-1,1.6-2,2.18-2.63l.4-.47a1.93,1.93,0,0,0,.17-.21,5.72,5.72,0,0,0,1.18-3.06c.17-2-1-4-1.75-5.74"/><path class="cls-1" d="M25.08,4.1A4.1,4.1,0,1,1,21,0a4.11,4.11,0,0,1,4.1,4.1"/><path class="cls-1" d="M39.63,45.72c-1,5-3.4,14.29-15.18,14.29-11.14,0-15.3-9.13-15.3-14.89s3.7-10.29,7.28-14.66l0,0c1.16-1.42,2.36-2.88,3.39-4.34.38-.55.76-1.17,1.13-1.81h0v0c.31-.56.62-1.15.92-1.75A72.05,72.05,0,0,1,28,12.83h0C34.1,6.53,31.49,2.2,31.49,2.2,31,4.05,30.84,6.43,26,9a14.31,14.31,0,0,0-5.13,4.38c-.3-.56-1.37-1.7-5.09-3.61a12.17,12.17,0,0,1-5.38-5.08,8.88,8.88,0,0,1-.8-2.24v0A5.75,5.75,0,0,0,9.42,7.5c0,.09.07.16.1.24h0a.43.43,0,0,1,0,.07,6.25,6.25,0,0,0,.88,1.38C13.06,13,17,16.47,11,23.73,6.74,28.81,0,35.19,0,44.8,0,55.27,8.83,63.73,20.1,64.05h.78c11.33,0,18.85-6.26,18.85-16.58Z"/><path class="cls-1" d="M62.65,35.18a2.87,2.87,0,0,0,2.83-3,2.74,2.74,0,0,0-2.83-2.84H57.13v5.83ZM51.27,24.72A.71.71,0,0,1,52,24H63.13a8,8,0,0,1,2.61,15.57l5.11,9.49a.71.71,0,0,1-.63,1.08h-5a.7.7,0,0,1-.6-.34l-5-9.89H57.13v9.52a.74.74,0,0,1-.71.71H52a.71.71,0,0,1-.71-.71Z"/><path class="cls-1" d="M88.61,44.55a7.47,7.47,0,1,0-7.42-7.43,7.47,7.47,0,0,0,7.42,7.43m0-20.91A13.44,13.44,0,1,1,75.22,37.12,13.41,13.41,0,0,1,88.61,23.64"/><path class="cls-1" d="M106.22,47.65a.84.84,0,0,1-.15-1.12l1.72-3a.88.88,0,0,1,1.27-.22,9.52,9.52,0,0,0,5.29,2,2.34,2.34,0,0,0,2.58-2.24c0-1.57-1.38-2.57-3.84-3.77-3.62-1.75-7.24-3.77-7.24-8.25,0-3.7,2.87-7.43,8.62-7.43a13.87,13.87,0,0,1,8,2.8c.45.26.37.93.22,1.2l-1.9,2.87a1.15,1.15,0,0,1-1.64.26c-.86-.6-3.06-2-5-2a2,2,0,0,0-2.27,2c0,1.23,1.45,2.2,4.06,3.47,3.29,1.61,7.54,3.44,7.54,8.51,0,3.85-3.32,7.73-8.8,7.73-4.85,0-7.54-2-8.4-2.87"/><polygon class="cls-1" points="57.37 60.59 56.35 60.59 56.35 55.56 60.82 55.56 60.82 56.57 57.37 56.57 57.37 57.48 59.19 57.48 59.19 58.49 57.37 58.49 57.37 60.59"/><path class="cls-1" d="M65,56.57v1h2.45a1.22,1.22,0,0,0,.26-.06.62.62,0,0,0,.21-.15.4.4,0,0,0,.08-.26.41.41,0,0,0-.08-.27.4.4,0,0,0-.19-.15l-.26-.05H65Zm2.19-1a3,3,0,0,1,.68.08,1.58,1.58,0,0,1,.58.24,1.19,1.19,0,0,1,.41.45,1.57,1.57,0,0,1,.15.72,1.58,1.58,0,0,1-.11.61,1.43,1.43,0,0,1-.27.43,1.52,1.52,0,0,1-.37.27,3,3,0,0,1-.38.17l1.27,2.06H67.91l-1.27-2.05H65v2.05H64v-5Z"/><polygon class="cls-1" points="77.02 55.56 77.02 56.57 73.56 56.57 73.56 57.49 75.39 57.49 75.39 58.49 73.56 58.49 73.56 59.58 77.13 59.58 77.13 60.59 72.55 60.59 72.55 55.56 77.02 55.56"/><path class="cls-1" d="M80.43,59a4.38,4.38,0,0,0,1.29.6,5.15,5.15,0,0,0,1.3.17l.43,0a2,2,0,0,0,.44-.11.93.93,0,0,0,.35-.21.41.41,0,0,0,.14-.34.39.39,0,0,0-.07-.25.49.49,0,0,0-.19-.16,1.15,1.15,0,0,0-.5-.12l-1.5,0a2.73,2.73,0,0,1-.81-.14,1.78,1.78,0,0,1-.57-.35,1.17,1.17,0,0,1-.34-.48,1.33,1.33,0,0,1-.11-.56,1.4,1.4,0,0,1,.11-.56,1.29,1.29,0,0,1,.39-.49,2,2,0,0,1,.72-.36,5,5,0,0,1,2,0,5,5,0,0,1,.7.19,2.77,2.77,0,0,1,.51.22l.32.17-.45.89-.36-.17c-.15-.06-.31-.12-.48-.17a3.4,3.4,0,0,0-.59-.14,3.88,3.88,0,0,0-.7-.06l-.41,0a2.23,2.23,0,0,0-.39.09.78.78,0,0,0-.28.17.37.37,0,0,0-.11.28.32.32,0,0,0,.09.24.66.66,0,0,0,.23.15,1.23,1.23,0,0,0,.29.08l.28,0,1.31,0a2.36,2.36,0,0,1,1.38.41,1.38,1.38,0,0,1,.51,1.18,1.53,1.53,0,0,1-.13.64,1.41,1.41,0,0,1-.43.52,2.32,2.32,0,0,1-.74.36,3.73,3.73,0,0,1-1.07.13,5.9,5.9,0,0,1-1.78-.24A3.87,3.87,0,0,1,80,59.88Z"/><polygon class="cls-1" points="89.99 55.56 89.99 57.47 92.69 57.47 92.69 55.56 93.7 55.56 93.7 60.59 92.69 60.59 92.69 58.48 89.99 58.48 89.99 60.59 88.98 60.59 88.98 55.56 89.99 55.56"/><path class="cls-1" d="M100.66,58.34a1.11,1.11,0,0,1,1.13-1.13,1.13,1.13,0,0,1,1.13,1.13,1.11,1.11,0,0,1-1.13,1.13,1.09,1.09,0,0,1-1.13-1.13"/><path class="cls-1" d="M25.58,57.94c-9.33,0-12.81-8-12.81-13S16.11,35.46,19.65,31l.08-.1c1.21-1.55,1.87-2.06,3-3.72,1.57-2.31,3.82-5.06,4-8.76,1.1.78,2.24,3.74,2.28,6.85a11.2,11.2,0,0,1-2.43,6.66c-.83,1.14-1.1,1.17-1.94,2.24-3.22,4.08-6.25,7.93-5.95,12.63.25,4,3.21,10.69,10.14,9.86,2.29-.27,4.12-2.07,5.64-3.23a11.2,11.2,0,0,1-8.87,4.55"/><path class="cls-1" d="M31.6,28.87c0,2.2-1.5,4.27-2.78,6C28,36,27.19,37.08,26.45,38c-2.61,3.31-4.86,6.16-4.66,9.15a6,6,0,0,0,9.38,4.75,5.87,5.87,0,0,1-1.29.39,3.11,3.11,0,0,1-.43,0,3.41,3.41,0,0,1-2.26-.88,4.39,4.39,0,0,1-1.46-3.24,6.93,6.93,0,0,1,.91-3.09l.17-.33a24.17,24.17,0,0,1,2-3l.62-.78c.81-1,1.6-2,2.18-2.63l.4-.47a1.93,1.93,0,0,0,.17-.21,5.72,5.72,0,0,0,1.18-3.06c.17-2-1-4-1.75-5.74"/><path class="cls-1" d="M25.08,4.1A4.1,4.1,0,1,1,21,0a4.11,4.11,0,0,1,4.1,4.1"/><path class="cls-1" d="M39.63,45.72c-1,5-3.4,14.29-15.18,14.29-11.14,0-15.3-9.13-15.3-14.89s3.7-10.29,7.28-14.66l0,0c1.16-1.42,2.36-2.88,3.39-4.34.38-.55.76-1.17,1.13-1.81h0v0c.31-.56.62-1.15.92-1.75A72.05,72.05,0,0,1,28,12.83h0C34.1,6.53,31.49,2.2,31.49,2.2,31,4.05,30.84,6.43,26,9a14.31,14.31,0,0,0-5.13,4.38c-.3-.56-1.37-1.7-5.09-3.61a12.17,12.17,0,0,1-5.38-5.08,8.88,8.88,0,0,1-.8-2.24v0A5.75,5.75,0,0,0,9.42,7.5c0,.09.07.16.1.24h0a.43.43,0,0,1,0,.07,6.25,6.25,0,0,0,.88,1.38C13.06,13,17,16.47,11,23.73,6.74,28.81,0,35.19,0,44.8,0,55.27,8.83,63.73,20.1,64.05h.78c11.33,0,18.85-6.26,18.85-16.58Z"/><path class="cls-1" d="M62.65,35.18a2.87,2.87,0,0,0,2.83-3,2.74,2.74,0,0,0-2.83-2.84H57.13v5.83ZM51.27,24.72A.71.71,0,0,1,52,24H63.13a8,8,0,0,1,2.61,15.57l5.11,9.49a.71.71,0,0,1-.63,1.08h-5a.7.7,0,0,1-.6-.34l-5-9.89H57.13v9.52a.74.74,0,0,1-.71.71H52a.71.71,0,0,1-.71-.71Z"/><path class="cls-1" d="M88.61,44.55a7.47,7.47,0,1,0-7.42-7.43,7.47,7.47,0,0,0,7.42,7.43m0-20.91A13.44,13.44,0,1,1,75.22,37.12,13.41,13.41,0,0,1,88.61,23.64"/><path class="cls-1" d="M106.22,47.65a.84.84,0,0,1-.15-1.12l1.72-3a.88.88,0,0,1,1.27-.22,9.52,9.52,0,0,0,5.29,2,2.34,2.34,0,0,0,2.58-2.24c0-1.57-1.38-2.57-3.84-3.77-3.62-1.75-7.24-3.77-7.24-8.25,0-3.7,2.87-7.43,8.62-7.43a13.87,13.87,0,0,1,8,2.8c.45.26.37.93.22,1.2l-1.9,2.87a1.15,1.15,0,0,1-1.64.26c-.86-.6-3.06-2-5-2a2,2,0,0,0-2.27,2c0,1.23,1.45,2.2,4.06,3.47,3.29,1.61,7.54,3.44,7.54,8.51,0,3.85-3.32,7.73-8.8,7.73-4.85,0-7.54-2-8.4-2.87"/><polygon class="cls-1" points="57.37 60.59 56.35 60.59 56.35 55.56 60.82 55.56 60.82 56.57 57.37 56.57 57.37 57.48 59.19 57.48 59.19 58.49 57.37 58.49 57.37 60.59"/><path class="cls-1" d="M65,56.57v1h2.45a1.22,1.22,0,0,0,.26-.06.62.62,0,0,0,.21-.15.4.4,0,0,0,.08-.26.41.41,0,0,0-.08-.27.4.4,0,0,0-.19-.15l-.26-.05H65Zm2.19-1a3,3,0,0,1,.68.08,1.58,1.58,0,0,1,.58.24,1.19,1.19,0,0,1,.41.45,1.57,1.57,0,0,1,.15.72,1.58,1.58,0,0,1-.11.61,1.43,1.43,0,0,1-.27.43,1.52,1.52,0,0,1-.37.27,3,3,0,0,1-.38.17l1.27,2.06H67.91l-1.27-2.05H65v2.05H64v-5Z"/><polygon class="cls-1" points="77.02 55.56 77.02 56.57 73.56 56.57 73.56 57.49 75.39 57.49 75.39 58.49 73.56 58.49 73.56 59.58 77.13 59.58 77.13 60.59 72.55 60.59 72.55 55.56 77.02 55.56"/><path class="cls-1" d="M80.43,59a4.38,4.38,0,0,0,1.29.6,5.15,5.15,0,0,0,1.3.17l.43,0a2,2,0,0,0,.44-.11.93.93,0,0,0,.35-.21.41.41,0,0,0,.14-.34.39.39,0,0,0-.07-.25.49.49,0,0,0-.19-.16,1.15,1.15,0,0,0-.5-.12l-1.5,0a2.73,2.73,0,0,1-.81-.14,1.78,1.78,0,0,1-.57-.35,1.17,1.17,0,0,1-.34-.48,1.33,1.33,0,0,1-.11-.56,1.4,1.4,0,0,1,.11-.56,1.29,1.29,0,0,1,.39-.49,2,2,0,0,1,.72-.36,5,5,0,0,1,2,0,5,5,0,0,1,.7.19,2.77,2.77,0,0,1,.51.22l.32.17-.45.89-.36-.17c-.15-.06-.31-.12-.48-.17a3.4,3.4,0,0,0-.59-.14,3.88,3.88,0,0,0-.7-.06l-.41,0a2.23,2.23,0,0,0-.39.09.78.78,0,0,0-.28.17.37.37,0,0,0-.11.28.32.32,0,0,0,.09.24.66.66,0,0,0,.23.15,1.23,1.23,0,0,0,.29.08l.28,0,1.31,0a2.36,2.36,0,0,1,1.38.41,1.38,1.38,0,0,1,.51,1.18,1.53,1.53,0,0,1-.13.64,1.41,1.41,0,0,1-.43.52,2.32,2.32,0,0,1-.74.36,3.73,3.73,0,0,1-1.07.13,5.9,5.9,0,0,1-1.78-.24A3.87,3.87,0,0,1,80,59.88Z"/><polygon class="cls-1" points="89.99 55.56 89.99 57.47 92.69 57.47 92.69 55.56 93.7 55.56 93.7 60.59 92.69 60.59 92.69 58.48 89.99 58.48 89.99 60.59 88.98 60.59 88.98 55.56 89.99 55.56"/><path class="cls-1" d="M100.66,58.34a1.11,1.11,0,0,1,1.13-1.13,1.13,1.13,0,0,1,1.13,1.13,1.11,1.11,0,0,1-1.13,1.13,1.09,1.09,0,0,1-1.13-1.13"/><path class="cls-1" d="M25.58,57.94c-9.33,0-12.81-8-12.81-13S16.11,35.46,19.65,31l.08-.1c1.21-1.55,1.87-2.06,3-3.72,1.57-2.31,3.82-5.06,4-8.76,1.1.78,2.24,3.74,2.28,6.85a11.2,11.2,0,0,1-2.43,6.66c-.83,1.14-1.1,1.17-1.94,2.24-3.22,4.08-6.25,7.93-5.95,12.63.25,4,3.21,10.69,10.14,9.86,2.29-.27,4.12-2.07,5.64-3.23a11.2,11.2,0,0,1-8.87,4.55"/><path class="cls-1" d="M31.6,28.87c0,2.2-1.5,4.27-2.78,6C28,36,27.19,37.08,26.45,38c-2.61,3.31-4.86,6.16-4.66,9.15a6,6,0,0,0,9.38,4.75,5.87,5.87,0,0,1-1.29.39,3.11,3.11,0,0,1-.43,0,3.41,3.41,0,0,1-2.26-.88,4.39,4.39,0,0,1-1.46-3.24,6.93,6.93,0,0,1,.91-3.09l.17-.33a24.17,24.17,0,0,1,2-3l.62-.78c.81-1,1.6-2,2.18-2.63l.4-.47a1.93,1.93,0,0,0,.17-.21,5.72,5.72,0,0,0,1.18-3.06c.17-2-1-4-1.75-5.74"/><path class="cls-1" d="M25.08,4.1A4.1,4.1,0,1,1,21,0a4.11,4.11,0,0,1,4.1,4.1"/><path class="cls-1" d="M39.63,45.72c-1,5-3.4,14.29-15.18,14.29-11.14,0-15.3-9.13-15.3-14.89s3.7-10.29,7.28-14.66l0,0c1.16-1.42,2.36-2.88,3.39-4.34.38-.55.76-1.17,1.13-1.81h0v0c.31-.56.62-1.15.92-1.75A72.05,72.05,0,0,1,28,12.83h0C34.1,6.53,31.49,2.2,31.49,2.2,31,4.05,30.84,6.43,26,9a14.31,14.31,0,0,0-5.13,4.38c-.3-.56-1.37-1.7-5.09-3.61a12.17,12.17,0,0,1-5.38-5.08,8.88,8.88,0,0,1-.8-2.24v0A5.75,5.75,0,0,0,9.42,7.5c0,.09.07.16.1.24h0a.43.43,0,0,1,0,.07,6.25,6.25,0,0,0,.88,1.38C13.06,13,17,16.47,11,23.73,6.74,28.81,0,35.19,0,44.8,0,55.27,8.83,63.73,20.1,64.05h.78c11.33,0,18.85-6.26,18.85-16.58Z"/><path class="cls-1" d="M62.65,35.18a2.87,2.87,0,0,0,2.83-3,2.74,2.74,0,0,0-2.83-2.84H57.13v5.83ZM51.27,24.72A.71.71,0,0,1,52,24H63.13a8,8,0,0,1,2.61,15.57l5.11,9.49a.71.71,0,0,1-.63,1.08h-5a.7.7,0,0,1-.6-.34l-5-9.89H57.13v9.52a.74.74,0,0,1-.71.71H52a.71.71,0,0,1-.71-.71Z"/><path class="cls-1" d="M88.61,44.55a7.47,7.47,0,1,0-7.42-7.43,7.47,7.47,0,0,0,7.42,7.43m0-20.91A13.44,13.44,0,1,1,75.22,37.12,13.41,13.41,0,0,1,88.61,23.64"/><path class="cls-1" d="M106.22,47.65a.84.84,0,0,1-.15-1.12l1.72-3a.88.88,0,0,1,1.27-.22,9.52,9.52,0,0,0,5.29,2,2.34,2.34,0,0,0,2.58-2.24c0-1.57-1.38-2.57-3.84-3.77-3.62-1.75-7.24-3.77-7.24-8.25,0-3.7,2.87-7.43,8.62-7.43a13.87,13.87,0,0,1,8,2.8c.45.26.37.93.22,1.2l-1.9,2.87a1.15,1.15,0,0,1-1.64.26c-.86-.6-3.06-2-5-2a2,2,0,0,0-2.27,2c0,1.23,1.45,2.2,4.06,3.47,3.29,1.61,7.54,3.44,7.54,8.51,0,3.85-3.32,7.73-8.8,7.73-4.85,0-7.54-2-8.4-2.87"/><polygon class="cls-1" points="57.37 60.59 56.35 60.59 56.35 55.56 60.82 55.56 60.82 56.57 57.37 56.57 57.37 57.48 59.19 57.48 59.19 58.49 57.37 58.49 57.37 60.59"/><path class="cls-1" d="M65,56.57v1h2.45a1.22,1.22,0,0,0,.26-.06.62.62,0,0,0,.21-.15.4.4,0,0,0,.08-.26.41.41,0,0,0-.08-.27.4.4,0,0,0-.19-.15l-.26-.05H65Zm2.19-1a3,3,0,0,1,.68.08,1.58,1.58,0,0,1,.58.24,1.19,1.19,0,0,1,.41.45,1.57,1.57,0,0,1,.15.72,1.58,1.58,0,0,1-.11.61,1.43,1.43,0,0,1-.27.43,1.52,1.52,0,0,1-.37.27,3,3,0,0,1-.38.17l1.27,2.06H67.91l-1.27-2.05H65v2.05H64v-5Z"/><polygon class="cls-1" points="77.02 55.56 77.02 56.57 73.56 56.57 73.56 57.49 75.39 57.49 75.39 58.49 73.56 58.49 73.56 59.58 77.13 59.58 77.13 60.59 72.55 60.59 72.55 55.56 77.02 55.56"/><path class="cls-1" d="M80.43,59a4.38,4.38,0,0,0,1.29.6,5.15,5.15,0,0,0,1.3.17l.43,0a2,2,0,0,0,.44-.11.93.93,0,0,0,.35-.21.41.41,0,0,0,.14-.34.39.39,0,0,0-.07-.25.49.49,0,0,0-.19-.16,1.15,1.15,0,0,0-.5-.12l-1.5,0a2.73,2.73,0,0,1-.81-.14,1.78,1.78,0,0,1-.57-.35,1.17,1.17,0,0,1-.34-.48,1.33,1.33,0,0,1-.11-.56,1.4,1.4,0,0,1,.11-.56,1.29,1.29,0,0,1,.39-.49,2,2,0,0,1,.72-.36,5,5,0,0,1,2,0,5,5,0,0,1,.7.19,2.77,2.77,0,0,1,.51.22l.32.17-.45.89-.36-.17c-.15-.06-.31-.12-.48-.17a3.4,3.4,0,0,0-.59-.14,3.88,3.88,0,0,0-.7-.06l-.41,0a2.23,2.23,0,0,0-.39.09.78.78,0,0,0-.28.17.37.37,0,0,0-.11.28.32.32,0,0,0,.09.24.66.66,0,0,0,.23.15,1.23,1.23,0,0,0,.29.08l.28,0,1.31,0a2.36,2.36,0,0,1,1.38.41,1.38,1.38,0,0,1,.51,1.18,1.53,1.53,0,0,1-.13.64,1.41,1.41,0,0,1-.43.52,2.32,2.32,0,0,1-.74.36,3.73,3.73,0,0,1-1.07.13,5.9,5.9,0,0,1-1.78-.24A3.87,3.87,0,0,1,80,59.88Z"/><polygon class="cls-1" points="89.99 55.56 89.99 57.47 92.69 57.47 92.69 55.56 93.7 55.56 93.7 60.59 92.69 60.59 92.69 58.48 89.99 58.48 89.99 60.59 88.98 60.59 88.98 55.56 89.99 55.56"/><path class="cls-1" d="M100.66,58.34a1.11,1.11,0,0,1,1.13-1.13,1.13,1.13,0,0,1,1.13,1.13,1.11,1.11,0,0,1-1.13,1.13,1.09,1.09,0,0,1-1.13-1.13"/><polygon class="cls-1" points="110.56 55.56 111.68 59.25 111.7 59.25 112.72 55.56 114.02 55.56 115.01 59.25 115.03 59.25 116.19 55.56 117.23 55.56 115.67 60.59 114.32 60.59 113.36 56.9 113.34 56.9 112.38 60.59 111.05 60.59 109.51 55.56 110.56 55.56"/><rect class="cls-1" x="120.25" y="55.56" width="1.01" height="5.03"/><polygon class="cls-1" points="126.15 55.56 126.15 59.58 129.04 59.58 129.04 60.59 125.14 60.59 125.14 55.56 126.15 55.56"/><path class="cls-1" d="M133.41,59.58h1.72a2,2,0,0,0,.61-.09,1.29,1.29,0,0,0,.48-.29,1.23,1.23,0,0,0,.32-.48,2,2,0,0,0,0-1.39,1.11,1.11,0,0,0-.35-.46,1.18,1.18,0,0,0-.49-.24,2.6,2.6,0,0,0-.56-.06h-1.72Zm1.72-4a3.39,3.39,0,0,1,.88.12,2.28,2.28,0,0,1,.83.4,2.26,2.26,0,0,1,.6.75,2.68,2.68,0,0,1,.23,1.17,3.23,3.23,0,0,1-.18,1.11,2.4,2.4,0,0,1-.52.81,2.25,2.25,0,0,1-.81.5,2.86,2.86,0,0,1-1,.17H132.4v-5Z"/><path class="cls-1" d="M144,58.34a1.13,1.13,0,0,1,1.13-1.13,1.11,1.11,0,0,1,1.13,1.13,1.09,1.09,0,0,1-1.13,1.13A1.11,1.11,0,0,1,144,58.34"/><path class="cls-1" d="M154.85,56.57v1h2.44l.27-.06a.5.5,0,0,0,.2-.15.36.36,0,0,0,.09-.26.41.41,0,0,0-.08-.27.43.43,0,0,0-.2-.15l-.25-.05h-2.47Zm2.19-1a3.08,3.08,0,0,1,.68.08,1.66,1.66,0,0,1,.58.24,1.19,1.19,0,0,1,.41.45,1.57,1.57,0,0,1,.15.72,1.58,1.58,0,0,1-.11.61,1.45,1.45,0,0,1-.28.43,1.22,1.22,0,0,1-.37.27,2.39,2.39,0,0,1-.37.17L159,60.59h-1.27l-1.27-2.05h-1.61v2.05h-1v-5Z"/><path class="cls-1" d="M163.44,58.52h1.94l-1-2Zm.29-3h1.34l2.46,5h-1.14l-.51-1.06h-2.94l-.5,1.06h-1.15Z"/><polygon class="cls-1" points="170.41 55.56 171.54 59.25 171.56 59.25 172.58 55.56 173.88 55.56 174.87 59.25 174.89 59.25 176.04 55.56 177.09 55.56 175.53 60.59 174.18 60.59 173.22 56.9 173.2 56.9 172.24 60.59 170.91 60.59 169.37 55.56 170.41 55.56"/></g></g></svg>