<svg xmlns="http://www.w3.org/2000/svg" viewBox="0 0 214.51 135.36"><defs><style>.cls-1{fill:#1d1e1c;}</style></defs><title>S&amp;amp;S icon</title><g id="Layer_2" data-name="Layer 2"><g id="Layer_1-2" data-name="Layer 1"><path class="cls-1" d="M177.15,120.26c-.12.15-4.86,5.4-14.42,5.4-7.33,0-14.84-2.72-21.85-7.61,10.23-10.8,15.6-24.31,15.6-36.4,0-12.44-7.2-25.09-22.38-25.09a24,24,0,0,0-11.31,2.78c9.91-12.63,24.42-17,30.26-18.26.55.27,1,.17.85-.28a8.87,8.87,0,0,0-4-4.39,2.78,2.78,0,0,0-1.57-.15,81.4,81.4,0,0,0-19.23-9.47c5.21-6.5,8.67-12.66,8.67-18.78,0-5.35-3.1-7.93-7.15-7.93-5.74,0-14.91,7.3-19.79,23.63-.53,0-1.06,0-1.59,0-30.93,0-60.52,24.93-60.52,58.11,0,16.83,11.17,33.46,26.42,38.61,6.13,9.75,17.26,14.88,29.55,14.88,13.13,0,24.45-5.69,33.1-14,7.6,6.59,15.69,10.34,23.05,10.34,11.3,0,17-9.73,17.31-10.79C178.37,120,177.66,119.62,177.15,120.26ZM134.1,58.54c13.39,0,20.06,11.13,20.06,23.41s-6,25.07-15.28,34.63c-12.42-9.53-23-25.94-27.56-46C118.15,62.55,126,58.54,134.1,58.54Zm11.69-21.71c-12.68,3.64-25.91,13.42-35.68,27.6a99.56,99.56,0,0,1-1.27-15.54c6.92-7.52,13.89-14.37,19.26-20.87A73.3,73.3,0,0,1,145.79,36.83Zm-36.12.28a80.38,80.38,0,0,1,2.62-11.85,65,65,0,0,1,8.34.92C117.37,29.62,113.63,33.26,109.67,37.11ZM128.23,3.19c2.46,0,3.67,1.47,3.67,4.4,0,5-4.06,10.79-10.08,17.31a64.42,64.42,0,0,0-9.07-1.12C116.68,11.67,122.92,3.19,128.23,3.19ZM50.56,81.61C50.56,49,80,25.17,108.83,25.17c.54,0,1,0,1.57,0A80.51,80.51,0,0,0,108,38.76c-17.35,17-37.8,37.86-37.8,63.15A35.29,35.29,0,0,0,73.76,118C60,112.59,50.56,97.77,50.56,81.61Zm55.82,49.9a23.75,23.75,0,0,1-19-9.54c9.43-.88,22.25-8.4,24.94-16.47.45-1.33-.69-1.55-1.1-.37-2.19,6.39-13.86,15-25.08,15.1a29.41,29.41,0,0,1-4.63-16c0-22,12.71-39.21,26.05-53.9A105.83,105.83,0,0,0,109,66.12,85.59,85.59,0,0,0,98.1,90.4c-.33,1.22.87,1.81,1.41.57a79.69,79.69,0,0,1,10.62-19c4.53,20,14.44,36.87,25.7,47.48C127.6,126.76,117.3,131.51,106.38,131.51Z"/><path class="cls-1" d="M104.69,135.36a39,39,0,0,1-17.12-3.79,30.18,30.18,0,0,1-12.48-11.11,38.27,38.27,0,0,1-19-14.94,42.79,42.79,0,0,1-7.5-23.73c0-15.69,6.64-30.45,18.69-41.55A62.67,62.67,0,0,1,109.24,23.6c.47,0,.93,0,1.39,0h.14c2.8-9.34,6.75-14.9,9.57-17.91C123.75,2.08,127.49,0,130.62,0c4.45,0,7.22,3.07,7.22,8,0,5.49-2.65,11.28-8.61,18.74a81.41,81.41,0,0,1,19.1,9.51c2.83-.64,7.1,6,4.66,4.79-5.73,1.26-20,5.67-29.9,18a24.17,24.17,0,0,1,11-2.6c7,0,12.89,2.74,16.94,7.91a28,28,0,0,1,5.52,17.26,49,49,0,0,1-4,18.71A59.09,59.09,0,0,1,141,118c7.11,4.94,14.62,7.55,21.73,7.55,9.59,0,14.32-5.32,14.36-5.37a.7.7,0,0,1,.86-.29.73.73,0,0,1,.27.91c-.29,1.11-6.06,10.85-17.38,10.85-7.28,0-15.24-3.57-23-10.32C131.13,127.76,120,135.36,104.69,135.36Zm4.55-111.6A62.53,62.53,0,0,0,67.43,40.35c-12,11.07-18.64,25.79-18.64,41.44a42.56,42.56,0,0,0,7.48,23.64,38.14,38.14,0,0,0,18.89,14.9h0v0a30.11,30.11,0,0,0,12.44,11.07,38.78,38.78,0,0,0,17,3.77c15.29,0,26.41-7.61,33.05-14l0,0,.05,0c7.79,6.75,15.74,10.32,23,10.32,11.23,0,16.94-9.64,17.24-10.73a.62.62,0,0,0-.2-.74c-.2-.1-.46,0-.67.25h0c0,.06-4.82,5.44-14.48,5.44-7.17,0-14.74-2.64-21.89-7.63l-.08,0,.07-.07a58.67,58.67,0,0,0,11.61-17.69,48.74,48.74,0,0,0,4-18.65,27.78,27.78,0,0,0-5.48-17.16c-4-5.14-9.84-7.85-16.82-7.85a23.65,23.65,0,0,0-11.27,2.77l-.35.2.25-.32c9.93-12.65,24.43-17,30.21-18.25h0l0,0a14.34,14.34,0,0,0,6.38,1.76c4.4,0,6.4-1.71,6.4-3.3,0-1-.83-2.08-2.27-2.83a16,16,0,0,0-7.1-1.35,37.5,37.5,0,0,0-8.24,1h0l0,0a80.17,80.17,0,0,0-19-9.43l-.11,0,.07-.09c6-7.47,8.65-13.25,8.65-18.73,0-4.92-2.64-7.86-7.07-7.86-3.09,0-6.79,2.07-10.16,5.67-2.82,3-6.77,8.56-9.56,17.91l0,.06h-.26Zm-2.86,107.83A23.68,23.68,0,0,1,87.31,122l-.09-.11h.14a36.08,36.08,0,0,0,15-5.53c5.14-3.27,8.66-7.13,9.91-10.89.2-.61.06-1-.16-1s-.6.14-.8.71c-1.1,3.22-4.54,6.93-9.18,9.92a31,31,0,0,1-16,5.22h0l0,0a29.36,29.36,0,0,1-4.64-16.06c0-22.24,13.18-39.76,26.07-54l.13-.14v.2a105.1,105.1,0,0,0,1.43,15.8v0l0,0A86.12,86.12,0,0,0,98.17,90.42c-.16.6.07,1,.38,1.13s.63,0,.89-.61a79.48,79.48,0,0,1,10.63-19l.1-.12,0,.15c4.24,18.78,13.6,36.07,25.67,47.45l.06,0-.06.06C127.09,127.31,116.62,131.59,106.38,131.59ZM87.51,122a23.55,23.55,0,0,0,18.87,9.4c10.18,0,20.59-4.25,29.34-12-12-11.37-21.37-28.6-25.63-47.3A78.94,78.94,0,0,0,99.59,91c-.31.69-.78.81-1.1.7A1,1,0,0,1,98,90.38,86.26,86.26,0,0,1,108.89,66.1a106.3,106.3,0,0,1-1.42-15.6c-12.83,14.15-25.9,31.59-25.9,53.71a29.22,29.22,0,0,0,4.6,15.94A30.84,30.84,0,0,0,102,115c4.62-3,8-6.65,9.13-9.84.23-.67.67-.91,1-.8s.49.51.25,1.22c-1.26,3.79-4.8,7.68-10,11A36.39,36.39,0,0,1,87.51,122Zm-13.59-3.93-.19-.07a35.37,35.37,0,0,1-16.8-14.17A41.34,41.34,0,0,1,50.48,81.6c0-15.29,6.52-29.68,18.35-40.5,11.11-10.18,25.7-16,40-16l1.14,0h.53l0,.1a80.32,80.32,0,0,0-2.41,13.55v0h0c-8.91,8.71-18.22,18.07-25.4,28.44-8.33,12-12.38,23.36-12.38,34.66a35.18,35.18,0,0,0,3.57,16Zm34.91-92.87c-14.27,0-28.81,5.82-39.9,16C57.13,52,50.63,66.35,50.63,81.6a41.25,41.25,0,0,0,6.43,22.19,35.2,35.2,0,0,0,16.54,14,35.43,35.43,0,0,1-3.5-15.91c0-11.33,4.06-22.7,12.41-34.75C89.7,56.79,99,47.43,107.91,38.72a80.33,80.33,0,0,1,2.39-13.45H110Zm30.06,91.45-.06,0c-13.13-10.08-23.19-26.87-27.58-46.06v0l0,0c6.72-7.88,14.62-12,22.84-12,13.91,0,20.13,11.79,20.13,23.47,0,11.88-5.72,24.85-15.29,34.7ZM111.4,70.58c4.39,19.11,14.4,35.84,27.47,45.9,9.53-9.81,15.21-22.72,15.21-34.54,0-11.61-6.18-23.32-20-23.32C125.94,58.62,118.09,62.75,111.4,70.58Zm-1.34-6,0-.19a100.28,100.28,0,0,1-1.27-15.55v0l0,0c2.44-2.66,4.89-5.24,7.27-7.73,4.38-4.6,8.51-8.94,12-13.14l0,0,0,0c7.17,2.29,12.47,5.48,17.7,8.82l.14.09-.16,0c-13.18,3.78-26.18,13.83-35.64,27.56Zm-1.14-15.71a99.62,99.62,0,0,0,1.23,15.3c9.44-13.62,22.34-23.6,35.45-27.42-5.16-3.29-10.4-6.43-17.47-8.69-3.47,4.19-7.59,8.52-12,13.11C113.8,43.7,111.35,46.27,108.92,48.92Zm.64-11.59,0-.23a78.84,78.84,0,0,1,2.62-11.86v-.06h.06a65.81,65.81,0,0,1,8.35.93l.14,0-.1.1c-3.17,3.36-6.81,6.9-10.66,10.65Zm2.79-12a79.91,79.91,0,0,0-2.57,11.56l.13-.13c3.81-3.71,7.41-7.22,10.56-10.54A64.44,64.44,0,0,0,112.35,25.34Zm9.5-.35h0a64.59,64.59,0,0,0-9.07-1.12h-.1l0-.09c4-12.35,10.27-20.65,15.56-20.65,2.48,0,3.74,1.51,3.74,4.48,0,4.45-3.11,9.8-10.09,17.36Zm-9-1.28a64.38,64.38,0,0,1,9,1.11c6.93-7.52,10-12.83,10-17.23,0-2.91-1.17-4.32-3.59-4.32C123,3.27,116.85,11.48,112.85,23.71Z"/><path class="cls-1" d="M209.85,83.6c-2.6-2.52-4.19-3.45-13.77-7.64-10.71-4.65-12.94-6.88-12.94-12.75,0-6.23,4.56-10.61,11.08-10.61,3.81,0,7.72,1.21,9.95,3.08,2.05,1.58,3.51,3.73,5,8.29v0a1,1,0,0,0,2-.31c0-.37-.25-1.37-.35-2.52s-.27-4.66-.27-6.05c0,0,0-3,.19-4.29h0a.73.73,0,0,0-.73-.73.68.68,0,0,0-.54.25s0,0,0,0a1.13,1.13,0,0,1-1,.4,11.56,11.56,0,0,1-2.33-.28,93.83,93.83,0,0,0-11-.83c-11.73,0-19.36,6.42-19.36,16.19a12.86,12.86,0,0,0,4.09,9.86c2.8,2.52,2.89,2.61,12.75,7.08C204,87.88,206.32,90.2,206.32,96c0,6.43-5.12,11.17-12.2,11.17-5.49,0-11.07-1.86-14-4.56a18.07,18.07,0,0,1-4.9-9.08v0a1,1,0,0,0-2.07.18s0,.07,0,.1v0c0,3.07,1.11,14.29,1.67,16h0a.83.83,0,0,0,.09.16s0,0,0,0a.71.71,0,0,0,.57.29l.11,0h0c.23,0,.4-.18.7-.44a2.75,2.75,0,0,1,1.65-.49,6.64,6.64,0,0,1,1.21.1,76.54,76.54,0,0,0,13.12,1.3c14.06,0,22.16-5.86,22.16-16.1A14.62,14.62,0,0,0,209.85,83.6Z"/><path class="cls-1" d="M36.67,83.6C34.06,81.08,32.48,80.15,22.9,76,12.19,71.31,10,69.08,10,63.21,10,57,14.52,52.6,21,52.6c3.82,0,7.73,1.21,10,3.08C33,57.26,34.5,59.41,36,64v0a1,1,0,0,0,1,.73,1,1,0,0,0,1-1c0-.37-.25-1.37-.36-2.52s-.27-4.66-.27-6.05c0,0,0-3,.2-4.29h0a.73.73,0,0,0-.73-.73.71.71,0,0,0-.55.25h0c-.11.13-.29.4-1,.4A11.57,11.57,0,0,1,33,50.46a94.15,94.15,0,0,0-11-.83c-11.72,0-19.35,6.42-19.35,16.19A12.83,12.83,0,0,0,6.7,75.68c2.79,2.52,2.89,2.61,12.75,7.08C30.81,87.88,33.13,90.2,33.13,96c0,6.43-5.12,11.17-12.19,11.17-5.49,0-11.07-1.86-14-4.56A18.16,18.16,0,0,1,2.07,93.5v0A1,1,0,0,0,0,93.66s0,.07,0,.1v0c0,3.07,1.11,14.29,1.67,16h0a.86.86,0,0,0,.1.16v0a.74.74,0,0,0,.57.29l.12,0h0c.22,0,.4-.18.7-.44a2.75,2.75,0,0,1,1.65-.49,6.64,6.64,0,0,1,1.21.1,76.44,76.44,0,0,0,13.12,1.3c14.06,0,22.15-5.86,22.15-16.1A14.65,14.65,0,0,0,36.67,83.6Z"/></g></g></svg>