<svg xmlns="http://www.w3.org/2000/svg" viewBox="0 0 61.54 38.83"><defs><style>.cls-1{fill:#1d1d1b;}</style></defs><g id="Layer_2" data-name="Layer 2"><g id="Layer_1-2" data-name="Layer 1"><path class="cls-1" d="M50.82,34.5a5.62,5.62,0,0,1-4.14,1.55,11.07,11.07,0,0,1-6.26-2.18,15.65,15.65,0,0,0,4.47-10.44c0-3.57-2.06-7.2-6.42-7.2a6.86,6.86,0,0,0-3.24.79,15.53,15.53,0,0,1,8.68-5.24c.16.08.27.05.24-.07A2.47,2.47,0,0,0,43,10.45a.69.69,0,0,0-.44,0A23.41,23.41,0,0,0,37,7.69c1.49-1.87,2.48-3.64,2.48-5.39A2,2,0,0,0,37.47,0C35.83,0,33.2,2.12,31.8,6.8h-.46C22.47,6.79,14,13.94,14,23.47c0,4.82,3.2,9.59,7.58,11.07A9.71,9.71,0,0,0,30,38.81a13.62,13.62,0,0,0,9.5-4,10.55,10.55,0,0,0,6.61,3,5.74,5.74,0,0,0,5-3.09C51.17,34.43,51,34.32,50.82,34.5ZM38.47,16.8c3.84,0,5.76,3.19,5.76,6.71a14.84,14.84,0,0,1-4.39,9.94,23.29,23.29,0,0,1-7.9-13.21C33.9,17.94,36.13,16.8,38.47,16.8Zm3.36-6.23a19.68,19.68,0,0,0-10.24,7.91A28,28,0,0,1,31.23,14c2-2.16,4-4.13,5.52-6A21.05,21.05,0,0,1,41.83,10.57Zm-10.37.08a23.92,23.92,0,0,1,.75-3.4,19,19,0,0,1,2.4.26C33.67,8.5,32.6,9.54,31.46,10.65ZM36.79.92q1.05,0,1.05,1.26c0,1.44-1.16,3.09-2.89,5a18.66,18.66,0,0,0-2.6-.32C33.48,3.35,35.26.92,36.79.92ZM14.5,23.41C14.5,14.05,23,7.22,31.22,7.22h.45A23.65,23.65,0,0,0,31,11.12C26,16,20.13,22,20.13,29.24a10.13,10.13,0,0,0,1,4.6A11.14,11.14,0,0,1,14.5,23.41Zm16,14.32A6.79,6.79,0,0,1,25.07,35c2.7-.25,6.38-2.41,7.15-4.72.13-.39-.2-.45-.31-.11-.63,1.83-4,4.29-7.2,4.33a8.46,8.46,0,0,1-1.33-4.59c0-6.31,3.65-11.25,7.47-15.47A31.92,31.92,0,0,0,31.26,19a24.78,24.78,0,0,0-3.12,7c-.09.35.25.51.41.16a22.82,22.82,0,0,1,3.05-5.44A27.19,27.19,0,0,0,39,34.28,12.89,12.89,0,0,1,30.52,37.73Z"/><path class="cls-1" d="M30,38.83a11.22,11.22,0,0,1-4.91-1.08,8.73,8.73,0,0,1-3.58-3.19,10.93,10.93,0,0,1-5.43-4.29A12.23,12.23,0,0,1,14,23.47a16.12,16.12,0,0,1,5.37-11.93,18,18,0,0,1,12-4.77h.44a12.76,12.76,0,0,1,2.75-5.14A4.44,4.44,0,0,1,37.47,0a2,2,0,0,1,2.08,2.3c0,1.57-.77,3.23-2.47,5.37a24.09,24.09,0,0,1,5.48,2.73c.81-.18,2,1.72,1.33,1.38A15.62,15.62,0,0,0,35.31,17a7,7,0,0,1,3.16-.75,5.94,5.94,0,0,1,4.86,2.27,8.05,8.05,0,0,1,1.58,5,14.1,14.1,0,0,1-1.13,5.36,16.81,16.81,0,0,1-3.33,5.07A11.07,11.07,0,0,0,46.69,36a5.68,5.68,0,0,0,4.12-1.54c.07-.09.16-.13.24-.09a.23.23,0,0,1,.08.27,5.77,5.77,0,0,1-5,3.11c-2.08,0-4.37-1-6.61-3A13.71,13.71,0,0,1,30,38.83Zm1.31-32a17.9,17.9,0,0,0-12,4.76A16.05,16.05,0,0,0,14,23.47a12.22,12.22,0,0,0,2.14,6.78,11,11,0,0,0,5.42,4.27h0a8.68,8.68,0,0,0,3.57,3.18A11.24,11.24,0,0,0,30,38.79a13.68,13.68,0,0,0,9.49-4h0a10.41,10.41,0,0,0,6.59,3,5.7,5.7,0,0,0,5-3.08.19.19,0,0,0-.06-.21c-.06,0-.13,0-.19.07h0a5.63,5.63,0,0,1-4.15,1.56,11.1,11.1,0,0,1-6.29-2.19h0l0,0a17,17,0,0,0,3.34-5.07,14,14,0,0,0,1.13-5.35A8,8,0,0,0,43.3,18.5a5.92,5.92,0,0,0-4.83-2.25,6.83,6.83,0,0,0-3.23.79l-.1.06.07-.09a15.54,15.54,0,0,1,8.67-5.24h0a4.18,4.18,0,0,0,1.83.5c1.26,0,1.84-.49,1.84-.95,0-.3-.24-.59-.65-.81a4.64,4.64,0,0,0-2-.38,11,11,0,0,0-2.37.27h0A22.75,22.75,0,0,0,37,7.71h0l0,0c1.72-2.14,2.48-3.8,2.48-5.37a2,2,0,0,0-2-2.26,4.43,4.43,0,0,0-2.91,1.63,12.7,12.7,0,0,0-2.74,5.14h-.48Zm-.82,30.93A6.78,6.78,0,0,1,25.05,35l0,0h0a10.31,10.31,0,0,0,4.3-1.59,6.53,6.53,0,0,0,2.84-3.12c.06-.17,0-.27-.05-.29s-.17,0-.22.2A6.49,6.49,0,0,1,29.29,33a9,9,0,0,1-4.58,1.49h0a8.41,8.41,0,0,1-1.33-4.6c0-6.38,3.78-11.41,7.48-15.48l0,0v0a31.14,31.14,0,0,0,.4,4.54h0a24.63,24.63,0,0,0-3.12,7,.27.27,0,0,0,.11.33c.07,0,.19,0,.26-.18a22.58,22.58,0,0,1,3-5.44l0,0v0A27.27,27.27,0,0,0,39,34.26l0,0,0,0A12.91,12.91,0,0,1,30.52,37.75ZM25.11,35a6.74,6.74,0,0,0,5.41,2.7,12.91,12.91,0,0,0,8.42-3.43,27.21,27.21,0,0,1-7.35-13.57,22.42,22.42,0,0,0-3,5.4c-.09.2-.22.23-.31.2a.3.3,0,0,1-.14-.38,24.69,24.69,0,0,1,3.12-7,30.2,30.2,0,0,1-.41-4.47c-3.68,4.06-7.43,9.06-7.43,15.41a8.39,8.39,0,0,0,1.32,4.57A8.86,8.86,0,0,0,29.27,33a6.31,6.31,0,0,0,2.61-2.83c.07-.19.2-.26.29-.23s.14.15.07.36a6.61,6.61,0,0,1-2.86,3.14A10.29,10.29,0,0,1,25.11,35Zm-3.9-1.12-.06,0a10.1,10.1,0,0,1-4.82-4.06,11.87,11.87,0,0,1-1.85-6.39,15.65,15.65,0,0,1,5.27-11.62A17.23,17.23,0,0,1,31.22,7.2h.48v0A23.83,23.83,0,0,0,31,11.12h0a58.22,58.22,0,0,0-7.28,8.15c-2.39,3.45-3.55,6.7-3.55,10a10.06,10.06,0,0,0,1,4.59Zm10-26.65a17.22,17.22,0,0,0-11.44,4.58,15.61,15.61,0,0,0-5.25,11.59,11.82,11.82,0,0,0,1.84,6.37,10.12,10.12,0,0,0,4.75,4,10.09,10.09,0,0,1-1-4.56c0-3.25,1.17-6.52,3.56-10A57.75,57.75,0,0,1,31,11.11a23.29,23.29,0,0,1,.68-3.86h-.42Zm8.63,26.24,0,0c-3.77-2.89-6.65-7.71-7.91-13.21h0a8.69,8.69,0,0,1,6.55-3.46c4,0,5.78,3.39,5.78,6.74a14.81,14.81,0,0,1-4.39,10ZM32,20.25c1.26,5.48,4.13,10.28,7.88,13.17a14.81,14.81,0,0,0,4.36-9.91c0-3.33-1.77-6.69-5.73-6.69A8.63,8.63,0,0,0,32,20.25Zm-.38-1.71v-.05A28.76,28.76,0,0,1,31.2,14h0c.7-.76,1.4-1.5,2.09-2.22,1.25-1.31,2.44-2.56,3.43-3.76V8h0a20.77,20.77,0,0,1,5.08,2.53l0,0-.05,0A19.59,19.59,0,0,0,31.61,18.5ZM31.25,14a28,28,0,0,0,.35,4.4,19.68,19.68,0,0,1,10.17-7.87,20.38,20.38,0,0,0-5-2.5c-1,1.21-2.18,2.45-3.43,3.76Zm.18-3.32v-.07a23.62,23.62,0,0,1,.75-3.4v0h0a18.39,18.39,0,0,1,2.39.27h0l0,0c-.91,1-1.95,2-3.06,3.05Zm.8-3.44a22.24,22.24,0,0,0-.73,3.32l0,0c1.1-1.07,2.13-2.07,3-3A17.48,17.48,0,0,0,32.23,7.27ZM35,7.17h0a18.62,18.62,0,0,0-2.61-.33h0v0c1.16-3.55,3-5.93,4.47-5.93.71,0,1.07.44,1.07,1.29,0,1.27-.89,2.81-2.89,5ZM32.38,6.8a19.68,19.68,0,0,1,2.56.32c2-2.16,2.88-3.68,2.88-4.94,0-.84-.34-1.24-1-1.24C35.29.94,33.52,3.29,32.38,6.8Z"/><path class="cls-1" d="M60.2,24c-.74-.72-1.2-1-4-2.19-3.07-1.33-3.71-2-3.71-3.65a3,3,0,0,1,3.18-3.05,4.77,4.77,0,0,1,2.86.88A4.51,4.51,0,0,1,60,18.35h0a.3.3,0,0,0,.59-.09c0-.11-.08-.39-.1-.72s-.08-1.34-.08-1.74c0,0,0-.85,0-1.23h0a.21.21,0,0,0-.21-.21.18.18,0,0,0-.15.07h0s-.08.12-.3.12a3.32,3.32,0,0,1-.66-.08A25.35,25.35,0,0,0,56,14.24c-3.37,0-5.56,1.84-5.56,4.64a3.66,3.66,0,0,0,1.18,2.83c.8.72.82.75,3.66,2,3.25,1.47,3.92,2.14,3.92,3.79a3.26,3.26,0,0,1-3.5,3.21,6.28,6.28,0,0,1-4-1.31,5.14,5.14,0,0,1-1.41-2.61h0a.31.31,0,0,0-.3-.25.3.3,0,0,0-.3.3v0h0a33.45,33.45,0,0,0,.48,4.58h0a.05.05,0,0,0,0,0h0a.21.21,0,0,0,.16.08h0c.06,0,.11-.05.2-.13a.84.84,0,0,1,.47-.14,2.13,2.13,0,0,1,.35,0,21.55,21.55,0,0,0,3.76.37c4,0,6.36-1.68,6.36-4.62A4.21,4.21,0,0,0,60.2,24Z"/><path class="cls-1" d="M10.52,24c-.75-.72-1.2-1-3.95-2.19-3.07-1.33-3.71-2-3.71-3.65A3,3,0,0,1,6,15.09,4.75,4.75,0,0,1,8.89,16a4.39,4.39,0,0,1,1.43,2.38h0a.3.3,0,0,0,.28.21.29.29,0,0,0,.3-.3c0-.11-.07-.39-.1-.72s-.08-1.34-.08-1.74c0,0,0-.85.06-1.23h0a.21.21,0,0,0-.21-.21.2.2,0,0,0-.16.07h0a.33.33,0,0,1-.3.12,3.38,3.38,0,0,1-.67-.08,25.21,25.21,0,0,0-3.15-.24c-3.36,0-5.55,1.84-5.55,4.64a3.69,3.69,0,0,0,1.17,2.83c.8.72.83.75,3.66,2,3.26,1.47,3.93,2.14,3.93,3.79A3.26,3.26,0,0,1,6,30.74a6.29,6.29,0,0,1-4-1.31A5.2,5.2,0,0,1,.6,26.82h0a.29.29,0,0,0-.29-.25.29.29,0,0,0-.3.3v0H0a35.1,35.1,0,0,0,.48,4.58h0l0,0h0a.21.21,0,0,0,.17.08h0c.07,0,.12-.05.21-.13a.84.84,0,0,1,.47-.14,2.29,2.29,0,0,1,.35,0,21.46,21.46,0,0,0,3.76.37c4,0,6.36-1.68,6.36-4.62A4.21,4.21,0,0,0,10.52,24Z"/></g></g></svg>