<svg xmlns="http://www.w3.org/2000/svg" viewBox="0 0 706.22 165.51"><defs><style>.cls-lh1{fill:#fff;}</style></defs><title>S&amp;amp;S logo White</title><g id="Layer_2" data-name="Layer 2"><g id="Layer_1-2" data-name="Layer 1"><path class="cls-lh1" d="M410.63,108.15c-.11.14-4.37,4.87-13,4.87-6.59,0-13.35-2.45-19.65-6.85,9.2-9.71,14-21.87,14-32.73,0-11.2-6.48-22.57-20.13-22.57a21.48,21.48,0,0,0-10.17,2.5C370.65,42,383.7,38.1,389,36.94c.5.25.87.16.76-.24a8,8,0,0,0-3.59-4,2.48,2.48,0,0,0-1.41-.13,73.46,73.46,0,0,0-17.29-8.52c4.68-5.84,7.79-11.38,7.79-16.89,0-4.8-2.79-7.13-6.43-7.13-5.16,0-13.41,6.57-17.8,21.25l-1.43,0c-27.81,0-54.43,22.42-54.43,52.26,0,15.14,10,30.09,23.76,34.72,5.51,8.78,15.53,13.39,26.58,13.39,11.81,0,22-5.12,29.77-12.62,6.83,5.93,14.11,9.31,20.73,9.31,10.16,0,15.31-8.75,15.57-9.71C411.72,107.93,411.09,107.58,410.63,108.15Zm-38.72-55.5c12,0,18,10,18,21.05s-5.37,22.55-13.74,31.15C365,96.27,355.56,81.52,351.42,63.46,357.57,56.26,364.58,52.65,371.91,52.65Zm10.51-19.52c-11.4,3.27-23.3,12.06-32.09,24.81a89.48,89.48,0,0,1-1.14-14c6.22-6.76,12.5-12.93,17.33-18.77A65.66,65.66,0,0,1,382.42,33.13Zm-32.48.25a73.09,73.09,0,0,1,2.35-10.66,56,56,0,0,1,7.5.83C356.87,26.64,353.5,29.91,349.94,33.38ZM366.63,2.87c2.22,0,3.3,1.32,3.3,4,0,4.52-3.65,9.7-9.06,15.57a56.65,56.65,0,0,0-8.17-1C356.25,10.5,361.85,2.87,366.63,2.87ZM296.77,73.39c0-29.33,26.47-50.76,52.42-50.76.48,0,.94,0,1.4,0a72.44,72.44,0,0,0-2.17,12.2c-15.61,15.24-34,34.05-34,56.8a31.74,31.74,0,0,0,3.22,14.44C305.26,101.26,296.77,87.93,296.77,73.39ZM347,118.28a21.38,21.38,0,0,1-17.1-8.58c8.48-.8,20-7.56,22.43-14.81.4-1.21-.62-1.4-1-.34-2,5.74-12.46,13.44-22.56,13.58a26.46,26.46,0,0,1-4.16-14.41C324.6,74,336,58.46,348,45.24a94.33,94.33,0,0,0,1.28,14.23,76.72,76.72,0,0,0-9.78,21.83c-.3,1.1.78,1.63,1.27.52a71.32,71.32,0,0,1,9.56-17c4.07,18,13,33.16,23.11,42.7C366.07,114,356.8,118.28,347,118.28Z"/><path class="cls-lh1" d="M345.46,121.74a35.08,35.08,0,0,1-15.4-3.41,27.3,27.3,0,0,1-11.23-10,34.4,34.4,0,0,1-17-13.44,38.41,38.41,0,0,1-6.75-21.34c0-14.11,6-27.39,16.81-37.37a56.33,56.33,0,0,1,37.69-15l1.25,0h.13c2.52-8.4,6.07-13.4,8.61-16.11C362.6,1.87,366,0,368.78,0c4,0,6.5,2.76,6.5,7.2,0,5-2.39,10.15-7.75,16.86a73.63,73.63,0,0,1,17.18,8.55c2.55-.57,6.38,5.39,4.19,4.31-5.16,1.13-18,5.1-26.89,16.22a21.72,21.72,0,0,1,9.9-2.34,18.64,18.64,0,0,1,15.24,7.11,25.18,25.18,0,0,1,5,15.53,44.11,44.11,0,0,1-3.57,16.82,53.19,53.19,0,0,1-10.43,15.9c6.4,4.44,13.15,6.79,19.55,6.79,8.62,0,12.88-4.79,12.92-4.84a.63.63,0,0,1,.76-.26.66.66,0,0,1,.25.82c-.26,1-5.45,9.76-15.63,9.76-6.55,0-13.71-3.21-20.73-9.28C369.24,114.9,359.22,121.74,345.46,121.74Zm4.09-100.37A56.25,56.25,0,0,0,312,36.29c-10.81,10-16.76,23.2-16.76,37.27a38.31,38.31,0,0,0,6.72,21.26,34.36,34.36,0,0,0,17,13.4h0v0a27,27,0,0,0,11.18,10,35,35,0,0,0,15.34,3.4c13.75,0,23.75-6.85,29.72-12.6l.05,0,0,0c7,6.08,14.15,9.29,20.68,9.29,10.1,0,15.24-8.67,15.5-9.65.08-.31,0-.57-.18-.67s-.41,0-.6.23h0s-4.33,4.89-13,4.89c-6.45,0-13.26-2.38-19.69-6.87l-.07,0,.06-.06a53,53,0,0,0,10.45-15.91A43.81,43.81,0,0,0,392,73.44,25,25,0,0,0,387,58a18.48,18.48,0,0,0-15.13-7.06,21.35,21.35,0,0,0-10.14,2.49l-.31.18.22-.28c8.93-11.39,22-15.28,27.17-16.42h0a12.88,12.88,0,0,0,5.74,1.59c3.95,0,5.75-1.55,5.75-3,0-.94-.74-1.86-2-2.54A14.4,14.4,0,0,0,392,31.78a33.51,33.51,0,0,0-7.41.87h0l0,0a71.81,71.81,0,0,0-17.1-8.48l-.1,0,.06-.08c5.38-6.72,7.78-11.92,7.78-16.85,0-4.42-2.38-7.06-6.36-7.06-2.78,0-6.11,1.86-9.14,5.1-2.54,2.7-6.08,7.69-8.6,16.1v.05h-.24Zm-2.57,97a21.29,21.29,0,0,1-17.15-8.61l-.08-.1h.12a32.48,32.48,0,0,0,13.46-5c4.63-2.94,7.79-6.42,8.92-9.79.18-.55.06-.86-.14-.93s-.54.12-.72.63c-1,2.91-4.08,6.24-8.26,8.93a27.87,27.87,0,0,1-14.37,4.7h0l0,0a26.44,26.44,0,0,1-4.17-14.45c0-20,11.85-35.75,23.45-48.52l.11-.13v.17a94.67,94.67,0,0,0,1.28,14.22v0a77.34,77.34,0,0,0-9.78,21.81c-.14.54.07.92.34,1s.58,0,.81-.55a71.82,71.82,0,0,1,9.56-17.07l.09-.11,0,.14c3.82,16.88,12.23,32.43,23.09,42.67l.06,0-.06,0C365.61,114.5,356.19,118.35,347,118.35Zm-17-8.59a21.15,21.15,0,0,0,17,8.45c9.15,0,18.52-3.81,26.38-10.74-10.82-10.23-19.21-25.72-23-42.55a71.47,71.47,0,0,0-9.45,16.92c-.27.62-.7.73-1,.63a.91.91,0,0,1-.43-1.18,77.25,77.25,0,0,1,9.78-21.84,94.78,94.78,0,0,1-1.28-14c-11.54,12.73-23.29,28.41-23.29,48.3a26.31,26.31,0,0,0,4.13,14.34,27.72,27.72,0,0,0,14.25-4.68c4.16-2.67,7.22-6,8.21-8.85.21-.6.61-.82.89-.72s.44.47.23,1.1c-1.14,3.41-4.32,6.91-9,9.86A32.82,32.82,0,0,1,330,109.76Zm-12.23-3.53-.16-.07a31.68,31.68,0,0,1-15.11-12.74,37.14,37.14,0,0,1-5.81-20c0-13.75,5.86-26.69,16.5-36.43a54.16,54.16,0,0,1,36-14.39h1.49l0,.09a71.31,71.31,0,0,0-2.17,12.19v0l0,0c-8,7.82-16.38,16.25-22.85,25.57-7.49,10.82-11.13,21-11.13,31.18a31.68,31.68,0,0,0,3.21,14.41ZM349.19,22.7A54,54,0,0,0,313.3,37.06c-10.61,9.71-16.46,22.62-16.46,36.33a37,37,0,0,0,5.78,20A31.65,31.65,0,0,0,317.5,106a31.85,31.85,0,0,1-3.15-14.31c0-10.2,3.65-20.42,11.16-31.26,6.47-9.33,14.83-17.75,22.85-25.57a72.63,72.63,0,0,1,2.14-12.1h-.29Zm27,82.24-.05,0c-11.82-9.08-20.86-24.18-24.82-41.43v0l0,0c6-7.09,13.15-10.84,20.54-10.84C384.42,52.58,390,63.19,390,73.7c0,10.68-5.15,22.35-13.76,31.2ZM351.5,63.48c3.94,17.19,12.95,32.23,24.7,41.28,8.57-8.82,13.68-20.43,13.68-31.06,0-10.44-5.56-21-18-21C364.57,52.72,357.51,56.44,351.5,63.48Zm-1.21-5.36,0-.17a90,90,0,0,1-1.14-14v0l0,0c2.2-2.38,4.41-4.7,6.54-7,3.94-4.13,7.66-8,10.78-11.81l0,0,.05,0a65,65,0,0,1,15.92,7.93l.13.08-.15,0C370.58,36.59,358.9,45.63,350.39,58Zm-1-14.12a89.83,89.83,0,0,0,1.11,13.76c8.49-12.25,20.09-21.23,31.89-24.66a65,65,0,0,0-15.72-7.82c-3.12,3.77-6.83,7.67-10.76,11.79C353.65,39.3,351.45,41.62,349.26,44Zm.58-10.43,0-.2a72.22,72.22,0,0,1,2.36-10.67v-.06h.06a58.32,58.32,0,0,1,7.5.83l.13,0-.09.09c-2.85,3-6.12,6.21-9.59,9.58Zm2.5-10.78a72.75,72.75,0,0,0-2.3,10.4l.12-.12c3.42-3.34,6.66-6.49,9.49-9.48A59.23,59.23,0,0,0,352.34,22.79Zm8.55-.32h0a57.43,57.43,0,0,0-8.15-1h-.09l0-.08c3.61-11.11,9.23-18.57,14-18.57,2.23,0,3.37,1.36,3.37,4,0,4-2.8,8.81-9.08,15.61Zm-8.09-1.15a59.07,59.07,0,0,1,8,1c6.24-6.76,9-11.54,9-15.49,0-2.62-1.06-3.89-3.23-3.89C362,2.94,356.39,10.32,352.8,21.32Z"/><path class="cls-lh1" d="M512.78,50.89l-9.8-.15h-.63a.66.66,0,0,0,0,1.31h0c7.12,0,7.26.86,7.14,21.33-.08,13.21-.07,15.7-.38,18.8-.37,3.9-1.73,4.89-6.63,5h-.12a.83.83,0,0,0,.1,1.66h0l.66,0c2.48-.11,5.7-.19,9.22-.19h.08c3.53,0,6.75.08,9.22.19l.66,0h0a.83.83,0,0,0,.1-1.66h-.11c-4.9-.08-6.26-1.07-6.64-5-.3-3.1-.37-5.59-.37-18.8,0-19.62.46-21.33,7.13-21.33h0a.66.66,0,0,0,0-1.31h-.64l-9.79.15Z"/><path class="cls-lh1" d="M444.48,75.18c-2.35-2.26-3.77-3.09-12.39-6.86-9.63-4.19-11.64-6.19-11.64-11.47,0-5.61,4.1-9.54,10-9.54a14.84,14.84,0,0,1,9,2.76c1.84,1.43,3.15,3.36,4.49,7.46,0,0,0,0,0,0a1,1,0,0,0,.9.66.94.94,0,0,0,.93-.94c0-.34-.22-1.23-.31-2.27s-.24-4.18-.24-5.44c0,0,0-2.67.17-3.85h0a.65.65,0,0,0-.66-.66.68.68,0,0,0-.49.22,0,0,0,0,1,0,0,1,1,0,0,1-.94.37,10.44,10.44,0,0,1-2.09-.25,83.36,83.36,0,0,0-9.88-.76c-10.55,0-17.41,5.78-17.41,14.57a11.57,11.57,0,0,0,3.68,8.87c2.51,2.26,2.6,2.34,11.47,6.36,10.21,4.6,12.31,6.7,12.31,11.89,0,5.77-4.61,10-11,10-4.94,0-10-1.67-12.56-4.1a16.34,16.34,0,0,1-4.41-8.17h0a.94.94,0,0,0-1.86.15.38.38,0,0,0,0,.1h0c0,2.77,1,12.86,1.5,14.36h0a.46.46,0,0,0,.09.15,0,0,0,0,0,0,0,.66.66,0,0,0,.51.26l.1,0h0c.21,0,.37-.16.64-.39a2.34,2.34,0,0,1,1.48-.44,5.49,5.49,0,0,1,1.09.08,68.3,68.3,0,0,0,11.8,1.17c12.64,0,19.92-5.27,19.92-14.48A13.2,13.2,0,0,0,444.48,75.18Z"/><path class="cls-lh1" d="M564.75,64.71a13.23,13.23,0,0,0-5.58-10.87c-3.4-2.34-7.4-3.4-13.14-3.4-1.36,0-3.55.07-6.11.15-3.78.15-5.14.23-7.47.23h-3.12l-.4,0h-.25l-.72,0a1.32,1.32,0,0,0-.34,0l0,0a.64.64,0,0,0-.47.62.66.66,0,0,0,.34.57h0l.07,0h0a3.56,3.56,0,0,0,.81.13h0l.43,0,.35,0c2,.25,3.14.86,3.64,1.68.07.13.13.27.2.42a1.55,1.55,0,0,1,.07.31c.23.9.31,4.15.31,10.79,0,13.44-.16,20.61-.46,24.46-.37,5.28-1.35,6.64-5.13,7.09a3.87,3.87,0,0,0-1,.2.83.83,0,0,0,.28,1.61c4.76-.22,6.33-.22,8.44-.22l10.53.22a.83.83,0,0,0,.33-1.6h0l-.13,0a5.21,5.21,0,0,0-.67-.06c-4.2-.13-5.43-1.08-5.73-4.1-.3-2.57-.53-8.38-.53-13.06,1.66.08,2.65.15,4,.15C556.22,80.1,564.75,74,564.75,64.71ZM539.31,77.76v-3c0-10.64.15-20.23.38-21.13.15-.68,1.81-1.06,4.83-1.06,8,0,13.21,5.06,13.21,12.91C557.73,73,552,78,543.24,78,542.11,78,541.12,77.91,539.31,77.76Z"/><path class="cls-lh1" d="M499.48,97.19h-.08c-1.78-.32-3.3-1.29-7.62-5.54-9.28-9.44-16.45-17.26-19.39-20.58,6.44-5.59,11.13-9.92,14.29-12.52,5.71-4.73,7.34-5.59,9.77-6.36.32-.1.45-.12.52-.14l.08,0a.66.66,0,0,0-.21-1.28h-.19l-1.14.07c-1.57.06-3.95.14-5.94.16h-1c-1.53,0-6.37-.15-7.69-.2l-.34,0-1,0h-.08a.66.66,0,0,0-.66.66.67.67,0,0,0,.24.5v0a.44.44,0,0,0,.14.08h0l.17,0c.15,0,.88,0,1,0,3.06.18,4.25.79,4.25,2.17,0,1.89-4,6.14-20,20.11,0-5.82.16-11.93.38-15.93.22-4.79.61-5.58,4.26-6.24l.54-.08c.27,0,.57-.06.73-.08a.53.53,0,0,0,.12,0l.05,0a.47.47,0,0,0,.09-.06.64.64,0,0,0,.3-.54.65.65,0,0,0-.66-.66h0l-1.69.07c-1.57.06-4,.14-5.94.16h-1c-1.53,0-6.37-.15-7.7-.2h-.25l-.72,0a1,1,0,0,0-.34,0h0a.67.67,0,0,0-.47.63.64.64,0,0,0,.34.56l0,0,.07,0,0,0a7.82,7.82,0,0,0,1.27.17c3.91.4,4.51,1.29,4.59,11.45V65h0v2.6c0,12.08-.15,19.7-.38,22.72-.37,5.14-.95,5.63-4.52,6.62-.42.11-.63.16-1.05.3h0l-.06,0,0,0a.81.81,0,0,0-.43.72.84.84,0,0,0,.77.83H453c.31,0,.8-.06,1.88-.07H455c2-.08,4.32-.12,6.85-.12,3.15,0,6,.07,8.24.18h.67A.83.83,0,0,0,471,97.2a3.26,3.26,0,0,0-.9-.08c-3.62-.3-4.52-1.17-4.9-3.36-.45-2.41-.61-6-.61-15.77v-.6L467.33,75c4.08,3.93,7.4,7.25,10.95,11,6.19,6.57,7.92,8.68,7.92,9.44s-.58,1.1-1.89,1.38l-2,.36h0a.85.85,0,0,0-.66.82.84.84,0,0,0,.69.82h.37l1.54-.07c2-.07,4.32-.12,6.84-.12,3.14,0,6,.08,8.17.19a.83.83,0,0,0,.23-1.63Z"/><path class="cls-lh1" d="M605.52,64.71a13.23,13.23,0,0,0-5.58-10.87c-3.4-2.34-7.4-3.4-13.14-3.4-1.35,0-3.54.07-6.11.15-3.77.15-5.13.23-7.47.23H570.1l-.4,0h-.25l-.72,0a1.35,1.35,0,0,0-.34,0v0a.64.64,0,0,0-.47.62.67.67,0,0,0,.33.57h0l.07,0h0a3.77,3.77,0,0,0,.81.13h0l.44,0,.34,0c2,.25,3.15.86,3.64,1.68a4.09,4.09,0,0,1,.2.42,2.81,2.81,0,0,1,.08.31c.22.9.3,4.15.3,10.79,0,13.44-.15,20.61-.45,24.46-.38,5.28-1.36,6.64-5.14,7.09a4,4,0,0,0-1,.2A.82.82,0,0,0,567,98a.84.84,0,0,0,.84.83c4.75-.22,6.32-.22,8.43-.22l10.53.22a.83.83,0,0,0,.33-1.6h0l-.13,0a5.21,5.21,0,0,0-.67-.06c-4.2-.13-5.42-1.08-5.72-4.1-.31-2.57-.53-8.38-.53-13.06,1.66.08,2.64.15,4,.15C597,80.1,605.52,74,605.52,64.71ZM580.09,77.76v-3c0-10.64.15-20.23.37-21.13.16-.68,1.81-1.06,4.83-1.06,8,0,13.21,5.06,13.21,12.91C598.5,73,592.77,78,584,78,582.88,78,581.9,77.91,580.09,77.76Z"/><path class="cls-lh1" d="M647.2,86.83a.91.91,0,0,0-1.69-.49.52.52,0,0,0-.06.13h0c-1.1,3.3-3,6.34-5.26,7.66-1.86,1.11-5.88,1.66-11.39,1.66-7.25,0-7.85-.22-8-3.39-.15-2.57-.15-9.14-.15-17.52,8.61.08,11.33.08,12.84.23,3.85.38,5.73,2.07,5.73,5.77h0a.92.92,0,0,0,1.83-.06s-.24-3.83-.24-5.72c0-2.19.26-6.5.41-8.16v-.08a.91.91,0,0,0-1.79-.26.43.43,0,0,0,0,0,.13.13,0,0,0,0,.06.24.24,0,0,0,0,.08c-.49,3.88-1,4.68-4.17,5.22-2,.22-2.49.3-14.57.3V56c.08-1.81.15-2,1.29-2.18,1-.15,4.9-.31,7.54-.31,6.65,0,10,.53,11.4,1.82,1,.9,1.66,3.08,1.81,6.48a.91.91,0,0,0,.91.91.9.9,0,0,0,.9-.74h0a8.22,8.22,0,0,0,.12-1.75,65.71,65.71,0,0,1,.49-6.56,16.28,16.28,0,0,0,.38-2.35c0-.45-.23-.67-.76-.67H643.5c-1.86.07-17.17.28-22.3.3-3,0-5.78-.06-7-.06L611,50.82l-.4,0h-.25l-.72,0a1.25,1.25,0,0,0-.33,0l0,0a.64.64,0,0,0-.47.62.66.66,0,0,0,.34.57h0l.07,0h0a3.77,3.77,0,0,0,.81.13h0l.43,0,.34,0c2,.25,2.41.86,2.9,1.68a4.09,4.09,0,0,1,.2.42,2.81,2.81,0,0,1,.08.31h0c.07.4.12.78.14,1,.15,2.49.3,11,.3,18.12,0,13.13-.15,18.94-.6,20.45-.53,2-1.59,2.56-5.29,2.86h0a.83.83,0,0,0,.09,1.66c6.64-.3,8.48-.3,11.65-.3,10.62,0,21.37.32,23.15.37h.43a.86.86,0,0,0,.65-.51h0c0-.05.14-.43.15-.49.17-.52.37-1.32.68-2.53a58.41,58.41,0,0,0,1.81-8.45v-.07Z"/><path class="cls-lh1" d="M705.39,101.1h-.12a5.7,5.7,0,0,1-.91.07c-6.87-.08-17-10.51-24.25-25.15,6.12-2.42,9.36-6.8,9.36-12.76,0-8-5.89-12.83-15.62-12.83-.91,0-3.4.07-6.49.23l-6.11.23h-2.76l-3.17-.09-.39,0h-.25l-.73,0a1.27,1.27,0,0,0-.33,0l0,0a.64.64,0,0,0-.47.62.66.66,0,0,0,.34.57h0l.07,0h0a3.56,3.56,0,0,0,.81.13h0l.43,0,.34,0c2,.25,2.65.86,3.14,1.68a5,5,0,0,1,.41,1.71c.18,1.42.31,4.06.38,8.54,0,.54,0,1.1,0,1.69l0,0c0,2.62,0,5.78,0,9.58,0,9.06-.1,13.66-.37,16.61-.34,3.61-1.75,4.6-5.8,5.12h0a.84.84,0,0,0-.83.84.83.83,0,0,0,.83.83h1c1.58-.07,5.81-.15,7-.15,4.91,0,10.82.15,10.82.15h0a.83.83,0,0,0,.08-1.66h0c-4.15-.46-5.51-1.06-6-2.26s-.68-4.46-.68-13.06V78c1.28.07,1.88.07,2.87.07,2,0,3.92-.07,5.5-.22C677.47,85.61,683.9,93.25,687.3,97a18.67,18.67,0,0,0,14.11,6.26c1.81,0,4.24-.36,4.54-.74h0a.81.81,0,0,0,.27-.61A.83.83,0,0,0,705.39,101.1ZM670.07,75.73a19.87,19.87,0,0,1-4.9-.61V72c.07-3.09.07-3.09.15-8.45.07-8.08.15-9.14.6-9.81s2.12-1.06,5.21-1.06c7.17,0,11.32,4.38,11.32,11.92S678.23,75.73,670.07,75.73Z"/><path class="cls-lh1" d="M101.29,50.89l-9.8-.15h-.64a.66.66,0,0,0,0,1.31h0c7.12,0,7.26.86,7.13,21.33-.08,13.21-.07,15.7-.37,18.8-.38,3.9-1.74,4.89-6.64,5h-.11a.83.83,0,0,0,.1,1.66h0l.66,0c2.48-.11,5.69-.19,9.22-.19h.08c3.52,0,6.74.08,9.22.19l.66,0h0a.83.83,0,0,0,.1-1.66h-.12c-4.9-.08-6.26-1.07-6.63-5-.3-3.1-.38-5.59-.38-18.8,0-19.62.46-21.33,7.14-21.33h0a.66.66,0,0,0,0-1.31h-.63l-9.8.15Z"/><path class="cls-lh1" d="M33,75.18c-2.34-2.26-3.77-3.09-12.39-6.86C11,64.13,9,62.13,9,56.85c0-5.61,4.1-9.54,10-9.54a14.83,14.83,0,0,1,9,2.76c1.84,1.43,3.16,3.36,4.5,7.46,0,0,0,0,0,0a.94.94,0,0,0,1.83-.28c0-.34-.23-1.23-.32-2.27s-.24-4.18-.24-5.44c0,0,0-2.67.18-3.85h0a.66.66,0,0,0-1.15-.44h0a1,1,0,0,1-.94.37,10.58,10.58,0,0,1-2.09-.25,83.2,83.2,0,0,0-9.88-.76C9.21,44.63,2.34,50.41,2.34,59.2A11.54,11.54,0,0,0,6,68.07c2.51,2.26,2.59,2.34,11.46,6.36C27.71,79,29.8,81.13,29.8,86.32c0,5.77-4.61,10-11,10-4.93,0-10-1.67-12.55-4.1a16.19,16.19,0,0,1-4.41-8.17h0A.94.94,0,0,0,0,84.23s0,.06,0,.1H0C0,87.11,1,97.2,1.51,98.7h0a.75.75,0,0,0,.09.15s0,0,0,0a.66.66,0,0,0,.52.26l.1,0h0c.2,0,.36-.16.63-.39a2.38,2.38,0,0,1,1.48-.44,5.4,5.4,0,0,1,1.09.08,68.48,68.48,0,0,0,11.8,1.17c12.64,0,19.92-5.27,19.92-14.48A13.17,13.17,0,0,0,33,75.18Z"/><path class="cls-lh1" d="M153.25,64.71a13.23,13.23,0,0,0-5.58-10.87c-3.4-2.34-7.4-3.4-13.13-3.4-1.36,0-3.55.07-6.12.15-3.77.15-5.13.23-7.47.23h-3.12l-.4,0h-.25l-.72,0a1.25,1.25,0,0,0-.33,0l0,0a.64.64,0,0,0-.47.62A.66.66,0,0,0,116,52h0l.07,0h0a3.77,3.77,0,0,0,.81.13h0l.43,0,.34,0c2,.25,3.15.86,3.64,1.68a4.09,4.09,0,0,1,.2.42,2.81,2.81,0,0,1,.08.31c.22.9.3,4.15.3,10.79,0,13.44-.15,20.61-.45,24.46-.38,5.28-1.36,6.64-5.14,7.09a4,4,0,0,0-1,.2.82.82,0,0,0-.55.78.84.84,0,0,0,.84.83c4.75-.22,6.32-.22,8.43-.22l10.54.22a.83.83,0,0,0,.32-1.6h0l-.13,0a5.21,5.21,0,0,0-.67-.06c-4.2-.13-5.42-1.08-5.72-4.1-.31-2.57-.53-8.38-.53-13.06,1.66.08,2.64.15,4,.15C144.73,80.1,153.25,74,153.25,64.71ZM127.82,77.76v-3c0-10.64.15-20.23.38-21.13.15-.68,1.81-1.06,4.83-1.06,8,0,13.21,5.06,13.21,12.91C146.24,73,140.5,78,131.74,78,130.61,78,129.63,77.91,127.82,77.76Z"/><path class="cls-lh1" d="M88,97.19H87.9c-1.78-.32-3.29-1.29-7.61-5.54C71,82.19,63.84,74.37,60.89,71.05,67.33,65.46,72,61.13,75.18,58.53c5.71-4.73,7.35-5.59,9.78-6.36.32-.1.45-.12.52-.14l.07,0a.66.66,0,0,0-.21-1.28h-.18L84,50.8c-1.57.06-4,.14-6,.16h-1c-1.53,0-6.38-.15-7.7-.2l-.34,0-1,0H68a.65.65,0,0,0-.43,1.16s0,0,0,0a.44.44,0,0,0,.14.08h0l.17,0c.15,0,.89,0,1,0,3.06.18,4.25.79,4.25,2.17,0,1.89-4,6.14-20,20.11,0-5.82.15-11.93.38-15.93.21-4.79.6-5.58,4.26-6.24l.53-.08L59,52l.12,0,0,0,.09-.06a.65.65,0,0,0,.31-.54.66.66,0,0,0-.67-.66h0l-1.68.07c-1.57.06-4,.14-6,.16h-1c-1.53,0-6.38-.15-7.7-.2h-.25l-.73,0a.93.93,0,0,0-.33,0h0a.67.67,0,0,0-.47.63.64.64,0,0,0,.34.56l0,0,.07,0,0,0a7.82,7.82,0,0,0,1.27.17c3.92.4,4.51,1.29,4.59,11.45V65h0c0,.82,0,1.68,0,2.6,0,12.08-.16,19.7-.38,22.72-.38,5.14-1,5.63-4.53,6.62-.41.11-.62.16-1,.3h0l0,0-.05,0a.83.83,0,0,0,.34,1.55h.08c.31,0,.81-.06,1.88-.07h.13c2-.08,4.32-.12,6.84-.12,3.15,0,6,.07,8.24.18h.67a.83.83,0,0,0,.27-1.62,3.3,3.3,0,0,0-.91-.08c-3.62-.3-4.52-1.17-4.9-3.36-.45-2.41-.6-6-.6-15.77v-.6L55.84,75c4.07,3.93,7.39,7.25,10.94,11,6.19,6.57,7.93,8.68,7.93,9.44s-.59,1.1-1.89,1.38l-2,.36h0a.84.84,0,0,0-.66.82.83.83,0,0,0,.68.82h.37l1.54-.07c2-.07,4.32-.12,6.84-.12,3.14,0,6,.08,8.18.19A.83.83,0,0,0,88,97.19Z"/><path class="cls-lh1" d="M194,64.71a13.24,13.24,0,0,0-5.59-10.87c-3.39-2.34-7.4-3.4-13.13-3.4-1.36,0-3.55.07-6.12.15-3.77.15-5.13.23-7.47.23H158.6l-.39,0H158l-.73,0a1.25,1.25,0,0,0-.33,0l0,0a.64.64,0,0,0-.47.62.66.66,0,0,0,.34.57h0l.07,0h0a3.78,3.78,0,0,0,.82.13h0l.43,0,.34,0c2,.25,3.15.86,3.64,1.68a2.71,2.71,0,0,1,.2.42,2.81,2.81,0,0,1,.08.31c.23.9.3,4.15.3,10.79,0,13.44-.15,20.61-.45,24.46-.38,5.28-1.36,6.64-5.13,7.09a3.87,3.87,0,0,0-1,.2.83.83,0,0,0,.28,1.61c4.76-.22,6.32-.22,8.44-.22l10.53.22a.83.83,0,0,0,.32-1.6h0l-.14,0a5.06,5.06,0,0,0-.66-.06c-4.2-.13-5.43-1.08-5.73-4.1-.3-2.57-.53-8.38-.53-13.06,1.66.08,2.64.15,4,.15C185.5,80.1,194,74,194,64.71ZM168.59,77.76v-3c0-10.64.15-20.23.38-21.13.15-.68,1.81-1.06,4.83-1.06,8,0,13.21,5.06,13.21,12.91C187,73,181.27,78,172.52,78,171.38,78,170.4,77.91,168.59,77.76Z"/><path class="cls-lh1" d="M235.71,86.83a.92.92,0,0,0-.92-.92.91.91,0,0,0-.77.43.54.54,0,0,0-.07.13h0c-1.1,3.3-3,6.34-5.25,7.66-1.86,1.11-5.89,1.66-11.4,1.66-7.25,0-7.85-.22-8-3.39-.15-2.57-.15-9.14-.15-17.52,8.6.08,11.32.08,12.83.23,3.85.38,5.73,2.07,5.73,5.77h0a.9.9,0,0,0,.91.85.91.91,0,0,0,.91-.91s-.24-3.83-.24-5.72c0-2.19.26-6.5.41-8.16v0s0,0,0-.06a.92.92,0,0,0-.92-.91.9.9,0,0,0-.87.65s0,0,0,0,0,0,0,.06,0,0,0,.08c-.48,3.88-1,4.68-4.16,5.22-2,.22-2.5.3-14.57.3V56c.07-1.81.15-2,1.28-2.18s4.91-.31,7.55-.31c6.64,0,10,.53,11.4,1.82,1,.9,1.65,3.08,1.8,6.48A.92.92,0,0,0,233,62h0a9.23,9.23,0,0,0,.11-1.75,65.71,65.71,0,0,1,.49-6.56,16.28,16.28,0,0,0,.38-2.35c0-.45-.23-.67-.75-.67H232c-1.87.07-17.17.28-22.31.3-2.95,0-5.77-.06-7-.06l-3.17-.09-.39,0h-.25l-.73,0a1.27,1.27,0,0,0-.33,0l0,0a.64.64,0,0,0-.47.62.66.66,0,0,0,.34.57h0l.07,0h0a3.56,3.56,0,0,0,.81.13h0l.43,0,.34,0c2,.25,2.41.86,2.91,1.68a4.08,4.08,0,0,1,.19.42,1.57,1.57,0,0,1,.08.31h0c.06.4.11.78.13,1,.15,2.49.3,11,.3,18.12,0,13.13-.15,18.94-.6,20.45-.53,2-1.58,2.56-5.28,2.86h0a.83.83,0,0,0,.08,1.66c6.64-.3,8.49-.3,11.66-.3,10.62,0,21.36.32,23.14.37h.44a.84.84,0,0,0,.64-.51h0c0-.05.13-.43.15-.49.16-.52.37-1.32.68-2.53a60,60,0,0,0,1.81-8.45s0,0,0,0S235.71,86.84,235.71,86.83Z"/><path class="cls-lh1" d="M293.89,101.1h-.12a5.58,5.58,0,0,1-.91.07c-6.87-.08-17-10.51-24.24-25.15,6.11-2.42,9.36-6.8,9.36-12.76,0-8-5.89-12.83-15.63-12.83-.9,0-3.4.07-6.49.23l-6.11.23H247l-3.17-.09-.4,0h-.25l-.72,0a1.35,1.35,0,0,0-.34,0v0a.64.64,0,0,0-.47.62A.67.67,0,0,0,242,52h0l.07,0h0a3.77,3.77,0,0,0,.81.13h0l.44,0,.34,0c2,.25,2.64.86,3.14,1.68a5.53,5.53,0,0,1,.41,1.71c.18,1.42.31,4.06.38,8.54,0,.54,0,1.1,0,1.69v0c0,2.62.05,5.78.05,9.58,0,9.06-.1,13.66-.38,16.61-.34,3.61-1.75,4.6-5.8,5.12h0a.84.84,0,0,0-.83.84.83.83,0,0,0,.83.83h1c1.58-.07,5.81-.15,7-.15,4.91,0,10.82.15,10.82.15h0a.83.83,0,0,0,.08-1.66h0c-4.16-.46-5.51-1.06-6-2.26s-.68-4.46-.68-13.06V78c1.28.07,1.89.07,2.87.07,2,0,3.92-.07,5.51-.22C266,85.61,272.4,93.25,275.8,97a18.69,18.69,0,0,0,14.12,6.26c1.81,0,4.23-.36,4.53-.74h0a.85.85,0,0,0,.27-.61A.84.84,0,0,0,293.89,101.1ZM258.58,75.73a19.94,19.94,0,0,1-4.91-.61V72c.08-3.09.08-3.09.15-8.45.08-8.08.15-9.14.61-9.81s2.11-1.06,5.2-1.06C266.8,52.63,271,57,271,64.55S266.73,75.73,258.58,75.73Z"/><path class="cls-lh1" d="M120.28,148.65h1.66V155h8.45v-6.38H132V163h-1.65v-6.46h-8.45V163h-1.66Z"/><path class="cls-lh1" d="M140.38,148.65H151v1.48H142V155h8v1.48h-8v5h9V163H140.38Z"/><path class="cls-lh1" d="M164,148.55h1.55L172.23,163h-1.78l-1.71-3.8h-8L159,163h-1.7Zm4.08,9.19-3.33-7.31-3.35,7.31Z"/><path class="cls-lh1" d="M179.31,148.65H181v12.86h8.25V163h-9.9Z"/><path class="cls-lh1" d="M198.23,150.15h-4.92v-1.5h11.51v1.5H199.9V163h-1.67Z"/><path class="cls-lh1" d="M212.11,148.65h1.65V155h8.46v-6.38h1.65V163h-1.65v-6.46h-8.46V163h-1.65Z"/><path class="cls-lh1" d="M231.09,164.79c1-.37,1.49-.9,1.41-1.78h-.76v-2.15h1.93v1.84a2.54,2.54,0,0,1-2.33,2.81Z"/><path class="cls-lh1" d="M250.85,148.65h1.8l4.19,12,4-12h1.36l4,12,4.19-12h1.74l-5.24,14.46h-1.4l-4-11.65-4,11.65h-1.39Z"/><path class="cls-lh1" d="M279.34,148.65h10.59v1.48H281V155h8v1.48h-8v5h9V163H279.34Z"/><path class="cls-lh1" d="M297.55,148.65h1.65v12.86h8.25V163h-9.9Z"/><path class="cls-lh1" d="M314.69,148.65h1.66v12.86h8.24V163h-9.9Z"/><path class="cls-lh1" d="M331.83,148.65h1.55l9.23,11.51V148.65h1.61V163H342.9l-9.45-11.78V163h-1.62Z"/><path class="cls-lh1" d="M352.56,148.65h10.59v1.48h-8.94V155h8v1.48h-8v5h9V163H352.56Z"/><path class="cls-lh1" d="M369.8,160.92l1-1.19a7.06,7.06,0,0,0,5,2c2,0,3.27-1,3.27-2.44v0c0-1.34-.74-2.1-3.81-2.73-3.37-.72-4.92-1.79-4.92-4.15v0c0-2.25,2-3.91,4.81-3.91a7.72,7.72,0,0,1,5.15,1.76l-1,1.25a6.5,6.5,0,0,0-4.23-1.56c-1.9,0-3.12,1-3.12,2.32v0c0,1.35.76,2.11,4,2.79s4.77,1.87,4.77,4.06v0c0,2.46-2.09,4.06-5,4.06A8.67,8.67,0,0,1,369.8,160.92Z"/><path class="cls-lh1" d="M387.18,160.92l1-1.19a7.08,7.08,0,0,0,5,2c2,0,3.26-1,3.26-2.44v0c0-1.34-.73-2.1-3.81-2.73-3.37-.72-4.92-1.79-4.92-4.15v0c0-2.25,2-3.91,4.82-3.91a7.71,7.71,0,0,1,5.14,1.76l-1,1.25a6.5,6.5,0,0,0-4.23-1.56c-1.9,0-3.11,1-3.11,2.32v0c0,1.35.75,2.11,4,2.79s4.77,1.87,4.77,4.06v0c0,2.46-2.09,4.06-5,4.06A8.65,8.65,0,0,1,387.18,160.92Z"/><path class="cls-lh1" d="M424.45,161a6.41,6.41,0,0,1-4.79,2.23c-2.63,0-4.6-1.62-4.6-4v0c0-1.91,1.3-3.28,3.53-4.14a4.62,4.62,0,0,1-1.46-3.16v0c0-1.89,1.55-3.41,3.87-3.41a3.37,3.37,0,0,1,3.56,3.25v0c0,1.82-1.32,3-3.45,3.73l3.34,3.34a18.24,18.24,0,0,0,1.76-3.2l1.36.62a20.67,20.67,0,0,1-2.11,3.61l2.55,2.56-1.25,1Zm-1-1-3.91-4c-2,.7-2.81,1.87-2.81,3.08v0a2.81,2.81,0,0,0,3.06,2.71A5,5,0,0,0,423.45,160Zm-.44-8.2v0a2,2,0,0,0-2.07-2,2.08,2.08,0,0,0-2.22,2.07v0c0,.84.36,1.48,1.46,2.65C422.05,153.88,423,153,423,151.77Z"/><path class="cls-lh1" d="M445.41,148.65h1.65v8.57l8.41-8.57h2.14l-6.28,6.28,6.55,8.08h-2.07l-5.63-6.95-3.12,3.09V163h-1.65Z"/><path class="cls-lh1" d="M464.79,148.65h1.65V163h-1.65Z"/><path class="cls-lh1" d="M474.92,148.65h1.55l9.23,11.51V148.65h1.61V163H486l-9.46-11.78V163h-1.61Z"/><path class="cls-lh1" d="M495.64,148.65h5.09c4.6,0,7.78,3.1,7.78,7.14v0c0,4-3.18,7.18-7.78,7.18h-5.09Zm1.66,1.5v11.36h3.43c3.7,0,6.07-2.46,6.07-5.64v0c0-3.18-2.37-5.68-6.07-5.68Z"/><path class="cls-lh1" d="M516.2,148.65h1.55L527,160.16V148.65h1.62V163h-1.32l-9.46-11.78V163H516.2Z"/><path class="cls-lh1" d="M536.92,148.65h10.59v1.48h-8.94V155h8v1.48h-8v5h9V163H536.92Z"/><path class="cls-lh1" d="M554.17,160.92l1-1.19a7.06,7.06,0,0,0,5,2c2,0,3.27-1,3.27-2.44v0c0-1.34-.73-2.1-3.81-2.73-3.37-.72-4.92-1.79-4.92-4.15v0c0-2.25,2-3.91,4.82-3.91a7.71,7.71,0,0,1,5.14,1.76l-1,1.25a6.5,6.5,0,0,0-4.23-1.56c-1.9,0-3.11,1-3.11,2.32v0c0,1.35.75,2.11,4,2.79s4.77,1.87,4.77,4.06v0c0,2.46-2.09,4.06-5,4.06A8.63,8.63,0,0,1,554.17,160.92Z"/><path class="cls-lh1" d="M571.54,160.92l1-1.19a7.08,7.08,0,0,0,5,2c2,0,3.26-1,3.26-2.44v0c0-1.34-.73-2.1-3.81-2.73-3.37-.72-4.91-1.79-4.91-4.15v0c0-2.25,2-3.91,4.81-3.91a7.75,7.75,0,0,1,5.15,1.76l-1,1.25a6.49,6.49,0,0,0-4.22-1.56c-1.91,0-3.12,1-3.12,2.32v0c0,1.35.75,2.11,4,2.79s4.78,1.87,4.78,4.06v0c0,2.46-2.1,4.06-5,4.06A8.65,8.65,0,0,1,571.54,160.92Z"/></g></g></svg>