<?xml version="1.0" encoding="UTF-8" standalone="no"?>
<svg
   xmlns:dc="http://purl.org/dc/elements/1.1/"
   xmlns:cc="http://creativecommons.org/ns#"
   xmlns:rdf="http://www.w3.org/1999/02/22-rdf-syntax-ns#"
   xmlns:svg="http://www.w3.org/2000/svg"
   xmlns="http://www.w3.org/2000/svg"
   xmlns:sodipodi="http://sodipodi.sourceforge.net/DTD/sodipodi-0.dtd"
   xmlns:inkscape="http://www.inkscape.org/namespaces/inkscape"
   version="1.1"
   id="svg2"
   xml:space="preserve"
   width="65.066666"
   height="65.066666"
   viewBox="0 0 65.066666 65.066666"
   sodipodi:docname="Vector Smart Object.ai"><metadata
     id="metadata8"><rdf:RDF><cc:Work
         rdf:about=""><dc:format>image/svg+xml</dc:format><dc:type
           rdf:resource="http://purl.org/dc/dcmitype/StillImage" /></cc:Work></rdf:RDF></metadata><defs
     id="defs6"><clipPath
       clipPathUnits="userSpaceOnUse"
       id="clipPath18"><path
         d="M 0,48.8 H 48.8 V 0 H 0 Z"
         id="path16" /></clipPath></defs><sodipodi:namedview
     pagecolor="#ffffff"
     bordercolor="#666666"
     borderopacity="1"
     objecttolerance="10"
     gridtolerance="10"
     guidetolerance="10"
     inkscape:pageopacity="0"
     inkscape:pageshadow="2"
     inkscape:window-width="640"
     inkscape:window-height="480"
     id="namedview4" /><g
     id="g10"
     inkscape:groupmode="layer"
     inkscape:label="Vector Smart Object"
     transform="matrix(1.3333333,0,0,-1.3333333,0,65.066667)"><g
       id="g12"><g
         id="g14"
         clip-path="url(#clipPath18)"><g
           id="g20"
           transform="translate(24.4,0.4)"><path
             d="M 0,0 C -13.255,0 -24,10.745 -24,24 -24,37.255 -13.255,48 0,48 13.255,48 24,37.255 24,24 24,10.745 13.255,0 0,0"
             style="fill:none;stroke:#0ba9b8;stroke-width:0.8;stroke-linecap:butt;stroke-linejoin:miter;stroke-miterlimit:10;stroke-dasharray:none;stroke-opacity:1"
             id="path22" /></g><g
           id="g24"
           transform="translate(19.6329,14.0865)"><path
             d="m 0,0 c -0.187,0 -0.364,0.073 -0.497,0.206 -0.268,0.287 -0.268,0.75 0.008,1.045 l 9.024,9.216 -8.712,8.92 c -0.271,0.289 -0.271,0.749 0.004,1.042 0.125,0.125 0.301,0.198 0.489,0.198 0.188,0 0.364,-0.073 0.497,-0.206 l 9.202,-9.396 c 0.288,-0.299 0.288,-0.77 0,-1.07 L 0.493,0.202 C 0.364,0.073 0.188,0 0,0"
             style="fill:#0ba9b8;fill-opacity:1;fill-rule:nonzero;stroke:none"
             id="path26" /></g></g></g></g></svg>
